<?xml version="1.0" encoding="UTF-8"?>
<svg width="36px" height="40px" viewBox="0 0 36 40" version="1.1" xmlns="http://www.w3.org/2000/svg" xmlns:xlink="http://www.w3.org/1999/xlink">
    <title>CC Logo</title>
    <defs>
        <path d="M0,0 L36,0 L36,40 L0,40 L0,0 Z" id="path-1"></path>
    </defs>
    <g id="CC-Logo" stroke="none" fill="none" xlink:href="#path-1">
        <rect id="Rectangle" fill-rule="nonzero" x="0" y="0" width="36" height="40"></rect>
        <g id="Group" stroke-width="1" fill-rule="evenodd" transform="translate(0.33, 0)">
            <path d="M22.6796145,0.031809831 L22.8618143,0.0673849935 C24.2589361,0.385057116 26.0175589,3.19579504 26.7965092,5.93571592 C29.2443232,5.91770349 31.5819758,6.49013945 32.5564546,7.6525285 C32.5671854,7.65876504 32.5749969,7.6676992 32.5805965,7.68030151 C32.6068006,7.70422953 32.6274581,7.73055922 32.6474238,7.75718018 L32.6390564,7.76345575 C33.5031372,8.93290181 33.0838011,12.1860521 31.97896,14.7706838 C34.0072883,16.5074935 35.4453552,18.5223268 35.3243849,20.0940322 C35.2308365,21.4972583 32.8918291,23.7338189 30.4601267,24.9912405 C30.9360964,27.5819232 30.7750904,30.1197477 29.7340729,31.2832294 C28.828983,32.2888849 25.8388444,32.5051514 23.2502536,31.9628524 C23.2041965,32.0278062 23.1558814,32.0896762 23.1054491,32.1486726 C23.120805,32.3237825 23.1175256,32.5038046 23.0944839,32.6862078 C23.0660196,32.8569938 23.0197211,33.017136 22.9576708,33.166179 C23.0897577,33.4540264 23.1612007,33.7763479 23.1612007,34.1166835 C23.1612007,34.459491 23.093868,34.7912584 22.9655139,35.0895692 C23.0570842,35.2997902 23.119898,35.531517 23.151349,35.780235 L23.1580931,35.8867272 C23.2589092,37.0550868 22.3714196,38.0057222 21.2798398,38.1616622 L20.4836664,38.3718785 C20.2539243,39.2253754 19.5458481,39.8710006 18.6098769,39.987997 L18.4170814,40 L16.7766373,40 L16.5838418,39.987997 C15.6549026,39.8718796 14.9487345,39.1941072 14.7114439,38.3448559 L13.8022782,38.1308749 C12.6669974,37.8470547 11.9479161,36.7472832 12.0992348,35.5471591 C12.1326716,35.3465385 12.1907177,35.1606051 12.2708216,34.9907116 C12.1077236,34.6076128 12.0426733,34.1730387 12.0992348,33.7244434 C12.1326716,33.5238228 12.1907177,33.3378894 12.2708216,33.1679959 C12.1645145,32.9184492 12.0999096,32.6470093 12.0841371,32.3639089 C9.91581699,33.0875545 7.82032715,33.2392638 6.66414785,32.448082 C5.48916199,31.6647581 4.77990763,28.4081571 4.96686899,25.5831853 C2.57821522,24.7021539 0.549483648,23.3089664 0.0624007635,21.7846914 C-0.324756936,20.4296395 1.14075145,17.4638787 3.0421486,15.413451 C1.71598094,13.0939567 1.01523477,10.6808156 1.63201355,9.26227037 C2.18291796,7.97682675 5.01993337,6.71246894 7.71933811,6.34002363 L7.72434127,6.22927363 L7.88010895,6.22386124 C8.29461867,3.67805628 9.2700735,1.40305044 10.6171332,0.668313111 C11.8667992,-0.00458392369 14.8316112,0.904757315 17.1067954,2.42726618 L17.1961314,2.32919966 L17.3464224,2.45959921 C19.1804417,0.849032014 21.1991687,-0.199084661 22.6796145,0.031809831 Z" id="Path" fill="#FFFFFF" fill-rule="nonzero"></path>
            <path d="M30.0368936,15.2060087 C31.9963129,16.6641812 33.8645964,18.8058721 33.7734607,19.9906373 C33.7278928,20.6741556 31.3127945,23.1348217 28.6698569,24.0917475 C29.3078073,26.5068457 29.3533752,29.3776228 28.5787211,30.2434127 C28.1686101,30.6990916 25.0699935,31.0180669 22.4726237,30.152277 C22.6548953,29.5143265 22.746031,28.876376 22.746031,28.1928576 C22.8371668,25.0031053 26.8015733,22.9069823 26.8015733,17.3021317 C26.8015733,12.0162564 21.7891053,8.18855352 17.6424273,8.18855352 C13.4957492,8.18855352 8.48328118,12.0162564 8.48328118,17.3021317 C8.48328118,22.9069823 12.4476877,25.0031053 12.5388235,28.1928576 C12.5388235,28.9219439 12.6755271,29.6510302 12.9033666,30.3801164 C10.8528115,31.2914742 8.3921454,31.7471531 7.52635547,31.1547706 C6.97954078,30.7902274 6.11375085,27.3726356 6.66056554,24.5018585 C4.382171,23.863908 1.92150489,22.4968713 1.55696176,21.357674 C1.37469019,20.7197235 2.78729481,17.5299712 5.02012147,15.6616876 C3.65308474,13.6111325 2.60502325,10.922627 3.06070216,9.87456548 C3.33410951,9.23661501 6.3871582,7.7784425 9.25793533,7.7784425 C9.44020689,5.31777639 10.3515647,2.58370293 11.3540583,2.03688824 C11.9464409,1.71791301 15.227329,2.62927083 17.3690199,4.58869014 C19.0550319,2.81154239 21.4245622,1.30780199 22.5181916,1.58120933 C23.1561421,1.71791301 25.1155614,4.63425803 25.5712403,7.55060305 C27.9407706,7.32276359 30.720412,7.7784425 31.4039303,8.68980032 C31.8140413,9.14547923 31.4950661,12.6542068 30.0368936,15.2060087" id="Fill-4" fill="#E75300"></path>
            <path d="M25.5256724,7.45946726 C25.707944,8.41639297 25.6168082,9.41888657 25.3434008,10.3758123 C24.7965861,12.0618242 22.9283026,13.7478362 21.2878585,14.8870335 C21.8346732,12.8820463 20.6043402,10.6036517 22.1080806,8.73536821 C22.7004632,8.00628196 24.021932,7.59617094 25.5256724,7.45946726 M22.1536485,18.031218 C23.7940925,16.8920207 24.2953393,14.2946509 26.6193018,13.8845399 C27.4850917,13.7478362 28.7609926,14.2946509 29.9457578,15.2060087 C29.4900789,16.0717987 28.8065605,16.8008849 28.0319064,17.3476996 C26.5737339,18.2134895 24.0674999,18.3046253 22.1536485,18.031218 M18.6904888,12.9731821 C17.8702667,11.0593306 15.5007364,10.1024049 15.5007364,7.68730672 C15.5007364,6.82151679 16.2753905,5.59118374 17.323452,4.49755435 C18.0981062,5.13550483 18.6449209,5.95572686 19.009464,6.86708468 C19.6018466,8.50752876 19.2373034,11.0593306 18.6904888,12.9731821 M15.5007364,13.2921573 C13.7235886,12.4263674 11.3084904,13.2465894 9.80475002,11.3783059 C9.25793533,10.6947875 9.12123165,9.23661501 9.21236744,7.73287461 C10.1692931,7.68730672 11.1262189,7.96071406 11.9464409,8.41639297 C13.4046134,9.23661501 14.7260822,11.4694417 15.5007364,13.2921573 M13.2679097,15.6616876 C11.3540583,16.1629344 9.98702158,18.441329 7.70862704,18.031218 C6.84283711,17.8945143 5.84034351,16.8920207 5.02012147,15.5705519 C5.74920773,14.9326014 6.61499765,14.4769225 7.52635547,14.2946509 C9.16679955,13.9756757 11.5363299,14.7503298 13.2679097,15.6616876 M12.9945024,18.9425758 C11.8553051,20.6285877 12.2198482,23.2259575 10.1692931,24.4562906 C9.44020689,24.9119695 8.02760227,24.8208337 6.56942976,24.4107227 C6.70613343,23.453797 7.11624445,22.4968713 7.70862704,21.7222171 C8.80225642,20.4007483 11.1262189,19.4438226 12.9945024,18.9425758 M20.8321796,21.0842667 C22.7915989,21.3121061 24.7965861,19.6260941 26.8471412,20.8564272 C27.5762275,21.3121061 28.214178,22.6335749 28.5787211,24.0917475 C27.7129312,24.4562906 26.7560054,24.5474264 25.7990797,24.4107227 C24.1130678,24.1373153 22.1536485,22.5424392 20.8321796,21.0842667" id="Fill-6" fill="#AD441D"></path>
            <path d="M14.1792675,31.6560174 C13.7691565,31.5193137 13.4501813,31.2914742 13.2223418,30.9269311 C12.7666629,30.1067091 12.5388235,29.1497834 12.5388235,28.1928576 C12.4476877,25.0031053 8.48328118,22.9069823 8.48328118,17.3021317 C8.48328118,12.0162564 13.4957492,8.18855352 17.6424273,8.18855352 C21.7891053,8.18855352 26.8015733,12.0162564 26.8015733,17.3021317 C26.8015733,22.9069823 22.8371668,25.0031053 22.746031,28.1928576 C22.7915989,29.1953512 22.5181916,30.152277 22.0169448,31.0180669 C21.7891053,31.3370421 21.515698,31.5648816 21.1511549,31.7015852 L21.0600191,31.7015852 L14.1792675,31.6560174 Z" id="Fill-8" fill="#FFD26C"></path>
            <path d="M19.419575,18.6691684 C19.5562787,18.4868969 20.5587723,18.7147363 21.4701301,18.441329 C21.7435374,18.3501932 21.9713769,18.2134895 22.1992164,18.0767859 C20.7410438,17.8945143 19.6474145,17.5299712 19.6018466,17.2109959 C19.6018466,16.9831565 20.5132044,16.5274776 21.0144512,15.6161197 C21.1511549,15.3427124 21.2422906,15.1148729 21.3334264,14.8414656 C20.1030934,15.6616876 19.0550319,16.1173665 18.8271924,15.8895271 C18.599353,15.6616876 19.1005998,14.7503298 18.9638961,13.7478362 C18.9183282,13.4744289 18.8271924,13.2010215 18.7360566,12.9731821 C18.3259456,14.3857867 17.7791309,15.4794161 17.4601557,15.4794161 C17.2323162,15.4794161 16.9589089,14.4313546 16.2298226,13.7478362 C16.0019832,13.5655647 15.7741437,13.428861 15.5463043,13.2921573 C16.1386869,14.659194 16.3665263,15.8439592 16.093119,16.0717987 C15.9108474,16.2085023 15.0450575,15.6161197 14.0881318,15.5705519 C13.8147244,15.5705519 13.5413171,15.6161197 13.2679097,15.6616876 C14.5438107,16.345206 15.4551685,17.0287244 15.4096006,17.4388354 C15.3640327,17.6666748 14.3159712,17.7578106 13.586885,18.3957611 C13.3590455,18.5780327 13.1767739,18.7603042 13.0400703,18.9881437 C14.4526749,18.6691684 15.5918722,18.5780327 15.7741437,18.8970079 C15.8652795,19.1248473 15.1361933,19.8539336 14.9539217,20.8564272 C14.9083538,21.1298345 14.9083538,21.4032419 14.9083538,21.6766492 C15.7741437,20.4918841 16.6399337,19.671662 16.913341,19.7627978 C17.1867484,19.8539336 17.0500447,20.9019951 17.5057236,21.8133529 C17.6424273,22.0411924 17.8246988,22.3145997 18.0069704,22.4968713 C17.9158346,21.0386988 18.0981062,19.8083657 18.3715135,19.7172299 C18.6449209,19.6260941 19.1917356,20.4918841 20.1030934,20.8564272 C20.3309328,20.947563 20.6043402,21.0386988 20.8777475,21.0386988 C19.8752539,19.9906373 19.2373034,18.9425758 19.419575,18.6691684" id="Fill-10" fill="#FFFFFF"></path>
            <path d="M20.8321796,21.0842667 C22.6093274,21.2665382 24.432043,19.9450694 26.2547586,20.5830199 C25.8446476,21.8133529 25.252265,22.9525502 24.5231788,24.0006117 C23.1561421,23.2715254 21.925809,22.2690318 20.8321796,21.0842667 M12.9945024,18.9881437 C11.9464409,20.4463162 12.1742803,22.7702786 10.7161078,24.0917475 C9.98702158,23.043686 9.44020689,21.8589208 8.98452798,20.6741556 C10.2604289,19.8995015 11.5818978,19.3071189 12.9945024,18.9881437 M13.2679097,15.7072555 C11.5818978,16.1629344 10.3515647,17.9400822 8.52884907,18.1223537 C8.52884907,17.8945143 8.48328118,17.6211069 8.48328118,17.3932675 C8.48328118,16.345206 8.71112064,15.2971445 9.07566376,14.3402188 C10.5794042,14.5224904 11.9920088,14.9781693 13.2679097,15.7072555 M15.5007364,13.2921573 C13.9514281,12.5175032 11.900873,13.0643178 10.3971326,11.9706885 C11.1717867,10.9681949 12.1287125,10.1479728 13.2223418,9.51002236 C14.1792675,10.6492196 14.9539217,11.9251206 15.5007364,13.2921573 M18.6904888,13.01875 C17.9614025,11.332738 16.0475511,10.4213802 15.5918722,8.55309665 C16.2753905,8.37082508 16.9589089,8.2796893 17.6424273,8.2796893 C18.189242,8.2796893 18.7816245,8.32525719 19.3284392,8.46196087 C19.3740071,9.96570127 19.1461677,11.5150096 18.6904888,13.01875 M22.1536485,18.031218 C23.6573889,16.9831565 24.2042036,14.7047619 26.0724871,14.0212436 C26.528166,15.0693051 26.7560054,16.1629344 26.7560054,17.3021317 L26.7560054,17.8489464 C25.252265,18.2134895 23.7029568,18.2590574 22.1536485,18.031218 M24.6143146,11.742849 C23.7029568,12.9731821 22.5637595,14.0668115 21.2878585,14.8870335 C21.7891053,13.1098857 20.8777475,11.1048985 21.6979696,9.37331868 C22.8371668,9.96570127 23.8396604,10.7403554 24.6143146,11.742849 M14.8627859,21.6766492 C14.9994896,23.7272043 16.913341,25.4587842 16.1386869,27.7827466 C15.9108474,28.4206971 15.227329,29.0586476 14.3159712,29.6510302 C13.996996,29.8788696 13.6780207,30.0155733 13.3590455,30.152277 C13.2223418,30.1978448 13.0400703,30.2889806 12.9033666,30.3801164 C12.6755271,29.696598 12.5843914,28.9219439 12.5388235,28.1928576 L12.5388235,27.3270677 C12.5388235,27.1447961 12.5388235,26.9169567 12.5843914,26.7346851 C12.8122308,25.0942411 13.8147244,23.0892539 14.8627859,21.6766492 M21.5612659,29.7877338 C21.2878585,29.6510302 21.0600191,29.5143265 20.8321796,29.3776228 C20.4220686,29.1042155 20.0119576,28.7396723 19.6929824,28.3751292 C18.599353,27.0536604 18.0981062,24.5018585 17.9614025,22.4968713 C19.3284392,23.9550438 21.8802411,24.0006117 22.7004632,26.3245741 C22.746031,26.4157099 22.746031,26.4612778 22.746031,26.5524136 L22.8827347,27.0536604 C22.7915989,27.4182035 22.7004632,27.7827466 22.7004632,28.1928576 C22.6548953,28.876376 22.5637595,29.5143265 22.4270558,30.1978448 C22.1536485,30.0611412 21.8802411,29.9244375 21.5612659,29.7877338" id="Fill-12" fill="#FFC656"></path>
            <path d="M21.0144512,34.8457697 L21.0144512,35.3014486 C21.3789943,35.3470165 21.6068338,35.6204239 21.6068338,35.984967 C21.6524017,36.3039422 21.3789943,36.5773496 21.0600191,36.6229175 L21.0144512,36.6229175 L18.7816245,37.2153 C18.9183282,37.3520037 19.009464,37.5798432 19.009464,37.7621147 C19.009464,38.1266579 18.7816245,38.4000652 18.4170814,38.4456331 L16.7766373,38.4456331 C16.4120942,38.4000652 16.1386869,38.0355221 16.1842547,37.6254111 C16.2298226,37.4431395 16.3209584,37.2608679 16.50323,37.1697322 L14.1792675,36.6229175 C13.8147244,36.5317817 13.586885,36.1672386 13.6324529,35.8026954 C13.6780207,35.5292881 13.9058602,35.3470165 14.1792675,35.2558807 L19.6929824,35.2558807 L19.6929824,35.1191771 L14.1792675,34.8002018 C13.8147244,34.709066 13.586885,34.3445229 13.6324529,33.9799798 C13.6780207,33.7065724 13.9058602,33.5243009 14.1792675,33.4331651 L19.6474145,33.4331651 L19.6474145,33.2964614 L14.1792675,32.9774862 C13.8147244,32.8863504 13.586885,32.5218073 13.6324529,32.1572642 C13.6780207,31.8838568 13.9058602,31.7015852 14.1792675,31.6104495 L21.0144512,31.6104495 C21.3789943,31.7015852 21.6068338,32.0661284 21.5612659,32.4306715 C21.515698,32.7040788 21.2878585,32.8863504 21.0144512,32.9774862 L20.9688833,32.9774862 L20.9688833,33.4331651 L21.0144512,33.4331651 C21.3789943,33.478733 21.6068338,33.7521403 21.6068338,34.1166835 C21.6068338,34.5267945 21.3789943,34.8457697 21.0144512,34.8457697" id="Fill-14" fill="#00758D"></path>
        </g>
    </g>
</svg>