<?xml version="1.0" encoding="UTF-8"?>
<svg width="27px" height="24px" viewBox="0 0 27 24" version="1.1" xmlns="http://www.w3.org/2000/svg" xmlns:xlink="http://www.w3.org/1999/xlink">
    <title>CODAP Project ICON 27x24</title>
    <g id="CODAP-Project-ICON-27x24" stroke="none" fill="none" fill-rule="evenodd" stroke-width="1">
        <g id="Group" transform="translate(0.43, 0)">
            <path d="M6.32,0 C7.87715894,0 9.34377584,0.552721077 10.4920846,1.51731528 C11.5567514,1.17512803 12.6769146,1 13.82,1 C19.8951322,1 24.82,5.92486775 24.82,12 C24.82,12.8344254 24.7267035,13.6570965 24.5425253,14.4555984 C25.6507208,15.4708635 26.32,16.924039 26.32,18.5 C26.32,21.5375661 23.8575661,24 20.82,24 C19.388752,24 18.0548407,23.4478533 17.0573944,22.5112937 C16.0199762,22.8346002 14.9308685,23 13.82,23 C7.74486775,23 2.82,18.0751322 2.82,12 C2.82,11.9919873 2.82,11.9839756 2.82040504,11.976008 C0.991258023,10.8093512 -0.18,8.76719345 -0.18,6.5 C-0.18,2.91014913 2.73014913,0 6.32,0 Z" id="Path" fill="#080A0E" fill-rule="nonzero"></path>
            <circle id="PathCC05" fill="#7BD0E3" fill-rule="nonzero" cx="13.82" cy="12" r="9"></circle>
            <circle id="PathCC04" fill="#EC8B58" fill-rule="nonzero" cx="20.82" cy="18.5" r="3.5"></circle>
            <circle id="PathCC03" fill="#58B568" fill-rule="nonzero" cx="6.32" cy="6.5" r="4.5"></circle>
            <path d="M20.82,15 C21.3107728,15 21.7779532,15.101011 22.2018852,15.283377 C21.3697938,17.4059298 19.7560493,19.1344325 17.7151256,20.1157496 C17.4624222,19.6322428 17.32,19.0827536 17.32,18.5 C17.32,16.5670034 18.8870034,15 20.82,15 Z" id="PathCC02" fill="#D18051" fill-rule="nonzero"></path>
            <path d="M9.96758336,3.86407886 C10.5038685,4.60489751 10.82,5.51553052 10.82,6.5 C10.82,8.98528137 8.80528137,11 6.32,11 C5.82550587,11 5.34964071,10.9202399 4.9045677,10.772883 C5.31516573,7.75132575 7.22616104,5.2075433 9.86202795,3.91477036 L9.96758336,3.86407886 Z" id="PathCC01" fill="#3DA961" fill-rule="nonzero"></path>
        </g>
    </g>
</svg>