<?xml version="1.0" encoding="UTF-8"?>
<svg width="32px" height="32px" viewBox="0 0 32 32" version="1.1" xmlns="http://www.w3.org/2000/svg" xmlns:xlink="http://www.w3.org/1999/xlink">
    <title>datagoat-logo-favicon</title>
    <g id="datagoat-logo-favicon" stroke="none" fill="none" fill-rule="evenodd" stroke-width="1">
        <g id="Group" transform="translate(0, 2.62)">
            <path d="M15.9482823,18.1036778 C21.6148381,18.1036778 26.1160493,18.5986898 28.8932606,19.013484 C29.4156555,17.5607121 29.7005617,15.9946535 29.7005617,14.3619748 C29.7005617,6.77075341 23.5466374,0.616855786 15.9554432,0.616855786 C8.3642221,0.616855786 2.2103247,6.77075341 2.2103247,14.3619748 C2.2103247,16.0042282 2.49852966,17.5791104 3.02679815,19.03907 C5.82222,18.6180268 10.3771511,18.1036778 15.9482823,18.1036778" id="Black-Circle" fill="#000000"></path>
            <path d="M15.9482823,18.1036778 C21.0082292,18.1036778 25.1388183,18.4983571 27.9426079,18.878232 C28.4720565,17.4737088 28.7618706,15.9517151 28.7618706,14.3619748 C28.7618706,7.28917907 23.0282386,1.55554684 15.9554432,1.55554684 C8.88264773,1.55554684 3.14901572,7.28917907 3.14901572,14.3619748 C3.14901572,15.9607802 3.44204823,17.4911416 3.97723621,18.9023161 C6.80234752,18.5144758 10.9695188,18.1036778 15.9482823,18.1036778" id="White-Circle" fill="#FFFFFF"></path>
            <path d="M15.9482823,18.1036778 C20.4893476,18.1036778 24.2818471,18.4215722 27.0386217,18.7613516 C27.579415,17.4001422 27.8768191,15.9158035 27.8768191,14.3619748 C27.8768191,7.77796891 22.539422,2.4405984 15.9554432,2.4405984 C9.37143756,2.4405984 4.03406725,7.77796891 4.03406725,14.3619748 C4.03406725,15.9243054 4.33477021,17.4163414 4.88119566,18.7836388 C7.6592115,18.4350894 11.4763315,18.1036778 15.9482823,18.1036778" id="Red-Circle" fill="#D11E32"></path>
            <path d="M6.80224561,6.3713216 C7.71205176,7.85853006 9.33097193,9.05171367 11.1509061,8.7334974 C11.1509061,8.7334974 11.3567744,8.69922177 11.3567476,8.69922177 C11.5173442,8.63885053 11.5729952,8.66398063 11.5579493,8.84369973 C11.571976,8.95956103 11.6152631,9.22604201 11.6323473,9.33847038 C11.6825538,9.60285942 11.7983079,10.1374306 11.864499,10.3978235 C11.864499,10.3978235 11.3049587,12.45353 11.3049587,12.45353 C10.9994013,13.6439244 10.6227985,15.421698 10.4137922,16.6305175 C10.3812599,16.9403392 10.3608501,17.6500164 10.3533405,18.2758015 C12.0630187,18.1705609 13.9395962,18.1036724 15.9482877,18.1036724 C17.9975306,18.1036724 19.8942229,18.1684421 21.6122688,18.2707326 C21.6099891,17.6924989 21.580407,16.6584637 21.5452195,16.464986 C21.5069477,16.2543974 21.418228,16.0207438 21.3985423,15.9237904 C21.0684449,14.3714904 20.5352416,11.8612965 20.0835971,10.3393832 C20.2106958,9.84724093 20.3783461,9.18701928 20.3881621,8.68087707 C22.5815343,9.13147559 23.9858429,8.108651 25.1498734,6.37142888 C25.2287771,6.2536902 25.367462,6.02245036 25.386799,5.97130511 C25.4464998,5.87043605 25.7922867,5.36820952 25.6553451,5.27039791 C25.5184303,5.17261312 25.0978431,5.17749432 25.0978431,5.17749432 C25.0049127,5.20683512 24.7016887,5.18237551 24.5498353,5.18009583 C23.9263031,5.17065528 23.1862659,5.18532568 22.5746148,5.30537086 C21.7728923,5.39958862 20.9637138,5.5379785 20.2194391,5.85608749 C20.1686425,5.87730191 20.1009226,5.87255481 20.0550877,5.85860854 C20.3960471,5.33658904 20.9622655,4.02258248 21.2738841,3.49763963 C21.3608605,3.35112336 21.4605495,3.11411728 21.5140549,3.07300261 C21.5140549,3.07300261 21.6465444,2.87673572 21.8177617,2.66048812 C22.0127144,2.41422923 22.275387,2.54395633 22.5114007,2.54910573 C22.8737891,2.55699073 23.241756,2.97280405 23.5649607,3.22418551 C23.8384952,3.43694654 24.6658307,3.93525739 24.6658307,3.93525739 C24.6089728,3.88864468 24.5082647,2.83237587 24.2904616,2.36981573 C24.2904616,2.36981573 23.9737204,1.71989287 23.9737204,1.71991969 C23.1961892,0.425679284 21.5382731,-0.409380277 20.0746393,0.207071547 C19.669393,0.385288749 19.3118321,0.627926976 19.0362593,0.977093228 C19.004612,1.04001235 18.2226287,2.08327359 18.1644835,2.17942237 C17.8950792,2.60384482 17.5323958,3.16000586 17.2983131,3.60599139 C17.1609692,3.84951467 16.83873,4.3899057 16.6219728,4.3938482 C16.2637951,4.35442318 15.2798056,4.55334522 15.023972,4.24819017 C14.8591647,4.12994192 14.43493,3.28726555 14.3133025,3.11489505 C14.2047898,2.93447863 13.977117,2.57364579 13.8601829,2.39977339 C13.8601829,2.39977339 13.6270657,2.05283318 13.6270657,2.05283318 C13.6105716,2.03086781 13.2916044,1.54290938 13.0282613,1.1293221 C13.0281004,1.12934892 13.0279395,1.12937574 13.0277785,1.12940256 C11.0262747,-1.17250928 8.01380069,0.349108914 7.41904606,3.0054705 C7.4002186,3.10376486 7.29409288,3.80322379 7.28100484,3.90159862 L8.58854779,2.98189594 C9.21049764,2.4891636 9.6785558,2.32553634 10.0057567,2.65941533 C10.3329575,2.99329433 10.6119902,3.38671316 10.6349479,3.51220275 C10.6654419,3.47621065 11.0316655,4.19508708 11.0482401,4.20852377 C11.362487,4.7577385 11.5170492,5.35895671 11.8727326,5.88920987 C11.3899236,5.8169843 10.9446354,5.55857606 10.4461369,5.49300179 C9.9314928,5.38304084 9.3653012,5.29772723 8.8444886,5.22917596 C8.45983984,5.17175489 7.95525319,5.19090419 7.56558914,5.1752951 L7.07666522,5.17387365 C6.98606813,5.17360545 6.82598108,5.19924513 6.53568418,5.10500055 C6.25753662,5.01469847 6.06781375,5.22440205 6.39050891,5.70058661 C6.71320406,6.17677117 6.72441471,6.24620749 6.80224561,6.3713216" id="Goat-back" fill="#000000"></path>
            <path d="M12.9330512,8.60684652 C12.9119977,8.72855452 13.0082001,8.81692558 13.0657821,8.90382155 C13.1727392,9.06519596 13.2949032,9.23158565 13.5028635,9.2433327 L13.1163641,8.88488681 C13.0552956,8.82824351 13.0506826,8.72758901 13.0573607,8.64943628 C13.0614641,8.60108028 12.9445837,8.57055941 12.9330512,8.60684652 M19.0242709,8.61668937 C18.8439349,8.52105016 18.878291,8.82556154 18.7913146,8.89413963 L18.4880369,9.21238271 C18.6132851,9.19840963 18.7130546,9.11913046 18.7752495,9.02770195 C18.8448736,8.93286734 18.9793746,8.72439746 19.0242709,8.61668937 M12.1589261,4.74319415 C12.2657492,4.96343789 12.362193,5.31756579 12.5628315,5.47497087 L12.7205316,5.32325158 C12.9291087,5.15434083 13.145249,5.01136477 13.3783126,4.87423542 C13.6362649,4.6871677 14.0036954,4.70505647 14.2347474,4.48540277 C14.1312769,4.21200229 13.9132055,3.9239046 13.7508656,3.68392152 C13.2007927,3.75378696 12.2776571,4.17123628 12.1589261,4.74319415 M12.5576016,6.76274772 L12.3300361,7.49581179 C13.0510313,8.28254218 14.3098427,8.17279578 14.4314971,9.49141533 C14.5385883,9.97741592 14.5746877,10.4807957 14.5444887,10.9778192 C14.5414849,11.0834085 14.5528832,11.1713237 14.4885963,11.2677406 C14.3992061,11.1662011 14.457995,10.9882521 14.4090758,10.7103727 C14.3437965,10.3334212 14.2958965,9.8980563 14.0036417,9.61787043 C13.8394512,9.4551014 13.3426423,9.48406672 13.1038661,9.25078859 C12.914036,9.06533005 12.6793096,8.62127555 12.8440633,8.39851075 L13.3765425,8.49640282 C13.3463971,8.45134565 13.3065429,8.41857192 13.2675739,8.40486703 C13.1609922,8.37169101 12.8917756,8.25993313 12.7825924,8.2524236 L12.4913032,8.2396574 L12.3089021,8.12350109 C12.3485149,8.92635014 12.4549625,9.75156685 12.8257722,10.4749222 C13.1749116,11.1875228 13.6200389,12.0020652 13.8330681,12.7667498 C13.8554895,12.8443125 13.8391026,12.9245304 13.9325694,12.9866449 L13.935305,12.0384596 C14.2797778,12.2505234 14.1126103,13.1528737 14.1524108,13.489381 C14.0890894,13.6240697 14.1132272,13.759134 14.1461618,13.8988917 C14.2699618,14.3123448 14.3426165,14.5973851 14.7444567,14.7719012 C14.9487158,14.8214104 15.5000225,15.2172967 15.7006342,15.0275202 C15.8793609,14.7212387 15.8764108,14.123507 15.6243588,13.8494897 C15.437157,13.7644175 15.1392701,13.7123872 15.0134051,13.5372006 C14.8734328,13.4040674 14.66912,12.5524332 14.9790758,12.5584677 C15.0458033,12.571368 15.1481743,12.6828576 15.16786,12.7528304 C15.2208021,13.4377262 16.2061059,13.4332473 16.6395666,13.1008702 C16.7755427,12.9869935 16.68398,12.6702792 16.970254,12.5475788 C17.1796089,12.5983218 17.0807245,13.0970618 17.0514105,13.2664016 C16.8426188,13.9866995 16.2825153,13.5029786 16.1099303,14.2142114 C16.0716048,14.4038806 16.054762,14.9664784 16.2232973,15.0703781 C16.2703928,15.0728187 16.3881583,15.0914048 16.4352269,15.0714241 C16.4352269,15.0714241 17.1254598,14.778472 17.1254598,14.778472 C17.4842007,14.6454729 17.7511376,14.2857397 17.7679804,13.890068 C17.7679804,13.890068 17.7714134,12.6906085 17.7714134,12.6905817 C17.7580035,12.4515373 17.7397929,12.1189189 18.0134884,12.0208927 C18.0134884,12.0208927 17.9959214,12.1270721 17.9959214,12.1270989 C18.0100823,12.2357189 17.9513738,12.896316 18.0445456,12.9739591 C18.2603641,12.2671784 18.5538794,11.5816389 18.8858273,10.9221682 C19.2901886,10.2356901 19.5423747,9.46454195 19.5700526,8.66587678 C19.5611753,8.60923348 19.6390062,8.20302163 19.5609876,8.17582641 C19.544708,8.16882646 19.5076431,8.17614825 19.4913367,8.18612519 C19.3821267,8.2528259 19.2815795,8.22654255 19.1585305,8.25169947 C18.9304822,8.28356133 18.7242384,8.36769486 18.5252895,8.48615767 C18.7344031,8.49519593 18.9374285,8.37380977 19.129887,8.44024227 C19.2189554,8.47100452 19.1134197,8.94061824 18.8725784,9.19795369 C18.5631322,9.5285875 18.1368324,9.43530843 17.9547531,9.59013881 C17.4689939,10.0132739 17.642169,10.720296 17.44086,11.2684916 C17.3710482,11.1680785 17.4031783,10.3536969 17.4009791,10.2353682 C17.4370248,9.89119044 17.4920053,9.46451513 17.592177,9.13152118 C17.8469109,8.22048129 18.9452867,8.18781484 19.5147235,7.57372315 C19.6548567,7.42642912 19.4004446,6.96405672 19.37628,6.79788159 C19.2892499,6.51986812 19.4166437,6.39531722 19.3981113,6.31928325 C19.2432541,5.77242866 18.6666832,5.52370235 18.2189276,5.24257779 C18.0073466,5.11317252 17.7532832,5.05175531 17.5084458,5.016836 L17.0475753,5.00857552 C16.9694762,5.00715407 16.898243,5.09281634 16.8420288,5.13835626 C16.7044703,5.24984594 16.506487,5.25510261 16.3558673,5.17689623 C16.2626151,5.1284866 16.1940906,5.15509178 16.0961181,5.17638666 C15.87861,5.22366987 15.6837109,5.12601918 15.5208078,5.18856282 C15.361579,5.24968502 15.1932851,5.23710656 15.0625925,5.12164756 C14.9259995,5.00098553 14.7721078,4.98226535 14.5939174,4.99905451 C13.9067956,5.00608128 13.3403626,5.3929561 12.8279983,5.81273873 C12.4218401,6.19352547 12.6410378,6.32773147 12.5576016,6.76274772 M11.632535,3.58342794 C11.5868342,3.65782591 11.7467335,3.85715025 11.7699326,3.92564788 L11.9775174,4.35288641 L12.3363387,4.00401517 C12.5452645,3.80090925 13.2599839,3.44460894 13.5953648,3.39716482 C13.5006374,3.17021614 13.2686466,2.84607271 13.1078891,2.66101647 C12.3673692,2.80970514 12.1303631,3.069508 11.632535,3.58342794 M8.45297399,2.40142817 C8.85363414,1.8251255 9.7055901,1.28768464 10.3088198,1.88868829 C10.3088198,1.88868829 10.6803805,2.2615632 10.6803805,2.2615632 C10.7474299,2.34462395 10.8578467,2.49138159 10.9346048,2.55454209 C11.0770981,2.72613481 11.3567476,3.22146867 11.4775437,3.41703825 C11.897675,3.04853496 12.3966027,2.46922848 12.9970699,2.44401792 C12.95094,2.24858244 12.596383,1.88871511 12.479878,1.72621428 C12.0206167,1.80809496 11.5232178,2.29921812 11.130684,2.56476041 C11.0662898,2.61078309 10.9692828,2.59664909 10.9564898,2.53040432 C10.8563985,2.19081271 11.9391652,1.646506 12.2172323,1.42229294 C12.0343484,1.25472318 11.8115836,0.951525966 11.5338652,0.941039446 C11.1623313,1.14229481 10.7911729,1.3953391 10.4630869,1.67729507 C10.2655327,1.73621805 10.3031072,1.52120416 10.4538073,1.38852688 C10.6049902,1.22999537 11.0493665,0.943265485 11.238848,0.826519137 C10.5681935,0.548291109 9.80141705,0.790741598 9.26660454,1.24463895 C8.93090182,1.48202051 8.42400867,2.01364148 8.32193272,2.43098353 C8.34666053,2.46743156 8.42175581,2.44058499 8.45297399,2.40142817 M7.99754793,6.81520714 C8.71288412,7.61341637 9.80275803,8.27975292 10.907946,8.053287 C10.8206209,7.95681638 10.7168822,7.97596568 10.6115879,7.95810373 C9.54459118,7.77521989 8.68281919,7.04765387 7.95002334,6.2950382 C7.98008827,6.18960978 8.0818692,6.18496997 8.17474597,6.20551389 C9.00460247,6.42090326 10.0300017,6.52651941 10.7205028,7.07063839 L11.2231316,7.47390006 C11.2905028,7.52794185 11.408027,7.52480394 11.4957007,7.54188811 C11.5505739,7.55256237 11.652623,7.58989546 11.6939522,7.56280752 C11.6939522,7.56280752 11.833254,7.39172437 11.833254,7.39172437 C12.0286358,7.19792489 12.1853704,6.76907718 11.8383497,6.65656835 L11.3452688,6.50554637 C10.730453,6.28479306 10.1290202,6.05382142 9.4882429,5.93246207 C9.08583947,5.85063503 8.56556327,5.76470457 8.15932462,5.722088 L7.25930767,5.71669723 C7.22851861,5.72924887 7.18405147,5.76019886 7.17839251,5.78554351 C7.15591756,5.86020968 7.50197271,6.23573974 7.53233266,6.29570869 C7.62534353,6.42224425 7.88922298,6.69803168 7.99754793,6.81520714 M16.5046096,15.3281427 C16.5046096,15.3281427 15.3635904,15.3229665 15.3635904,15.3229665 C15.2112811,15.2645531 14.9766888,15.1227034 14.8060348,15.1353355 C15.0376233,15.6692362 15.4770111,16.4924682 15.7722697,16.9942388 C15.8634568,16.9602314 15.7955492,16.692168 16.0283178,16.7344091 C16.1348994,16.7688725 16.0804017,16.9258753 16.1755314,16.9655685 C16.3790664,16.6148467 16.9331891,15.5170609 17.1251648,15.138393 C16.8683658,15.0944622 16.7482402,15.3972571 16.5046096,15.3281427 M20.6168809,15.8118904 C20.5465863,15.3009474 20.2474925,14.0140825 20.1303975,13.4932162 C19.9854636,12.911335 19.7975377,11.8103309 19.5793591,11.2573078 C19.0103246,12.2868105 18.634124,13.712709 18.2444064,14.8099584 C17.8150223,15.5822329 17.2651639,16.6602794 16.8052857,17.4153356 C16.6532178,17.6319587 16.5097858,17.9143974 16.4480468,18.1050054 C17.9881437,18.112944 19.4388236,18.1570088 20.7883127,18.2253187 C20.793167,17.4881781 20.7728108,16.5675635 20.6168809,15.8118904 M12.9540242,12.6022643 C12.8061402,12.2587838 12.5064832,11.6005737 12.394323,11.2485377 C11.9986245,12.3300975 11.7769325,13.8463786 11.4800648,14.9614631 C11.4301264,15.2311893 11.3795176,15.5545013 11.3325562,15.8246298 C11.2763152,16.1279074 11.2463039,16.46884 11.2036873,16.7748533 L11.1525689,18.2301731 C12.5101575,18.158618 13.9638144,18.1124612 15.4976623,18.1048444 C15.3505024,17.8419037 15.2091355,17.5516872 15.1357031,17.4578449 C14.753039,16.8523087 14.3677197,16.069655 13.9866648,15.4538736 C13.4619634,14.5575578 13.3256654,13.5568595 12.9540242,12.6022643 M20.9937787,2.52619362 C21.0643683,2.4271483 21.385347,2.10024244 21.4728061,2.0055151 C21.7731336,1.65908446 22.2446784,1.52603171 22.6604917,1.72943265 C22.9684091,1.88292205 23.2215607,2.1106485 23.4381838,2.37613715 C23.4758119,2.42224029 23.5302559,2.45686458 23.5889375,2.4756384 C23.493352,2.02753411 23.1350938,1.69995775 22.8187013,1.38530851 C22.2603143,0.870262141 21.3850251,0.499666913 20.6485013,0.825124511 C20.9644379,1.02275921 21.3245198,1.22806435 21.5381927,1.54630744 C21.5800315,1.646506 21.4883884,1.73179279 21.3917569,1.66839091 C21.0706977,1.39582185 20.728156,1.11869343 20.3508558,0.940932167 C20.1631981,0.94897809 20.0418387,1.07891975 19.9081691,1.1873788 C19.8414148,1.25689558 19.5591102,1.39635825 19.7622161,1.48759902 C19.9973716,1.64200029 20.4628282,1.96515139 20.688275,2.13239931 C20.8028758,2.21481639 20.9364113,2.30289243 20.9776332,2.4506424 C20.9661544,2.52611316 20.8278181,2.61198998 20.7624584,2.58216642 C20.4547823,2.33783855 19.9501957,1.95809779 19.6080294,1.75767384 C19.5507961,1.72425644 19.4296513,1.6993409 19.3800616,1.76166998 C19.2735336,1.91389885 18.9673862,2.22945997 18.9159996,2.40722123 C19.4988462,2.56089837 19.9466286,3.07170722 20.4039857,3.41695779 C20.5690076,3.15197871 20.8101439,2.77907699 20.9937787,2.52619362 M19.9090005,4.34068342 L20.2868639,3.6466689 C19.9673871,3.33126871 19.5730833,2.92044386 19.1619366,2.72919226 C19.0316731,2.74450634 18.9226508,2.7314183 18.7966785,2.68434965 C18.6615606,2.75697752 18.4027233,3.26014274 18.299065,3.38214576 C18.8631647,3.58828232 19.5127925,3.86433794 19.9090005,4.34068342 M19.3171425,5.48341909 C19.4663675,5.37522824 19.6103627,4.98365998 19.6942012,4.82893687 C19.7206455,4.77398321 19.7841546,4.64460477 19.7333044,4.59370089 C19.3413339,4.13044345 18.7746059,3.82601253 18.1802267,3.67391776 C17.9759139,3.81187852 17.8403401,4.18437795 17.7154674,4.38740342 C17.6969349,4.42170587 17.7114444,4.50766315 17.7131341,4.56615702 C18.3156932,4.73050841 18.8643447,5.05835296 19.3171425,5.48341909 M23.3492495,5.76274673 C23.5346544,5.70229503 24.4780388,5.72104203 24.6859723,5.71688497 C24.7391827,5.74461658 24.7780981,5.75260887 24.7311636,5.82757005 C23.8603533,7.02601033 22.6314995,8.29391375 21.0025756,8.06760874 C21.0375485,8.03097297 21.0954524,7.98932191 21.1290307,7.984548 C21.5035684,7.93123034 22.0411701,7.75985218 22.3495436,7.57251626 C22.5831703,7.4383639 23.0803547,7.12808628 23.2790354,6.95150508 C23.503758,6.72337634 23.809369,6.49387978 24.0078887,6.24139871 C24.024222,6.21752914 23.9762683,6.14098559 23.9517014,6.14664455 L23.8327826,6.17410797 L23.5606427,6.2427397 C23.4200536,6.25977023 22.7007213,6.44163492 22.5476342,6.47835115 C22.1301581,6.58040028 21.7277814,6.71122699 21.3718835,6.95198784 C21.1518543,7.1008106 20.9574916,7.25574826 20.7725695,7.44045584 C20.6346892,7.56449716 20.4148745,7.53327898 20.245937,7.5707998 C20.0833825,7.34084731 19.7435496,7.02131688 19.9780882,6.72356407 C20.0497237,6.64267572 20.6473749,6.48339326 20.7541175,6.4358955 C21.5802729,6.11674054 22.4689182,5.87541648 23.3492495,5.76274673" id="Goat" fill="#FFFFFF"></path>
            <path d="M31.7500674,26.5116221 C31.7458299,26.6285025 31.6370759,26.7131456 31.5227969,26.6883105 C30.3056365,26.4236265 24.1341722,25.1759451 15.9591121,25.1759451 C7.79418991,25.1759451 1.68800483,26.4728943 0.472936362,26.7509078 C0.358040581,26.7771912 0.247838255,26.692253 0.243681195,26.5744339 L0,19.6447483 C-0.00131716043,19.6058061 0.0251539263,19.5715573 0.0632379619,19.5633236 C0.766451633,19.4111215 7.06603387,18.1036858 15.9482769,18.1036858 C25.126154,18.1036858 31.2470631,19.4022174 31.9371888,19.555385 C31.9750851,19.5638064 32.0013416,19.5980283 32,19.6368097 L31.7500674,26.5116221 Z" id="Banner" fill="#000000"></path>
            <path d="M10.3479605,23.757363 C10.5072698,23.7708802 11.1973418,23.7315893 11.1973418,23.7315893 L11.1849779,20.5049863 L12.2228751,20.4563353 L12.224377,19.7543016 L9.22831668,19.9175266 L9.24462308,20.6015105 L10.3089378,20.5612809 L10.3479605,23.757363 Z M28.8379207,21.2396864 L29.9097181,21.3955359 L29.9039787,20.6859927 L26.9628183,20.2355551 L26.9604582,20.9503818 L27.9899609,21.1043003 L27.8829233,24.4566074 L28.734316,24.6093995 L28.8379207,21.2396864 Z M14.3295391,22.0646885 L13.8806839,20.7345901 L13.4220663,22.0845888 L14.3295391,22.0646885 Z M13.2112095,22.8132812 L12.9398473,23.6563867 L12.0435583,23.6833674 L13.3210363,19.6869304 L14.4118221,19.6593597 L15.7872458,23.5929848 L14.8657999,23.5933335 L14.5694418,22.7707183 L13.2112095,22.8132812 Z M18.2369612,22.0913742 C18.2369612,22.0913742 18.2716391,22.6832591 18.2762789,22.8735988 C17.9971122,22.9882801 17.3566031,23.1217083 17.0490611,22.6940943 C16.7226112,22.2401701 16.7617949,21.1984376 16.9295792,20.8188577 C17.2345733,20.1287589 18.1000732,20.2621871 18.7226131,20.6077327 C18.7825284,20.4795075 18.9388607,20.1020733 18.9828183,19.9842809 C18.6033457,19.7131601 17.938377,19.5611995 17.3273964,19.6536203 C16.3538397,19.8008607 16.002072,20.5095188 15.9382678,21.165798 C15.8048128,22.5383788 16.1118988,23.3757985 17.1214744,23.6123755 C18.0749699,23.8358108 18.9246462,23.4993035 19.1668285,23.2740176 C19.1762154,22.9047365 19.1260357,21.4004171 19.1260357,21.4004171 L17.5595213,21.3882677 L17.698823,22.1075465 L18.2369612,22.0913742 Z M8.06892599,22.3841653 L7.58716294,21.0416225 L7.16837265,22.4284715 L8.06892599,22.3841653 Z M6.96765369,23.1948725 L6.68803105,24.0572614 L5.78120188,24.1626898 L7.06093276,20.0411924 L8.11988351,19.9672504 L9.53580504,23.8348989 L8.62827856,23.8864733 L8.33942992,23.0937621 L6.96765369,23.1948725 Z M25.678099,22.5337658 L25.2617761,21.0551129 L24.7446378,22.4208011 L25.678099,22.5337658 Z M25.8813926,23.2791134 L24.5065321,23.1337772 L24.2108713,23.9938595 L23.2939579,23.8837645 L24.7596837,19.9630397 L25.8634502,20.0849891 L27.0706337,24.2942139 L26.162249,24.1829119 L25.8813926,23.2791134 Z M4.01201069,23.7126009 C4.86520037,23.4575719 4.7279101,22.6004129 4.67974184,22.0166812 C4.63157358,21.4329494 4.27377139,21.0751472 3.82400429,21.141097 C3.46424425,21.1938514 3.19143382,21.2571192 3.19143382,21.2571192 L3.29541397,23.8395924 C3.29541397,23.8395924 3.64286375,23.8229373 4.01201069,23.7126009 L4.01201069,23.7126009 Z M2.51691728,24.6632535 L2.30863515,20.7660229 C2.30863515,20.7660229 3.54057324,20.4262167 4.38904265,20.4891358 C5.31416287,20.5577139 5.48951035,21.2622954 5.56087769,21.9982024 C5.72721374,23.7130836 5.03891185,24.1026941 4.48918757,24.2800799 C3.68043821,24.541036 2.51691728,24.6632535 2.51691728,24.6632535 L2.51691728,24.6632535 Z M22.1058701,22.8288099 C22.3119798,22.5008848 22.5251163,20.7343487 21.7298573,20.523036 C20.4319158,20.1781072 20.5691256,21.8788545 20.5919492,22.2205112 C20.6670445,23.3453849 21.7964507,23.3210863 22.1058701,22.8288099 L22.1058701,22.8288099 Z M21.8313432,23.8255657 C20.5847079,23.9433848 19.7024188,23.3079446 19.6643348,21.9749765 C19.6294423,20.7541953 20.1400097,19.5904062 21.5415559,19.7418036 C23.4749644,19.950649 23.1981578,21.7080396 23.1445719,22.4184141 C23.1013117,22.9922226 22.9258837,23.7221487 21.8313432,23.8255657 L21.8313432,23.8255657 Z" id="Text" fill="#FFFFFF"></path>
        </g>
    </g>
</svg>