<?xml version="1.0" encoding="UTF-8"?>
<svg width="64px" height="64px" viewBox="0 0 64 64" version="1.1" xmlns="http://www.w3.org/2000/svg" xmlns:xlink="http://www.w3.org/1999/xlink">
    <title>DataGOAT Logo Favicon Mike3</title>
    <defs>
        <path d="M0,0 C0,9.5512601 0,20.2179268 0,32 C0,49.6731099 14.3268901,64 32,64 C49.6731099,64 64,49.6731099 64,32 C64,20.2179268 64,9.5512601 64,0 L0,0 Z" id="path-1"></path>
    </defs>
    <g id="DataGOAT-Logo-Favicon-Mike3" stroke="none" fill="none" fill-rule="evenodd" stroke-width="1">
        <g id="Group">
            <path d="M32,0 C14.3268901,0 0,14.3268901 0,32 C0,49.6731099 14.3268901,64 32,64 C49.6731099,64 64,49.6731099 64,32 C64,14.3268901 49.6731099,0 32,0 L32,0 Z" id="Red-Cirlce" fill="#D01D32"></path>
            <g id="GOAT">
                <mask id="mask-2" fill="white">
                    <use xlink:href="#path-1"></use>
                </mask>
                <g id="Red-Cirlce"></g>
                <path d="M44.7680136,2.56714151 C49.4645709,0.589109496 54.7844247,3.26858124 57.279399,7.42157652 L58.2957602,9.50694039 C58.9902309,10.9319138 59.1162989,14.9594218 59.2987542,15.108938 C58.0227894,13.513982 56.9063202,12.3018155 55.9493467,11.4724384 C54.5138863,10.2283728 53.9112457,9.46075772 52.7483631,9.4354779 C51.9910995,9.41901569 50.9869027,9.64948755 50.3613368,10.4396756 L50.0168265,10.8865526 C49.644067,11.3823447 49.3868863,11.7633145 49.3868863,11.7633145 C49.2366235,11.8787714 48.9729133,12.4754576 48.7223841,12.937762 L48.6161907,13.1258702 C47.6162804,14.8103173 45.799399,19.0267432 44.7053308,20.7017462 C44.8524357,20.7464719 45.069663,20.7617517 45.2327043,20.693636 C47.6209552,19.6728841 50.2173577,19.2288802 52.7899649,18.9265181 C54.7526173,18.5413588 57.1272011,18.4942484 59.128019,18.5245084 L60.2226123,18.5613113 C60.5069317,18.565186 60.7586561,18.5565398 60.8864389,18.5161882 L61.030309,18.5170668 C61.3898586,18.5230924 62.3238841,18.5632645 62.6753977,18.814348 C63.1147974,19.1282067 62.0052017,20.7396948 61.8136285,21.0633349 C61.7604477,21.2040391 61.4259025,21.7692561 61.1719756,22.1658066 L61.0534062,22.3472801 C57.3182881,27.9216342 52.8121276,31.2037397 45.7740994,29.7578609 C45.7425415,31.3819084 45.2046525,33.5004798 44.7967968,35.0796485 C46.2460165,39.9631146 47.9569947,48.0178036 49.0162064,52.9988588 L49.1459561,53.4996188 C49.1903197,53.6721635 49.2252392,53.8445678 49.2190413,53.9995358 C49.3380134,54.0678305 49.2696138,54.3791324 49.3642451,54.376159 C49.5049469,55.6323441 50.074608,57.8458118 50.1040486,59.3857773 L50.5566713,60.7436452 L51.1644788,64.3930769 C50.2075053,65.8285373 49.2204174,66.7874117 49.2505317,66.7855108 C49.4330606,66.7739831 37.9644922,71.0918919 31.5465206,71.0918919 C27.0823934,71.0918919 21.0215608,69.4969359 13.3640228,66.307024 C12.885536,64.8715637 13.3640228,64.8715637 13.3229567,62.0222858 C13.2720331,60.3774593 13.5959202,56.9095406 13.7684159,55.2665627 C14.3781309,51.7402969 15.432243,46.7053176 16.3555143,42.9491844 L16.6663662,41.7225381 C16.926685,40.7661837 18.4234463,35.2671459 18.4234463,35.2671459 L18.2110429,34.3762657 C18.0159455,33.5222149 17.7935598,32.4739144 17.6784934,31.8679383 L17.4766247,30.5535374 C17.461533,30.4483346 17.448771,30.3546421 17.4397616,30.2802808 C17.4826649,29.7676954 17.3463371,29.6469942 16.953624,29.7625788 L16.7715429,29.8204578 L16.1336554,29.9266586 C10.476333,30.9158531 5.42440754,27.3536563 2.46003505,22.7914492 L2.129039,22.2631108 L1.73462961,21.5568802 C1.56251914,21.2646837 1.30233286,20.8495639 0.858561215,20.1947179 C-0.176905965,18.6667441 0.431886159,17.9937804 1.32440858,18.2835606 C2.25588816,18.5859889 2.76954901,18.5036994 3.06025008,18.5045505 L4.62913467,18.5091357 C5.87950565,18.5592031 7.49858927,18.497769 8.73285518,18.6820255 C9.98622424,18.8470334 11.321512,19.0422587 12.6075103,19.2784014 L13.8722193,19.5285796 C15.4717581,19.7389739 16.900623,20.5681681 18.4498363,20.7999662 C17.9607277,20.0707623 17.590139,19.299726 17.2469438,18.5179296 L16.5700778,16.949197 C16.4157796,16.6014935 16.2548922,16.2557564 16.0794156,15.9147137 L15.0243688,13.9899732 C14.7598049,13.5185351 14.5199922,13.1231423 14.4780561,13.1726355 C14.4044035,12.7699537 13.5090772,11.5075293 12.4591608,10.4361859 C11.4092443,9.36484245 9.71484976,9.06457329 8.10066812,10.8025569 C7.02454703,11.9612127 5.76576577,13.6936937 4.32432432,16 C4.12602038,15.0373925 4.01070507,14.3166718 3.97837838,13.8378378 C3.95186564,13.4451221 3.97892182,12.8585183 4.05954691,12.0780263 C4.09783018,11.8684346 4.13473467,11.6727644 4.15886731,11.5466026 C6.06732326,3.02288555 15.7337791,-1.85967266 22.156122,5.52676264 L24.1735318,8.63028055 L24.8271324,9.60308457 C25.2023476,10.1610176 25.932914,11.318858 26.2811679,11.897718 C26.6414072,12.4083258 27.8290253,14.7515603 28.4255254,15.4074756 L28.5615146,15.5342649 C29.3824308,16.5134324 32.5398498,15.8751547 33.6891704,16.0016433 C34.3847013,15.9890055 35.4187115,14.25501 35.8593746,13.4735673 C36.2349634,12.7580238 36.7136912,11.9541128 37.2065787,11.1588536 L38.638741,8.89605015 C38.8253039,8.58751078 40.2675682,6.65873804 41.0099161,5.46659282 C41.1854109,5.38579724 41.3345751,5.23988517 41.4361187,5.03795303 C42.3203347,3.91755859 43.4677379,3.13903672 44.7680136,2.56714151 Z" id="Path" fill="#D01D32" mask="url(#mask-2)"></path>
                <path d="M20.1234985,37.9968675 C20.483403,39.1265382 21.4450109,41.2385959 21.9195322,42.3407269 C23.1120449,45.4038666 23.5493732,48.6148297 25.2329958,51.4909341 C26.4557427,53.4668861 27.6922049,55.9782064 28.920068,57.9212761 C29.3103375,58.4201279 30.2987098,60.6483875 30.9794971,61.3424081 C31.6602845,62.0364287 33.1398605,62.9091946 33.3752782,62.4728121 C33.6106958,62.0364296 32.9233629,60.6923679 33.1044954,60.0821834 C33.2856246,59.471998 33.7667173,58.5123212 34.2773824,57.7848434 C35.7530428,55.3620304 37.5174404,51.9028329 38.8952552,49.4247407 C40.145794,45.9039405 41.3529195,41.328456 43.1788466,38.025057 C43.7389189,39.4446935 44.2368607,41.989651 44.6517113,43.9068185 L45.7108435,48.5980866 L45.957366,49.7376641 C46.1567004,50.6759833 46.3344849,51.5623432 46.4434893,52.2194643 L46.6798262,53.7222261 L46.9393792,55.6471097 C47.3374939,58.7659506 47.8365813,63.3182812 48.082071,66.3859311 C48.1493816,67.2270476 47.9008861,67.6792321 47.3365845,67.7424844 C42.4891405,69.5747214 37.0355321,71.0918919 31.5465206,71.0918919 C26.3627074,71.0918919 20.8551382,68.4282493 16.2349435,66.7855108 L16.0419777,63.1625151 L16.3030263,55.7297043 L16.5595559,53.6854366 L16.6327894,53.1761972 L17.0294391,50.8210117 C17.0828151,50.5069863 17.1364647,50.1993742 17.1898732,49.9108619 C18.1424303,46.3328393 18.8537823,41.4673629 20.1234985,37.9968675 Z M27.862198,50.4688147 C28.4097781,50.4283067 29.162589,50.8834355 29.6512824,51.0709123 L33.3125696,51.0874889 C34.0075074,51.2846511 34.3892699,50.5388508 35.0442406,50.4696835 L35.3038065,50.4786263 L33.3793513,54.2469666 C32.9254534,55.1213565 32.5078413,55.9088173 32.2566247,56.3416858 C31.9513633,56.2142988 32.1262867,55.7105304 31.7842463,55.5998896 C31.0373287,55.4643726 31.2552911,56.3245205 30.962652,56.4336699 C30.0152575,54.8235528 28.6053023,52.1819883 27.862198,50.4688147 Z M28.4941266,18.1904767 L28.6854223,18.3369998 C29.104797,18.7074826 29.6448288,18.7477969 30.155741,18.551685 C30.6785292,18.3510136 31.3038955,18.6643697 32.0018429,18.5126581 L32.3448476,18.4389648 C32.4514795,18.4226705 32.5541181,18.4201464 32.6638925,18.4478923 L32.8352971,18.514276 C33.3185851,18.7651834 33.9539109,18.7483486 34.3953305,18.3906188 L34.6332252,18.179572 C34.7620659,18.0692825 34.9044935,17.9714269 35.0548707,17.9741279 L36.5336464,18.0006797 C37.3193439,18.1127293 38.1345974,18.3097862 38.813457,18.725006 L40.1050054,19.4975169 C41.1969692,20.1612804 42.2422841,20.92659 42.5972035,22.1799591 C42.6501033,22.3968529 42.3329612,22.7367053 42.4579879,23.4361151 L42.5271859,23.7157101 C42.604725,24.2488676 43.4210767,25.7325117 42.9713792,26.2052059 C41.1441706,28.1756794 37.6197145,28.2804906 36.8023491,31.203868 C36.4809723,32.2723611 36.3044844,33.6414358 36.1888848,34.7458887 L36.1712574,36.2398461 C36.1703087,36.9166134 36.188316,37.6269513 36.2673664,37.9352275 L36.3166976,38.0568901 L36.4309482,37.7027028 C36.8647107,36.124779 36.5619174,34.2352066 37.6812784,32.9586964 L37.9658203,32.6754207 C38.55009,32.1786335 39.9179564,32.4779224 40.9108751,31.4170084 C41.6836724,30.591291 42.0223143,29.0843611 41.7365349,28.9856962 C41.1189682,28.7724869 40.4675176,29.1620052 39.796516,29.1329741 C40.4348883,28.7529206 41.0966816,28.4829416 41.828445,28.3806623 C42.1443371,28.3160761 42.4140167,28.3571675 42.6886697,28.2665727 L42.8963917,28.1702267 C42.9486759,28.138285 43.0675956,28.1147798 43.1198799,28.1372033 C43.3702408,28.2244438 43.1204788,29.527908 43.148948,29.7097221 C43.0601154,32.2724024 42.2508963,34.7468594 40.9533943,36.9496455 C39.8882256,39.0657221 38.9464206,41.2654824 38.2539044,43.533391 C37.9821482,43.3069457 38.1131252,41.5345198 38.1050053,40.9522348 L38.1002903,40.8013421 L38.1542257,40.4752049 C37.4223647,40.7373103 37.3410227,41.5221795 37.3591334,42.2204536 L37.3774019,42.6673783 L37.3665007,46.4729777 C37.3169603,47.6368786 36.593043,48.7037502 35.5861336,49.2022054 L33.089985,50.2636992 C32.9388836,50.3278338 32.5610522,50.2681846 32.4099129,50.2603687 C31.869134,49.9269532 31.9231678,48.1217697 32.0461529,47.5131221 C32.5999104,45.2308959 34.3972264,46.7830764 35.0671401,44.4717605 L35.1530269,43.957383 L35.2057689,43.51767 C35.2589692,42.9100392 35.2201379,42.2654632 34.8067679,42.1652561 C33.8881843,42.5589663 34.1819947,43.5752751 33.745644,43.9406736 C32.354713,45.0071968 29.1931347,45.021542 29.0232699,42.8238876 C28.9601129,42.5993486 28.6315666,42.2415982 28.4174433,42.2001599 C27.4229067,42.1808354 28.0784606,44.9135114 28.5276487,45.3407596 C28.9315388,45.9029009 29.8873421,46.0698449 30.4880266,46.3428023 C31.2968309,47.2220596 31.3062956,49.1400492 30.7327834,50.122825 C30.0890376,50.7318246 28.3200918,49.4615309 27.6646118,49.3026179 C26.3752148,48.7426565 26.1420717,47.8280445 25.7448107,46.5012953 C25.6391441,46.0528792 25.5616523,45.6194589 25.7648392,45.1872889 C25.6371372,44.1075444 26.1736028,41.2120897 25.0682153,40.5316182 L25.059433,43.5741253 C24.7595606,43.3747775 24.8121401,43.1173993 24.7402051,42.8685513 C24.0565925,40.4148414 22.628305,37.8011221 21.5079475,35.5145404 C20.3180812,33.1934491 19.9765666,30.5454878 19.8494059,27.9693083 L20.4347582,28.3420399 L21.3694305,28.3829575 C21.7197808,28.4070729 22.5836585,28.7657003 22.92563,28.8721922 C23.050653,28.916115 23.178559,29.0213358 23.2752548,29.1658718 L21.5666294,28.8517859 C21.0380313,29.5666001 21.7911632,30.991447 22.4002987,31.5865738 C23.1664617,32.3351093 24.7606476,32.2421269 25.2875064,32.7644057 C26.2252933,33.6634815 26.3789696,35.0604522 26.5885016,36.2700364 C26.7453922,37.1617051 26.5568172,37.7326812 26.8436001,38.0585167 C27.0499229,37.7491477 27.0133281,37.4670766 27.0229297,37.1282514 C27.1198768,35.5333512 27.0040251,33.9181437 26.6604356,32.3586249 C26.2700714,28.1274554 22.2307953,28.4796275 19.9172315,25.9551496 L20.6474373,23.6029462 C20.9152261,22.2070462 20.2118741,21.7764468 21.5150913,20.554551 C23.0327087,19.3112072 24.6981295,18.1577471 26.6795219,17.9699748 L27.1815501,17.9436571 C27.6716508,17.8974641 28.1044717,17.9349975 28.4941266,18.1904767 Z M22.251045,29.6568854 C22.2296189,29.9077085 22.2444417,30.230698 22.4403858,30.4124226 L23.6806027,31.5626262 C23.0133413,31.5249281 22.6212748,30.9910416 22.2780899,30.4731699 L22.0705301,30.1889754 C21.9293267,29.9934195 21.807159,29.7806241 21.8522022,29.520266 C21.8892231,29.4038196 22.264292,29.5017968 22.251045,29.6568854 Z M41.2560903,29.4984693 L41.3976297,29.5518702 C41.2535549,29.8974881 40.8219943,30.5663829 40.5985845,30.8707407 C40.3990112,31.1640786 40.0789219,31.418505 39.6769862,31.4632625 L40.6501553,30.4421534 C40.878465,30.2620582 40.8462061,29.5752378 41.1438479,29.4995359 L41.2560903,29.4984693 Z M3.64638891,20.2463757 L6.53435307,20.263683 C7.83788008,20.4003979 9.50733141,20.6761979 10.7985778,20.9387603 C12.8546687,21.3281426 14.7845654,22.069308 16.7573031,22.7776557 L18.3395027,23.2622518 C19.3787921,23.5991916 19.009958,24.820393 18.4464424,25.4872771 L18.3078413,25.6400092 L17.8761846,26.1701395 C17.7435351,26.2570754 17.4161281,26.1373312 17.2400292,26.1030264 L16.8728722,26.0525004 C16.6827401,26.0269128 16.495098,25.988915 16.3653889,25.8848532 L14.7525609,24.5909175 C12.5369477,22.8449563 9.24661672,22.5060683 6.58382663,21.8149229 C6.28573998,21.7489501 5.95917987,21.7638727 5.86273104,22.102173 C8.21409792,24.5171185 10.9793351,26.8517452 14.4031195,27.4385734 L14.737561,27.4744623 C14.9570544,27.4961795 15.167256,27.5376611 15.3540286,27.7439983 C11.9619341,28.4391328 8.61473532,26.5130345 6.32129411,24.102758 L5.1258282,22.8124538 L4.77950568,22.4215694 C4.67549687,22.3003067 4.58635569,22.1913159 4.52238888,22.1043167 C4.42497446,21.9118924 3.31458093,20.7068994 3.38670434,20.4672537 C3.40484212,20.3859693 3.5475769,20.2866581 3.64638891,20.2463757 Z M59.5648894,20.2470108 L59.711819,20.3251775 C59.7882411,20.3769572 59.8102601,20.4418084 59.7098299,20.6021356 C56.9156562,24.4477369 52.9725243,28.516107 47.7456201,27.7899529 C47.8578582,27.6723938 48.0436534,27.5387563 48.1514164,27.5234189 C49.3532158,27.3523311 51.0782397,26.8024179 52.0677075,26.2013135 C52.8174564,25.7708776 54.4127507,24.7752007 55.0503347,24.2086428 C55.771352,23.4766479 56.7519954,22.7401942 57.3890226,21.9300138 C57.4414333,21.8534885 57.287553,21.6078496 57.2087635,21.6260339 L56.8271291,21.71411 L55.9539338,21.9343787 C55.5028068,21.9889478 53.1946579,22.5725402 52.7034016,22.6904091 C51.3638047,23.0178418 50.0726366,23.4376571 48.9306121,24.2101446 C48.224576,24.6877183 47.6009533,25.1848369 47.0075434,25.7775687 C46.5651471,26.1755853 45.8598149,26.0754445 45.3177546,26.1958083 L44.6958541,25.3753622 C44.2739498,24.7821601 43.956542,24.1141318 44.4582582,23.477178 C44.6880708,23.2176621 46.6058556,22.7065606 46.9483787,22.5541666 C49.5993133,21.530073 52.4507722,20.755669 55.2756104,20.3941311 C55.6417295,20.2747788 56.9289084,20.2516599 58.0203785,20.2484226 L59.5648894,20.2470108 Z M38.6893161,13.6915296 C40.596501,14.1795974 42.4150107,15.156449 43.6727716,16.6429614 C43.8359703,16.8062866 43.6321896,17.2214169 43.5473071,17.397737 C43.2782679,17.8942257 42.8162261,19.1507154 42.3373761,19.4978032 C40.8844654,18.1338809 39.1239817,17.0819437 37.1905179,16.5545487 L37.1699316,16.2386305 C37.1650441,16.1324619 37.1682627,16.0360053 37.1979818,15.980984 C37.5986413,15.329486 38.0336632,14.1342099 38.6893161,13.6915296 Z M24.4764052,13.7236391 L25.0366988,14.5377058 C25.4229668,15.1047692 25.8077258,15.7105868 26.0290539,16.2954588 C25.3803226,16.9121094 24.396545,16.9452956 23.6062794,17.3460521 L23.2809829,17.543082 C22.5330885,17.9830893 21.8395851,18.4418901 21.1702962,18.9838867 L20.6642584,19.4707574 C20.0204024,18.965687 19.7109706,17.8292925 19.3682366,17.122647 C19.7491885,15.2873128 22.7112985,13.9477839 24.4764052,13.7236391 Z M22.4131938,10.4413709 C22.9291008,11.035132 23.6734547,12.0752558 23.9773976,12.8034478 C22.9012719,12.9557007 20.6078881,14.0989808 19.9374649,14.7507835 L18.7860797,15.8701745 L18.1200102,14.4993038 C18.0455598,14.2794559 17.5324833,13.6398547 17.6791208,13.401128 L18.3196391,12.7429975 C19.5267974,11.5212219 20.37649,10.8503097 22.4131938,10.4413709 Z M40.6673473,10.5161734 C41.0716048,10.6672077 41.4213923,10.7092707 41.839396,10.6600691 C43.1586443,11.2738061 44.4238845,12.5920096 45.4490074,13.6041368 L44.2365876,15.8310857 C42.965232,14.3025885 40.8807192,13.4167236 39.0706347,12.7552609 C39.4032413,12.3638459 40.2337643,10.749227 40.6673473,10.5161734 Z M53.5731933,6.34786217 L54.1906425,6.96137896 C55.014552,7.79340918 55.7993423,8.6962027 56.0446778,9.84654359 C55.8563817,9.78625328 55.6816795,9.67513484 55.5610059,9.52724169 C54.8658846,8.67532446 54.0535356,7.94459542 53.0655385,7.45204655 C51.8265928,6.84602049 50.4334055,7.17084946 49.4691173,8.1104189 L48.0136668,9.65635324 L47.7898837,9.91489956 C47.7607504,9.95068236 47.7362982,9.98224147 47.7174255,10.0087225 C47.1281636,10.8201464 46.3543474,12.0167667 45.8248836,12.8669611 C44.3572809,11.7591786 42.9204581,10.120088 41.0502622,9.62694527 C41.2151572,9.05658879 42.1975182,8.04398403 42.5392643,7.55551091 C42.6984183,7.35556501 43.0871121,7.43550947 43.2707859,7.5427105 C44.3687517,8.18584187 45.9878198,9.40436588 46.9751654,10.1883456 C47.1848498,10.2840276 47.6287383,10.0084962 47.665612,9.76626609 C47.5553418,9.3711903 47.2394027,9.10912637 46.924379,8.87966921 L45.9636323,8.18690189 C45.2205503,7.66013387 44.3045382,7.0299888 43.7655517,6.67612367 C43.1681574,6.40775044 43.8795629,6.00935553 44.167237,5.77297225 L44.597726,5.40827618 C44.9026775,5.15838216 45.2242578,4.94040277 45.6543423,4.92195849 C46.8650298,5.49231497 47.9642348,6.38163084 48.9944421,7.25623923 C49.3044944,7.45967826 49.5985569,7.18597555 49.4642998,6.86444644 C48.7786648,5.84333217 47.623277,5.18450108 46.6095002,4.55033104 C48.9728533,3.50606863 51.7814195,4.69519835 53.5731933,6.34786217 Z M16.4158212,4.55484225 L15.8339522,4.92312031 L15.1102463,5.40624527 C14.7404128,5.66156746 14.3792174,5.9263152 14.1194006,6.15002545 L13.8968115,6.35818752 C13.4132343,6.78391765 13.2927182,7.47384442 13.9265836,7.28482371 C14.9793667,6.38005424 16.1703088,5.56810364 17.3624859,4.92233629 C18.2536666,4.95591649 18.9684489,5.92881193 19.5553081,6.46655982 C18.6630301,7.18601083 15.1886896,8.93252364 15.509803,10.0222372 C15.5509099,10.234758 15.8621283,10.2801249 16.0688135,10.1324529 C17.3283291,9.28042551 18.924385,7.70447119 20.3981022,7.44179263 C20.7718794,7.96316264 21.9096337,9.11790407 22.0576628,9.74507235 C20.1308496,9.82593075 18.5298771,11.6848176 17.1817604,12.8672984 L16.3368163,11.4546092 C16.0068801,10.9099847 15.6682384,10.3749881 15.4396391,10.0996877 C15.1932756,9.89700425 14.838971,9.42611211 14.6238391,9.15954713 L13.4316259,7.96313166 C11.4959728,6.03459472 8.76217804,7.75915648 7.47654097,9.6083574 C7.37643291,9.73402583 7.1354696,9.8201846 7.05612326,9.70325632 C7.38364551,8.36404325 9.01016634,6.65823287 10.0873058,5.89646668 C11.8034209,4.44004651 14.2638804,3.66202808 16.4158212,4.55484225 Z" id="Shape" fill="#FFFFFF" mask="url(#mask-2)"></path>
            </g>
        </g>
    </g>
</svg>