<?xml version="1.0" encoding="UTF-8"?>
<svg width="43px" height="36px" viewBox="0 0 43 36" version="1.1" xmlns="http://www.w3.org/2000/svg" xmlns:xlink="http://www.w3.org/1999/xlink">
    <title>datagoat-logo-dashboard</title>
    <g id="datagoat-logo-dashboard" stroke="none" fill="none" fill-rule="evenodd" stroke-width="1">
        <g id="Group" transform="translate(1.7601, 1.5)">
            <path d="M16.3172809,-0.428594591 C17.4182266,-0.636276608 18.5427494,-0.739181269 19.679154,-0.739181269 C20.8061914,-0.739181269 21.9207541,-0.637964395 23.012057,-0.433906218 C23.3505893,-0.70678777 23.733105,-0.931776899 24.1558467,-1.11768812 L24.1774619,-1.1269923 C26.6264331,-2.15844752 29.4690446,-0.957405123 30.8545582,1.34885326 L30.9171342,1.46415376 L31.316498,2.28388526 C31.4690571,2.60788319 31.573864,2.97950545 31.671927,3.4536749 C31.6916836,3.54920515 31.7104974,3.64594699 31.7298309,3.75066071 C35.7609435,7.2185536 38.1321337,12.27306 38.1321337,17.713799 C38.1321337,19.2566471 37.9422649,20.7747341 37.5684973,22.2415388 C38.4707708,22.3964441 39.1900844,22.5382216 39.7161447,22.6549763 C40.4691924,22.8223202 40.9930276,23.5020997 40.9672892,24.2741916 L40.6589721,32.7533005 C40.619902,33.8309435 39.6157781,34.6118664 38.5750042,34.3856166 L37.8340734,34.2318857 C33.1318728,33.2958245 27.0426533,32.5869276 20.1738232,32.5527777 L19.6836792,32.5515538 C15.2798716,32.5515538 11.0540689,32.857462 7.11682863,33.3811383 C4.50698758,33.7282626 2.403834,34.1163027 0.917807835,34.4563126 C-0.142600928,34.6988898 -1.16019982,33.9152494 -1.19852111,32.8291493 L-1.49926083,24.2783732 C-1.52439659,23.5077018 -0.99586883,22.8265594 -0.220947081,22.6591392 L0.525499832,22.5073942 C0.910978693,22.4326637 1.33442542,22.3550356 1.79822774,22.2751681 C1.41893975,20.7980014 1.22617437,19.2684959 1.22617437,17.713799 C1.22617437,12.2736625 3.59683459,7.21953018 7.62746805,3.74873899 L7.68675755,3.37915968 C8.62120688,-0.794385462 13.0781642,-2.93403502 16.3172809,-0.428594591 Z" id="White-Outline" fill="#FFFFFF" fill-rule="nonzero"></path>
            <path d="M19.6703219,22.3287476 C26.6593491,22.3287476 32.2110612,22.9392865 35.6364232,23.4508861 C36.2807356,21.6590635 36.6321337,19.7275154 36.6321337,17.713799 C36.6321337,8.35092438 29.0419953,0.760818731 19.679154,0.760818731 C10.3162797,0.760818731 2.72617437,8.35092438 2.72617437,17.713799 C2.72617437,19.7393246 3.08164114,21.6817557 3.7331979,23.4824434 C7.18102048,22.9631364 12.7989898,22.3287476 19.6703219,22.3287476" id="Black-Circle" fill="#000000"></path>
            <path d="M19.6703219,22.3287476 C25.9111686,22.3287476 31.0057623,22.815538 34.4639055,23.2840687 C35.1169177,21.5517553 35.4743692,19.6745559 35.4743692,17.713799 C35.4743692,8.99034118 28.4026116,1.91858324 19.679154,1.91858324 C10.9556965,1.91858324 3.88393884,8.99034118 3.88393884,17.713799 C3.88393884,19.6857366 4.24535982,21.5732566 4.90545096,23.3137737 C8.38989197,22.8354184 13.5296054,22.3287476 19.6703219,22.3287476" id="White-Circle" fill="#FFFFFF"></path>
            <path d="M19.6703219,22.3287476 C25.2711895,22.3287476 29.9487895,22.7208328 33.3489452,23.1399105 C34.0159499,21.4610196 34.3827627,19.6302632 34.3827627,17.713799 C34.3827627,9.5932057 27.799714,3.01018978 19.679154,3.01018978 C11.558561,3.01018978 4.97554533,9.5932057 4.97554533,17.713799 C4.97554533,19.6407492 5.34642691,21.4809994 6.02037814,23.1673991 C9.44673246,22.7375046 14.154699,22.3287476 19.6703219,22.3287476" id="Red-Circle" fill="#D11E32"></path>
            <path d="M8.38976627,7.85827242 C9.51190467,9.69256835 11.5086514,11.1642194 13.7533252,10.7717372 C13.7533252,10.7717372 14.0072395,10.7294622 14.0072064,10.7294622 C14.2052833,10.6550015 14.2739222,10.6859965 14.2553649,10.9076587 C14.2726652,11.05056 14.3260547,11.3792328 14.347126,11.5178999 C14.4090499,11.8439925 14.5518188,12.5033229 14.6334577,12.8244867 C14.6334577,12.8244867 13.9433309,15.3599579 13.9433309,15.3599579 C13.566462,16.8281687 13.1019669,19.0208424 12.8441824,20.5117785 C12.8040575,20.8939069 12.7788844,21.7692099 12.7696223,22.5410419 C14.8783084,22.41124 17.1928449,22.328741 19.6703286,22.328741 C22.1978276,22.328741 24.5371734,22.4086267 26.6561801,22.53479 C26.6533684,21.8216071 26.6168823,20.5462468 26.5734826,20.307615 C26.5262789,20.0478788 26.4168537,19.7596946 26.3925737,19.6401141 C25.9854375,17.7255355 25.3277942,14.6295078 24.7707441,12.7524076 C24.9275054,12.1454082 25.1342822,11.3311028 25.1463891,10.7068362 C27.8516546,11.2625963 29.5837033,10.001063 31.0193974,7.85840474 C31.1167158,7.71318799 31.2877672,7.42798097 31.3116172,7.36489935 C31.385251,7.24048928 31.8117383,6.62105219 31.6428371,6.50041313 C31.4739688,6.37980715 30.9552242,6.38582752 30.9552242,6.38582752 C30.8406055,6.42201593 30.4666145,6.3918479 30.2793213,6.38903618 C29.510268,6.37739238 28.5975196,6.39548658 27.8431202,6.54354813 C26.8542901,6.6597546 25.8562641,6.83044217 24.9382892,7.22279202 C24.8756376,7.2489575 24.7921132,7.24310252 24.7355812,7.22590145 C25.1561143,6.58205207 25.8544778,4.96138023 26.2388226,4.31392523 C26.3460977,4.13321473 26.4690523,3.84089574 26.5350449,3.79018565 C26.5350449,3.79018565 26.698455,3.54811363 26.9096313,3.28139777 C27.1500824,2.97766652 27.474058,3.13766957 27.7651531,3.14402074 C28.2121163,3.15374596 28.66596,3.66660256 29.0645948,3.97665189 C29.4019674,4.23906749 30.4223879,4.85367505 30.4223879,4.85367505 C30.3522605,4.79618377 30.2280489,3.49340099 29.9594144,2.92288772 C29.9594144,2.92288772 29.5687516,2.12128465 29.5687516,2.12131773 C28.6097588,0.525025103 26.5649152,-0.504922204 24.7596958,0.255398288 C24.2598723,0.47520815 23.8188633,0.774473736 23.4789767,1.20512905 C23.4399435,1.28273236 22.4754595,2.56947183 22.4037443,2.68806 C22.0714659,3.21153495 21.6241388,3.89749388 21.3354254,4.44756434 C21.1660279,4.74792153 20.7685839,5.41443002 20.5012396,5.41929263 C20.0594697,5.37066652 18.8458349,5.61601336 18.5302944,5.23964066 C18.3270241,5.09379541 17.8037807,4.05445367 17.6537675,3.84185503 C17.5199299,3.61933269 17.2391224,3.17428801 17.094898,2.95983694 C17.094898,2.95983694 16.8073755,2.53192718 16.8073755,2.53192718 C16.7870319,2.50483549 16.3936236,1.90299642 16.068821,1.39288538 C16.0686225,1.39291846 16.0684241,1.39295154 16.0682256,1.39298462 C13.5996071,-1.44615167 9.88407633,0.430584598 9.15051677,3.70689276 C9.12729532,3.82812725 8.99640178,4.6908272 8.98025923,4.81216092 L10.592959,3.67781633 C11.3600606,3.0700892 11.9373551,2.86827431 12.3409187,3.28007461 C12.7444823,3.6918749 13.0886361,4.17711055 13.1169517,4.33188712 C13.1545625,4.28749513 13.606256,5.17414426 13.6266988,5.19071684 C14.0142853,5.86810831 14.2049195,6.60963994 14.643613,7.26364457 C14.0481251,7.17456286 13.4989147,6.85584683 12.8840756,6.77496871 C12.249323,6.63934487 11.5509925,6.53412062 10.9086317,6.44957073 C10.4342129,6.37874862 9.81186491,6.40236701 9.33126034,6.38311504 L8.72823045,6.38136186 C8.61648964,6.38103107 8.41904118,6.41265458 8.06099425,6.29641502 C7.7179321,6.18503808 7.48393136,6.44368267 7.8819377,7.03100006 C8.27994405,7.61831746 8.29377106,7.70395895 8.38976627,7.85827242" id="Goat-back" fill="#000000"></path>
            <path d="M15.9513906,10.6155283 C15.9254236,10.7656407 16.0440779,10.874636 16.1150985,10.9818119 C16.2470175,11.1808482 16.3976923,11.3860702 16.6541867,11.4005588 L16.1774855,10.9584581 C16.1021646,10.8885953 16.0964751,10.7644499 16.1047117,10.6680577 C16.1097728,10.6084163 15.9656146,10.5707724 15.9513906,10.6155283 M23.4641904,10.6276683 C23.2417673,10.5097086 23.2841415,10.8852874 23.1768663,10.9698704 L22.8028092,11.3623856 C22.957288,11.3451515 23.0803419,11.24737 23.157052,11.1346037 C23.2429251,11.0176364 23.4088162,10.7605135 23.4641904,10.6276683 M14.9965988,5.85016958 C15.1283524,6.12181421 15.2473044,6.55858914 15.4947683,6.75272971 L15.6892728,6.56560189 C15.946528,6.35727043 16.2131116,6.18092636 16.5005679,6.0117935 C16.8187216,5.78106758 17.2719037,5.80313126 17.5568792,5.53221436 C17.4292604,5.19500718 17.1602952,4.83967271 16.9600681,4.54368195 C16.2816181,4.62985271 15.1430395,5.14472712 14.9965988,5.85016958 M15.4883179,8.3410503 L15.2076427,9.24519822 C16.0969051,10.2155372 17.6495003,10.080178 17.7995466,11.7065394 C17.931631,12.3059637 17.9761553,12.9268232 17.9389083,13.539843 C17.9352035,13.6700749 17.9492621,13.7785079 17.8699717,13.8974268 C17.7597195,13.7721898 17.8322286,13.5527107 17.7718926,13.2099793 C17.6913783,12.7450542 17.6322992,12.208083 17.2718375,11.8625068 C17.069328,11.6617505 16.4565729,11.6974758 16.1620707,11.4097547 C15.9279376,11.1810136 15.6384304,10.6333248 15.8416346,10.3585707 L16.4983847,10.479309 C16.4612039,10.4237363 16.4120486,10.3833138 16.3639848,10.3664105 C16.2325289,10.3254917 15.9004821,10.1876516 15.7658175,10.1783895 L15.4065467,10.1626439 L15.1815765,10.0193788 C15.2304342,11.0095983 15.3617246,12.0274056 15.8190747,12.9195789 C16.2496969,13.7984876 16.7987088,14.8031294 17.0614552,15.7462775 C17.0891092,15.8419419 17.068898,15.9408812 17.1841782,16.0174921 L17.1875523,14.8480176 C17.6124188,15.1095732 17.4062375,16.2225157 17.4553267,16.6375577 C17.3772272,16.8036804 17.4069983,16.9702661 17.4476193,17.1426407 C17.6003119,17.6525864 17.6899228,18.0041498 18.1855453,18.2193948 C18.4374748,18.2804586 19.1174464,18.7687375 19.3648772,18.5346706 C19.5853156,18.1569086 19.5816769,17.4196772 19.2708006,17.0817092 C19.0399093,16.9767827 18.672501,16.9126095 18.5172613,16.6965375 C18.3446221,16.5323334 18.0926264,15.4819433 18.4749202,15.4893861 C18.5572207,15.5052971 18.6834832,15.6428064 18.7077632,15.7291095 C18.7730611,16.5738476 19.9883168,16.5683234 20.5229394,16.1583755 C20.6906498,16.0179221 20.5777182,15.6272924 20.9308033,15.475956 C21.1890178,15.5385415 21.0670556,16.1536783 21.0309003,16.362539 C20.7733804,17.2509413 20.0825589,16.6543287 19.8696956,17.5315504 C19.8224257,17.765485 19.8016521,18.4593828 20.0095205,18.5875308 C20.0676072,18.590541 20.212857,18.6134648 20.2709106,18.5888209 C20.2709106,18.5888209 21.1222314,18.2274992 21.1222314,18.2274992 C21.5646959,18.0634605 21.893931,17.619772 21.9147046,17.1317577 C21.9147046,17.1317577 21.9189387,15.6523663 21.9189387,15.6523332 C21.9023992,15.3575002 21.8799386,14.9472546 22.2175096,14.8263509 C22.2175096,14.8263509 22.1958429,14.9573106 22.1958429,14.9573437 C22.2133086,15.0913136 22.1408987,15.9060821 22.2558151,16.0018457 C22.5220017,15.1301152 22.8840181,14.2845833 23.2934367,13.4712041 C23.7921685,12.6245144 24.1032102,11.6733943 24.1373477,10.6883351 C24.1263986,10.6184723 24.2223938,10.117458 24.126167,10.0839159 C24.1060881,10.0752823 24.0603729,10.0843129 24.0402609,10.0966182 C23.9055633,10.1788857 23.7815502,10.1464683 23.6297838,10.1774964 C23.3485132,10.2167942 23.0941358,10.320563 22.8487559,10.4666729 C23.1066727,10.4778205 23.3570806,10.328105 23.5944554,10.4100416 C23.7043107,10.4479832 23.5741449,11.0271963 23.2770957,11.3445891 C22.8954303,11.7523869 22.3696399,11.6373382 22.1450666,11.8283032 C21.5459401,12.3501903 21.7595311,13.2222185 21.5112402,13.898353 C21.4251356,13.7745053 21.4647642,12.7700619 21.4620518,12.6241174 C21.5065099,12.1996148 21.5743218,11.6733612 21.6978719,11.2626525 C22.012056,10.1389924 23.3667728,10.0987022 24.0691058,9.34129268 C24.2419435,9.15962289 23.9281562,8.58934117 23.8983521,8.38438377 C23.7910108,8.041487 23.9481359,7.88786819 23.9252784,7.79408927 C23.7342803,7.11960874 23.0231483,6.81283423 22.4708946,6.4661003 C22.2099345,6.30649419 21.8965773,6.23074331 21.5945993,6.18767447 L21.02617,6.17748614 C20.929844,6.17573296 20.8419862,6.28138724 20.7726526,6.33755536 C20.6029905,6.4750647 20.3588015,6.48154818 20.1730299,6.38508986 C20.0580143,6.32538229 19.9734975,6.35819664 19.8526599,6.38446136 C19.5843894,6.44277961 19.3440044,6.32233902 19.1430826,6.39947922 C18.9466927,6.47486623 18.7391221,6.45935218 18.5779282,6.31694715 C18.4094569,6.16812479 18.2196497,6.14503566 17.9998729,6.1657431 C17.1523893,6.1744098 16.4537612,6.65157417 15.8218202,7.16932646 C15.3208721,7.6389819 15.5912266,7.80450915 15.4883179,8.3410503 M14.3473576,4.41973499 C14.290991,4.51149609 14.4882079,4.75733912 14.5168212,4.84182285 L14.7728526,5.36877109 L15.2154163,4.93847965 C15.4731016,4.68797248 16.3546235,4.24851816 16.7682762,4.19000143 C16.6514412,3.91008705 16.365308,3.51029443 16.1670325,3.28204942 C15.2536887,3.46543932 14.9613697,3.78587546 14.3473576,4.41973499 M10.4257447,2.96187792 C10.9199117,2.25107667 11.9706987,1.58820687 12.7147112,2.32947386 C12.7147112,2.32947386 13.1729875,2.78937101 13.1729875,2.78937101 C13.2556849,2.89181663 13.3918711,3.07282484 13.4865432,3.15072585 C13.6622918,3.3623652 14.0072064,3.97330099 14.1561941,4.21451296 C14.6743764,3.76000769 15.2897448,3.04550159 16.0303502,3.01440735 C15.9734543,2.77336078 15.5361501,2.32950694 15.392455,2.12908137 C14.8260105,2.23007151 14.2125276,2.8358139 13.7283836,3.16332894 C13.648961,3.22009248 13.5293143,3.20265986 13.5135356,3.12095476 C13.3900848,2.70210864 14.7255496,2.03077062 15.0685125,1.7542303 C14.8429469,1.54755279 14.5681929,1.17359486 14.22566,1.16066097 C13.7674168,1.40888568 13.3096367,1.72098592 12.9049815,2.0687453 C12.6613217,2.14141983 12.7076654,1.8762256 12.8935362,1.71258385 C13.0800024,1.51705397 13.6280881,1.16340653 13.8617912,1.0194137 C13.0346181,0.676252303 12.0888899,0.975286336 11.4292619,1.53511509 C11.0152122,1.8278972 10.3900194,2.48358886 10.2641208,2.99833096 C10.2946196,3.0432853 10.3872408,3.01017324 10.4257447,2.96187792 M9.86403047,8.4057528 C10.7463131,9.39024958 12.0905438,10.212097 13.4536626,9.93277803 C13.3459575,9.81379291 13.218008,9.83741131 13.0881399,9.8153807 C11.7721255,9.5898151 10.7092316,8.69244837 9.8054145,7.76418586 C9.84249605,7.63415237 9.96803079,7.62842971 10.0825833,7.65376821 C11.1061133,7.91942554 12.3708221,8.04969059 13.2224736,8.72079706 L13.8424069,9.21817269 C13.9255013,9.28482685 14.0704534,9.28095661 14.1785886,9.30202792 C14.2462682,9.31519336 14.3721337,9.36123931 14.4231085,9.32782953 C14.4231085,9.32782953 14.5949207,9.11681868 14.5949207,9.11681868 C14.8359011,8.87778993 15.0292147,8.34885694 14.6012057,8.21009059 L13.9930486,8.02382282 C13.2347459,7.75154969 12.4929497,7.46667346 11.7026266,7.31699105 C11.2063095,7.21606707 10.5646103,7.110082 10.0635629,7.05751949 L8.95349833,7.05087061 C8.91552366,7.06635158 8.8606787,7.10452473 8.85369904,7.13578437 C8.82597885,7.22787626 9.25279699,7.69104823 9.2902424,7.76501284 C9.40496032,7.92107949 9.73042445,8.26123071 9.86403047,8.4057528 M20.3564859,18.905453 C20.3564859,18.905453 18.9491736,18.8990687 18.9491736,18.8990687 C18.7613181,18.8270227 18.4719762,18.6520679 18.2614946,18.6676481 C18.5471316,19.3261515 19.0890646,20.341511 19.4532312,20.9603857 C19.5656997,20.9184416 19.4819437,20.5878171 19.7690363,20.6399165 C19.9004921,20.682423 19.8332756,20.8760674 19.9506068,20.9250243 C20.2016432,20.4924504 20.8850881,19.1384613 21.1218675,18.6714191 C20.8051362,18.6172358 20.6569754,18.9906975 20.3564859,18.905453 M25.4284867,19.5020986 C25.3417866,18.8719109 24.9728898,17.284715 24.828467,16.642288 C24.6497081,15.9246063 24.4179237,14.5666478 24.1488261,13.8845591 C23.4469893,15.154329 22.9829904,16.9130064 22.5023197,18.2663339 C21.9727251,19.2188433 21.2945398,20.5484862 20.7273344,21.4797589 C20.5397766,21.7469379 20.3628702,22.0952927 20.2867224,22.330385 C22.18625,22.3401764 23.9754923,22.3945252 25.6399275,22.4787774 C25.6459148,21.5696014 25.6208079,20.4341321 25.4284867,19.5020986 M15.9772584,15.5434041 C15.7948609,15.1197615 15.4252694,14.307937 15.2869331,13.8737423 C14.7988857,15.2077185 14.5254548,17.0778721 14.1593036,18.4531971 C14.0977105,18.7858724 14.0352904,19.1846396 13.9773691,19.5178112 C13.9080025,19.8918683 13.8709871,20.3123684 13.8184246,20.6897996 L13.7553761,22.4847646 C15.4298012,22.3965099 17.2227152,22.339581 19.1145355,22.3301865 C18.9330311,22.0058802 18.7586717,21.6479325 18.6681015,21.5321891 C18.1961305,20.7853317 17.7208848,19.8200208 17.2508985,19.0605273 C16.6037413,17.9550275 16.4356339,16.7207844 15.9772584,15.5434041 M25.8933456,3.11576136 C25.9804095,2.99360067 26.3762988,2.59040091 26.4841694,2.47356593 C26.8545879,2.04628466 27.4361826,1.88217982 27.9490391,2.13305085 C28.328819,2.32236188 28.6410515,2.60323555 28.9082305,2.93068443 C28.9546403,2.98754721 29.0217906,3.03025218 29.0941674,3.05340747 C28.9762739,2.50072377 28.5344049,2.09669704 28.1441721,1.70861438 C27.4554676,1.07336553 26.3759019,0.616280101 25.4674868,1.0176936 C25.8571572,1.26145264 26.3012757,1.51467228 26.564816,1.90718753 C26.6164192,2.03077062 26.5033883,2.1359618 26.3842047,2.05776307 C25.9882162,1.72158134 25.5657314,1.37977618 25.1003762,1.16052866 C24.8689226,1.17045235 24.7192402,1.33072004 24.5543745,1.46449146 C24.4720409,1.55023219 24.1238515,1.72224292 24.3743587,1.83477763 C24.6643952,2.02521335 25.238481,2.42378205 25.5165429,2.63006261 C25.6578894,2.73171433 25.8225897,2.84034572 25.8734321,3.02257786 C25.8592743,3.11566212 25.6886529,3.22158104 25.6080394,3.1847972 C25.2285573,2.88344764 24.6062093,2.41508228 24.1841876,2.16788302 C24.113597,2.1266666 23.9641793,2.09593622 23.9030162,2.17281179 C23.7716265,2.36056811 23.3940299,2.74977546 23.3306505,2.96902298 C24.049523,3.15856557 24.6018098,3.78858793 25.1659057,4.21441372 C25.3694407,3.88759334 25.6668538,3.42766312 25.8933456,3.11576136 M24.5553999,5.35372016 L25.0214498,4.49773524 C24.6274129,4.10872636 24.1410857,3.60202245 23.6339848,3.36613621 C23.4733202,3.38502431 23.3388541,3.36888176 23.1834821,3.31082814 C23.0168302,3.40040603 22.6975849,4.02100089 22.5697347,4.1714772 C23.2654849,4.42572228 24.0667241,4.76620429 24.5553999,5.35372016 M23.8254129,6.76314959 C24.0094644,6.62970896 24.1870655,6.14675577 24.2904704,5.9559231 C24.3230862,5.88814425 24.4014173,5.72857123 24.3386995,5.66578731 C23.8552502,5.09441399 23.1562581,4.71893442 22.4231617,4.53134349 C22.171166,4.70150179 22.0039517,5.16093583 21.8499359,5.41134375 C21.8270784,5.45365177 21.8449741,5.55966992 21.8470581,5.63181519 C22.5902436,5.83452322 23.2669404,6.23888074 23.8254129,6.76314959 M28.7985406,7.10766723 C29.0272156,7.03310719 30.1907689,7.05622941 30.4472302,7.05110216 C30.5128589,7.08530583 30.5608565,7.09516337 30.5029683,7.18761914 C29.4289268,8.66575363 27.9132808,10.2295627 25.9041955,9.9504422 C25.9473305,9.90525631 26.0187481,9.85388464 26.060163,9.84799658 C26.522111,9.78223556 27.1851792,9.57086084 27.5655214,9.33980412 C27.8536724,9.17434304 28.4668907,8.79165225 28.7119398,8.5738602 C28.9891086,8.29249035 29.3660436,8.00943347 29.6108943,7.69802789 C29.6310394,7.66858759 29.5718941,7.57418017 29.5415938,7.58115983 L29.3949216,7.61503272 L29.0592691,7.69968184 C28.8858691,7.720687 27.9986576,7.9449956 27.8098428,7.99028073 C27.2949353,8.11614627 26.7986513,8.27750557 26.3596932,8.57445563 C26.0883132,8.75801092 25.8485898,8.94910822 25.6205102,9.1769232 C25.4504511,9.32991351 25.1793358,9.29140957 24.9709712,9.33768707 C24.7704795,9.05406784 24.3513357,8.6599648 24.6406114,8.2927219 C24.7289654,8.19295568 25.4660975,7.99649958 25.5977518,7.9379167 C26.6167169,7.54427677 27.712756,7.24663205 28.7985406,7.10766723" id="Goat" fill="#FFFFFF"></path>
            <path d="M39.1599569,32.6989535 C39.1547305,32.8431117 39.0205952,32.947509 38.8796456,32.9168778 C37.3784221,32.5904213 29.76665,31.0515538 19.6836792,31.0515538 C9.61321237,31.0515538 2.08195453,32.6511874 0.583311125,32.9940842 C0.441600754,33.0265016 0.305679206,32.9217404 0.300551964,32.7764245 L0,24.2294761 C-0.00162456177,24.1814454 0.0310243961,24.1392035 0.0779965544,24.1290483 C0.945327534,23.941325 8.71511794,22.3287575 19.6703153,22.3287575 C30.9901424,22.3287575 38.5395606,23.9303428 39.390749,24.1192569 C39.4374896,24.1296437 39.4698739,24.1718525 39.4682192,24.2196847 L39.1599569,32.6989535 Z" id="Banner" fill="#000000"></path>
            <path d="M12.7629867,29.3019004 C12.9594758,29.3185722 13.8105981,29.2701115 13.8105981,29.2701115 L13.7953487,25.2904779 L15.0754723,25.2304726 L15.0773248,24.3645971 L11.3820383,24.5659158 L11.4021503,25.4095292 L12.7148568,25.3599107 L12.7629867,29.3019004 Z M35.568168,26.1966437 L36.8901035,26.3888657 L36.8830246,25.513728 L33.2554508,24.9581664 L33.2525398,25.8398206 L34.5223097,26.0296609 L34.3902915,30.1643357 L35.4403839,30.3527867 L35.568168,26.1966437 Z M17.6737935,27.2141864 L17.1201836,25.5736671 L16.554533,27.238731 L17.6737935,27.2141864 Z M16.294466,28.137487 L15.9597728,29.177358 L14.8543063,29.2106355 L16.4299245,24.2815027 L17.7752798,24.2474975 L19.4717025,29.0991593 L18.3352078,29.0995893 L17.969685,28.0849907 L16.294466,28.137487 Z M22.493137,27.2470999 C22.493137,27.2470999 22.5359081,27.9771201 22.5416307,28.2118817 C22.1973116,28.3533274 21.4073193,28.5178954 21.0280026,27.990484 C20.6253652,27.4306222 20.6736936,26.1457682 20.8806357,25.6776013 C21.2568099,24.8264459 22.3243018,24.9910139 23.0921312,25.4172035 C23.1660297,25.2590529 23.3588471,24.7935323 23.4130635,24.6482494 C22.945029,24.3138539 22.1248686,24.1264284 21.3712963,24.2404186 C20.1705291,24.4220222 19.7366652,25.2960683 19.6579703,26.1055111 C19.4933692,27.7984274 19.8721236,28.8312857 21.1173158,29.1230754 C22.2933399,29.3986564 23.3413152,28.9836144 23.6400184,28.7057509 C23.6515961,28.2502864 23.5897053,26.394886 23.5897053,26.394886 L21.6575949,26.3799013 L21.8294071,27.2670466 L22.493137,27.2470999 Z M9.95206688,27.6082232 L9.35786907,25.9523554 L8.84134073,27.6628697 L9.95206688,27.6082232 Z M8.5937776,28.6081348 L8.24889611,29.6717896 L7.13042948,29.8018231 L8.70882631,24.718443 L10.0149169,24.6272443 L11.7612889,29.3975317 L10.6419622,29.4611426 L10.2857015,28.483427 L8.5937776,28.6081348 Z M31.6709013,27.7927378 L31.1574162,25.9689941 L30.5195872,27.6534091 L31.6709013,27.7927378 Z M31.92164,28.7120359 L30.225912,28.5327809 L29.8612492,29.5935909 L28.7303449,29.4578017 L30.5381445,24.6220509 L31.8995101,24.772461 L33.3884283,29.9640425 L32.2680431,29.8267647 L31.92164,28.7120359 Z M4.94834117,29.2466916 C6.00064984,28.9321435 5.83131851,27.8749391 5.77190866,27.154975 C5.7124988,26.4350108 5.27119206,25.9937041 4.71645749,26.0750453 C4.27273599,26.1401117 3.93625656,26.218145 3.93625656,26.218145 L4.06450378,29.4033206 C4.06450378,29.4033206 4.49304203,29.3827785 4.94834117,29.2466916 L4.94834117,29.2466916 Z M3.10432009,30.4192093 L2.8474287,25.6124357 C2.8474287,25.6124357 4.36687878,25.1933249 5.41336554,25.2709282 C6.55439204,25.3555112 6.77066244,26.2245293 6.85868562,27.1321835 C7.06384148,29.247287 6.21490242,29.7278254 5.53688247,29.9466098 C4.53938569,30.2684684 3.10432009,30.4192093 3.10432009,30.4192093 L3.10432009,30.4192093 Z M27.264979,28.1566397 C27.519191,27.752183 27.7820697,25.5733694 26.8012116,25.3127401 C25.2003541,24.8873112 25.3695862,26.9849821 25.3977364,27.4063753 C25.4903576,28.7937741 26.8833467,28.7638045 27.264979,28.1566397 L27.264979,28.1566397 Z M26.9263825,29.3860203 C25.3888051,29.5313362 24.3006058,28.7475958 24.2536336,27.1035371 C24.2105978,25.5978479 24.8403225,24.1624514 26.5689641,24.3491823 C28.953595,24.6067684 28.6121868,26.774302 28.546095,27.6504651 C28.4927386,28.35819 28.2763689,29.2584677 26.9263825,29.3860203 L26.9263825,29.3860203 Z" id="Text" fill="#FFFFFF"></path>
        </g>
    </g>
</svg>