<?xml version="1.0" encoding="UTF-8"?>
<svg width="64px" height="64px" viewBox="0 0 64 64" version="1.1" xmlns="http://www.w3.org/2000/svg" xmlns:xlink="http://www.w3.org/1999/xlink">
    <title>DataGOAT Logo Favicon Mike1</title>
    <defs>
        <path d="M32,0 C14.3268901,0 0,14.3268901 0,32 C0,49.6731099 14.3268901,64 32,64 C49.6731099,64 64,49.6731099 64,32 C64,14.3268901 49.6731099,0 32,0 L32,0 Z" id="path-1"></path>
        <path d="M0,0 C0,9.5512601 0,20.2179268 0,32 C0,49.6731099 14.3268901,64 32,64 C49.6731099,64 64,49.6731099 64,32 C64,20.2179268 64,9.5512601 64,0 L0,0 Z" id="path-2"></path>
    </defs>
    <g id="DataGOAT-Logo-Favicon-Mike1" stroke="none" fill="none" fill-rule="evenodd" stroke-width="1">
        <g id="Group">
            <g id="Red-Cirlce" stroke-linejoin="square">
                <path stroke="#FFFFFF" stroke-width="3" d="M35.1961666,1.66330371 C50.6060421,3.23020378 62.5,16.3164697 62.5,32 C62.5,48.8446827 48.8446827,62.5 32,62.5 C15.1553173,62.5 1.5,48.8446827 1.5,32 C1.5,15.1553173 15.1553173,1.5 32,1.5 Z" fill="#D01D32" fill-rule="evenodd"></path>
                <path stroke="#000000" stroke-width="1.75" d="M35.2276863,1.039099 C50.9874953,2.64072776 63.125,15.9949548 63.125,32 C63.125,49.1898607 49.1898607,63.125 32,63.125 C14.8101393,63.125 0.875,49.1898607 0.875,32 C0.875,14.8101393 14.8101393,0.875 32,0.875 Z"></path>
            </g>
            <g id="GOAT" transform="translate(0, 0)">
                <mask id="mask-3" fill="white">
                    <use xlink:href="#path-2"></use>
                </mask>
                <g id="Red-Cirlce"></g>
                <path d="M44.6317199,2.36452982 C49.1187772,0.474732163 54.2013275,3.03468033 56.5850082,7.00242236 L57.5560324,8.9947641 C58.2195248,10.3561735 58.7460081,14.5678508 58.9203246,14.7106975 L55.339368,11.1297409 C54.3485098,10.359073 53.3670986,8.9506415 52.2560889,8.92648935 C51.5326047,8.91076147 50.5732022,9.13095264 49.975541,9.88589263 L49.6463983,10.3128357 C49.2902666,10.786512 49.044558,11.1504879 49.044558,11.1504879 C48.900998,11.2607945 48.6490511,11.8308642 48.4096973,12.2725466 L48.3082408,12.4522638 C47.3529338,14.0615726 45.6170982,18.0899157 44.5718333,19.6902016 C44.7123762,19.7329322 44.9199137,19.7475304 45.0756821,19.6824532 C47.3574,18.7072341 49.8379844,18.2830359 52.2958349,17.9941614 C54.170939,17.6261829 56.4395995,17.581174 58.3511665,17.6100842 L59.3969331,17.6452454 C59.6685699,17.6489473 59.9090656,17.6406867 60.0311484,17.6021351 L60.1686008,17.6029746 C60.512112,17.6087313 61.4044733,17.6471115 61.7403068,17.8869949 C62.1601062,18.1868532 61.1000063,19.7264574 60.9169786,20.0356609 C60.8661701,20.1700886 60.546548,20.7100929 60.3039481,21.0889544 L60.1906677,21.2623329 C56.6221626,26.5880311 52.317009,29.7237312 45.5929271,28.3423489 C45.562777,29.8939523 45.0488817,31.9180203 44.6592192,33.4267467 C46.0437933,38.0923754 47.6784497,45.7877677 48.690413,50.5466323 L48.814375,51.0250548 C48.8567597,51.1899028 48.8901215,51.3546166 48.8842,51.502672 C48.9978652,51.5679202 48.9325166,51.8653358 49.0229267,51.8624951 C49.1573522,53.0626454 49.7016023,55.1773765 49.7297297,56.6486486 L50.1621622,57.9459459 L49.0610559,63.4061868 C49.0415959,64.1718699 49.0385825,64.6975518 49.0673535,64.6957357 C49.2417403,64.6847222 49.3433103,67.2205615 49.3628967,70.8117069 L49.3651891,72.9392934 L49.3435702,75.7796002 C49.3200262,77.7315566 49.278068,79.7756462 49.2167844,81.7636467 C43.9611749,84.1201115 38.1353816,85.4297865 32.0036974,85.4297865 C25.6062045,85.4297865 19.5416981,84.0041015 14.1105612,81.4531144 C13.9105056,78.0020652 14.2479998,73.5536536 14.4874619,69.0499644 L14.6030934,66.6289261 C14.7088822,64.0445065 14.7445767,61.4976417 14.5893372,59.16755 C14.5406851,57.5960945 14.8501246,54.2828697 15.0149257,52.7131804 C15.5974431,49.3442112 16.6045342,44.5338279 17.486621,40.9452451 L17.7836068,39.773316 C18.0323135,38.8596219 19.4623085,33.6058805 19.4623085,33.6058805 L19.2593798,32.7547398 C19.0729852,31.9387858 18.8605194,30.937247 18.7505859,30.3583018 L18.557722,29.1025325 C18.5433034,29.0020225 18.5311107,28.9125094 18.5225032,28.8414652 C18.5634927,28.3517448 18.4332461,28.2364276 18.0580509,28.3468564 L17.8840919,28.4021535 L17.2746587,28.5036171 C11.8696932,29.4486864 7.04311976,26.045389 4.21097945,21.6866889 L3.89474819,21.1819182 L3.51793227,20.5071906 C3.35349916,20.228028 3.10491905,19.8314256 2.68094279,19.2057904 C1.69166484,17.7459751 2.27330049,17.1030304 3.12601003,17.3798844 C4.01593897,17.6688222 4.50668688,17.5902034 4.78442061,17.5910165 L6.28332173,17.5953972 C7.47791723,17.6432312 9.02477816,17.5845376 10.203987,17.7605749 C11.4014468,17.9182223 12.6771712,18.1047391 13.9058048,18.3303482 L15.1140988,18.5693666 C16.6422867,18.7703758 18.0074141,19.5625821 19.4875213,19.7840402 C19.0202304,19.0873641 18.6661727,18.3507215 18.3382865,17.6037988 L17.6916135,16.1050429 C17.5441981,15.7728495 17.3904875,15.4425347 17.2228384,15.1167049 L16.2148542,13.2778216 C15.9620917,12.827413 15.7329764,12.4496576 15.692911,12.4969431 C15.6225437,12.1122237 14.7671554,10.9061125 13.7640727,9.8825586 C12.76099,8.85900474 11.1412355,8.72396808 9.23455149,10.2345017 L5.20597529,15.1583171 L5.73914166,11.4511612 C5.77571722,11.2509188 5.8109755,11.0639769 5.83403166,10.9434429 C7.65735684,2.79994443 16.8926197,-1.86481682 23.0284802,5.19213071 L24.9558992,8.15720955 L25.5803445,9.08661956 C25.9388225,9.61966478 26.6368004,10.7258572 26.9695196,11.2788959 C27.3136896,11.766727 28.4483316,14.0054365 29.0182235,14.6320933 L29.1481466,14.7532269 C29.9324441,15.6887165 32.9490196,15.0789106 34.0470723,15.1997569 C34.7115776,15.1876828 35.6994636,13.5310359 36.1204699,12.7844511 C36.4793047,12.100826 36.9366778,11.3327751 37.4075791,10.5729901 L38.7758567,8.41112392 C38.9540975,8.11634761 40.3320266,6.27361192 41.0412604,5.13464489 C41.2089269,5.05745337 41.3514374,4.91805002 41.4484513,4.7251255 C42.293225,3.65470865 43.3894458,2.91091442 44.6317199,2.36452982 Z" id="Path" fill="#000000" mask="url(#mask-3)"></path>
                <path d="M21.0865262,36.213837 C21.4303764,37.2931163 22.3490898,39.3109611 22.802444,40.3639292 C23.9417621,43.290431 24.3595824,46.3581622 25.9681035,49.1059718 C27.1363072,50.9937822 28.3176143,53.3930797 29.4907059,55.2494746 C29.8635667,55.7260741 30.8078505,57.8549374 31.4582698,58.5179997 C32.1086892,59.181062 33.5222656,60.0148963 33.7471819,59.5979796 C33.9720983,59.1810628 33.3154253,57.896956 33.488478,57.31399 C33.6615275,56.7310232 34.12116,55.8141549 34.6090458,55.1191278 C36.0188812,52.8043896 37.7045741,49.4994969 39.0209285,47.1319454 C40.2156843,43.768198 41.3689634,39.3968128 43.1134412,36.240769 C43.6485302,37.5970796 44.1242603,40.0285138 44.5206056,41.8601619 L45.5324929,46.342166 L45.7680187,47.4309102 C45.9584614,48.3273736 46.1283154,49.1741955 46.2324575,49.8020044 L46.458252,51.2377322 L46.7062272,53.0767523 C47.2430173,57.2819806 47.9719463,64.2149637 47.9408148,66.0389555 L46.8994875,82.7213008 C42.2682741,84.471807 37.2478598,85.4297865 32.0036974,85.4297865 C27.0511193,85.4297865 22.2980994,84.5753759 17.8839984,83.0059152 L17.1870705,60.2569169 L17.4364744,53.1556626 L17.681561,51.2025839 L17.7515277,50.7160602 L18.130484,48.4659328 C18.181479,48.1659151 18.2327355,47.8720247 18.2837616,47.5963821 C19.1938278,44.1779649 19.8734485,39.5295235 21.0865262,36.213837 Z M28.4800245,48.1294462 C29.0031786,48.0907452 29.7224087,48.5255719 30.189303,48.704686 L33.6872706,48.7205232 C34.3512092,48.9088905 34.7159423,48.1963582 35.3416967,48.1302763 L35.5896841,48.1388201 L33.7510734,51.7390655 C33.3174226,52.5744515 32.918439,53.3267858 32.6784284,53.7403453 C32.3867838,53.6186407 32.5539044,53.137344 32.2271214,53.0316385 C31.5135217,52.9021665 31.7217614,53.7239457 31.4421761,53.8282263 C30.5370422,52.2899319 29.189981,49.7662 28.4800245,48.1294462 Z M29.0837646,17.2909526 L29.2665271,17.4309398 C29.6671947,17.7848964 30.1831373,17.8234124 30.6712591,17.6360485 C31.1707272,17.4443285 31.7681977,17.7437066 32.4350117,17.5987625 L32.7627159,17.5283564 C32.8645912,17.512789 32.9626514,17.5103775 33.0675291,17.5368857 L33.2312878,17.6003082 C33.6930178,17.8400234 34.3000035,17.8239395 34.7217326,17.482167 L34.9490156,17.2805344 C35.072109,17.1751646 35.2081834,17.081674 35.3518526,17.0842546 L36.7646644,17.109622 C37.5153141,17.2166734 38.2942015,17.4049401 38.9427791,17.8016381 L40.1767152,18.5396895 C41.2199697,19.1738444 42.2186561,19.9050157 42.5577435,21.1024757 C42.6082836,21.3096944 42.3052882,21.634387 42.4247379,22.3025981 L42.4908492,22.5697212 C42.5649295,23.0790961 43.3448661,24.496559 42.9152282,24.9481677 C41.1695262,26.830744 37.8022861,26.9308798 37.021381,29.7238537 C36.7143399,30.7446845 36.5457246,32.0526886 36.4352816,33.107875 L36.4184405,34.5351913 C36.4175341,35.1817699 36.4347382,35.8604217 36.5102624,36.1549466 L36.5573931,36.2711821 L36.6665472,35.9327941 C37.0809609,34.425257 36.7916743,32.619973 37.8611037,31.4004042 L38.1329531,31.1297647 C38.6911601,30.6551377 39.9980099,30.9410762 40.9466374,29.9274866 C41.6849624,29.138602 42.0084984,27.698892 41.7354669,27.6046283 C41.1454481,27.4009297 40.5230568,27.7730726 39.8819867,27.7453365 C40.491883,27.3822361 41.1241555,27.1243001 41.8232771,27.0265832 C42.1250782,26.964878 42.3827282,27.0041365 42.6451297,26.9175828 L42.8435858,26.8255345 C42.8935378,26.7950177 43.0071528,26.7725609 43.0571048,26.7939842 C43.2962978,26.8773332 43.057677,28.1226535 43.0848763,28.2963575 C43.0000062,30.7447239 42.2268841,33.1088024 40.9872599,35.2133286 C39.9696053,37.235013 39.0698116,39.3366483 38.4081865,41.503392 C38.1485526,41.2870478 38.2736871,39.5936847 38.2659294,39.0373738 L38.2614248,38.893212 L38.3129543,38.5816228 C37.6137395,38.8320364 37.5360259,39.5818949 37.5533288,40.2490209 L37.5707823,40.6760097 L37.5603674,44.3118521 C37.5130368,45.4238347 36.8214114,46.4431162 35.8594174,46.9193368 L33.4746149,47.9334804 C33.3302537,47.9947541 32.9692762,47.9377657 32.8248788,47.9302984 C32.3082225,47.6117556 32.3598461,45.8870962 32.4773452,45.3055987 C33.0064011,43.125176 34.7235439,44.6081182 35.3635747,42.3999035 L35.4456303,41.9084709 L35.4960197,41.4883723 C35.5468469,40.9078461 35.5097477,40.2920228 35.114817,40.1962857 C34.2372088,40.5724336 34.5179131,41.5434077 34.1010268,41.8925068 C32.7721412,42.9114555 29.7515919,42.9251608 29.5893043,40.8255375 C29.5289646,40.6110146 29.2150738,40.2692223 29.0105019,40.2296325 C28.0603287,40.21117 28.6866403,42.8219491 29.1157913,43.230139 C29.501665,43.7672048 30.4148327,43.9267019 30.9887224,44.1874835 C31.7614482,45.0275196 31.7704908,46.8599531 31.2225613,47.7988902 C30.6075311,48.380724 28.9174929,47.1670945 28.291252,47.0152702 C27.0593714,46.480287 26.8366281,45.6064732 26.4570878,44.3389066 C26.3561347,43.910493 26.2820996,43.4964063 26.4762229,43.0835142 C26.3542173,42.0519341 26.8667527,39.2856373 25.8106734,38.6355197 L25.8022828,41.5423092 C25.5157869,41.3518538 25.5660209,41.1059565 25.4972948,40.8682089 C24.8441762,38.523952 23.4796005,36.0268232 22.409219,33.8422394 C21.2724292,31.6246853 20.9461486,29.094842 20.8246602,26.6335785 L21.3839015,26.9896836 L22.2768808,27.028776 C22.6116029,27.0518157 23.4369455,27.3944458 23.7636627,27.4961874 C23.8831088,27.5381509 24.0053092,27.6386781 24.0976917,27.7767668 L22.4652832,27.4766914 C21.9602644,28.1596197 22.6798012,29.5209082 23.2617649,30.0894881 C23.9937515,30.8046336 25.5168254,30.7157989 26.0201825,31.2147803 C26.9161374,32.0737509 27.0629586,33.4084067 27.263144,34.5640348 C27.4130362,35.4159288 27.232873,35.9614352 27.5068633,36.2727362 C27.7039827,35.9771672 27.6690202,35.7076785 27.6781935,35.3839673 C27.7708161,33.8602111 27.6601322,32.3170533 27.3318693,30.8271002 C26.9589181,26.7846711 23.0998226,27.1211338 20.8894603,24.7092657 L21.5870937,22.4619874 C21.8429371,21.1283544 21.1709597,20.7169629 22.4160441,19.5495724 C23.8659649,18.3616906 25.4570961,17.259683 27.3501042,17.0802867 L27.8297383,17.0551429 C28.2979771,17.0110105 28.7114911,17.0468697 29.0837646,17.2909526 Z M23.119169,28.2458776 C23.0986986,28.4855122 23.1128602,28.7940941 23.3000639,28.9677125 L24.4849582,30.0666088 C23.8474614,30.0305922 23.4728839,29.520521 23.1450075,29.02575 L22.9467063,28.7542326 C22.8118017,28.5673999 22.6950835,28.3640967 22.7381175,28.1153524 C22.7734869,28.0041004 23.1318251,28.0977071 23.119169,28.2458776 Z M41.2764535,28.094528 L41.4116792,28.1455469 C41.2740313,28.4757477 40.8617213,29.1148051 40.6482771,29.4055863 C40.4576063,29.6858393 40.1517952,29.9289164 39.7677887,29.9716774 L40.6975475,28.9961171 C40.915673,28.8240554 40.8848531,28.1678721 41.1692179,28.095547 L41.2764535,28.094528 Z M5.34441346,19.2551439 L8.10355379,19.2716791 C9.34893418,19.4022956 10.9439161,19.665793 12.1775636,19.9166432 C14.1419382,20.2886562 15.9857477,20.9967604 17.8704872,21.6735107 L19.3821094,22.1364904 C20.3750391,22.4584003 20.0226576,23.6251273 19.4842789,24.2622636 L19.3518603,24.4081828 L18.9394586,24.9146655 C18.8127262,24.9977234 18.4999239,24.8833207 18.3316803,24.8505461 L17.9809012,24.802274 C17.7992502,24.7778277 17.6199783,24.7415249 17.4960552,24.642105 L15.9551709,23.4058881 C13.8383898,21.7378093 10.6948311,21.414038 8.15082048,20.7537227 C7.86603062,20.6906928 7.55403742,20.7049497 7.46189089,21.0281594 C9.70837001,23.3353811 12.3502579,25.5658667 15.621317,26.1265182 L15.9408401,26.1608062 C16.1505424,26.1815547 16.3513676,26.2211858 16.5298088,26.4183189 C13.2890259,27.0824455 10.0911361,25.242265 7.89999877,22.939504 L6.75785918,21.7067565 L6.42698512,21.3333084 C6.32761585,21.2174548 6.242451,21.1133258 6.18133757,21.0302075 C6.08826853,20.8463666 5.02740648,19.695125 5.09631268,19.4661691 C5.11364138,19.3885106 5.25000917,19.2936294 5.34441346,19.2551439 Z M58.7685494,19.2557506 L58.9089249,19.3304305 C58.981938,19.3799005 59.0029748,19.4418588 58.9070245,19.5950343 C56.237491,23.2690944 52.4702509,27.1559861 47.476504,26.4622236 C47.5837354,26.3499085 47.7612429,26.2222322 47.8641989,26.207579 C49.0123893,26.0441229 50.6604649,25.5187398 51.6057953,24.9444489 C52.3221001,24.5332136 53.8462329,23.5819509 54.4553761,23.0406656 C55.1442309,22.3413228 56.0811305,21.6377203 56.6897418,20.8636797 C56.7398146,20.790568 56.5927985,20.5558863 56.5175236,20.5732594 L56.1529128,20.6574068 L55.3186682,20.8678499 C54.8876647,20.9199849 52.6824757,21.4775448 52.213133,21.5901559 C50.9332917,21.9029828 49.6997189,22.3040714 48.6086369,23.0421003 C47.934095,23.4983709 47.3382904,23.9733145 46.7713507,24.5396062 C46.3486885,24.9198684 45.6748191,24.8241946 45.1569386,24.9391893 L44.5627793,24.155341 C44.1596949,23.5885999 43.8564458,22.9503704 44.3357818,22.3418293 C44.5553432,22.0938897 46.387581,21.605587 46.7148252,21.4599908 C49.2475092,20.4815791 51.9717726,19.7417191 54.6706029,19.3963084 C55.0203904,19.28228 56.250152,19.2601924 57.2929348,19.2570995 L58.7685494,19.2557506 Z M38.8241758,12.9926908 C40.6462866,13.4589872 42.3836778,14.3922643 43.5853335,15.8124676 C43.7412524,15.9685074 43.5465618,16.3651198 43.4654657,16.5335748 C43.2084276,17.0079165 42.7669961,18.2083579 42.3095062,18.539963 C40.9214057,17.2368814 39.2394522,16.2318682 37.3922347,15.7279988 L37.3725667,15.4261727 C37.3678972,15.32474 37.3709722,15.2325861 37.3993657,15.1800191 C37.7821528,14.5575826 38.1977697,13.4156244 38.8241758,12.9926908 Z M25.2452622,13.0233679 L25.7805627,13.8011215 C26.1496004,14.3428897 26.5171964,14.9216836 26.7286517,15.4804661 C26.1088585,16.0696097 25.1689644,16.1013155 24.4139503,16.4841955 L24.1031643,16.6724363 C23.3886314,17.0928162 22.7260632,17.5311512 22.0866293,18.0489709 L21.6031644,18.5141237 C20.988029,18.031583 20.6924001,16.9458798 20.3649544,16.2707558 C20.7289132,14.5172906 23.5588919,13.2375143 25.2452622,13.0233679 Z M23.2740848,9.88751236 C23.7669786,10.4547874 24.478129,11.4485143 24.768514,12.1442238 C23.7403911,12.2896851 21.5493086,13.3819667 20.908791,14.0046943 L19.8087659,15.0741525 L19.1724079,13.7644324 C19.1012784,13.5543913 18.6110888,12.9433209 18.7511853,12.7152432 L19.3631319,12.08647 C20.5164423,10.9191943 21.3282325,10.2782096 23.2740848,9.88751236 Z M40.7139726,9.95897807 C41.1001974,10.1032752 41.4343818,10.1434619 41.8337396,10.096455 C43.09414,10.682815 44.3029415,11.9422172 45.2823366,12.9091963 L44.1239993,15.0368073 C42.9093553,13.5764921 40.9178267,12.7301431 39.1884848,12.0981863 C39.5062548,11.7242312 40.2997305,10.1816358 40.7139726,9.95897807 Z M53.0441257,5.97660333 L53.6340323,6.5627529 C54.4211896,7.35766862 55.1709726,8.2201911 55.4053644,9.31921857 C55.2254676,9.26161764 55.0585584,9.15545587 54.9432677,9.01415982 C54.2791538,8.20024418 53.5030413,7.50211088 52.559116,7.0315332 C51.3754361,6.45254023 50.0443949,6.76287951 49.1231209,7.66053744 L47.7325938,9.13751207 L47.5187931,9.38452538 C47.4909593,9.41871201 47.4675978,9.44886335 47.449567,9.47416316 C46.8865904,10.2493918 46.147292,11.3926343 45.641446,12.2049038 C44.2393089,11.1465364 42.8665786,9.5805609 41.0798068,9.10941591 C41.2373463,8.5645014 42.1758871,7.59706604 42.5023888,7.13038231 C42.6544434,6.93935543 43.0257986,7.01573379 43.2012794,7.1181529 C44.250268,7.73259601 45.7971141,8.89676514 46.7404171,9.64577377 C46.940748,9.73718772 47.3648359,9.47394692 47.4000648,9.24252202 C47.2947134,8.86506943 46.9928675,8.61469542 46.6918961,8.39547369 L45.7740056,7.73360875 C45.0640703,7.23033834 44.1889189,6.62830225 43.673975,6.29022202 C43.1032288,6.03382016 43.7829005,5.65319651 44.0577423,5.42735761 L44.4690284,5.07892959 C44.7603768,4.84018262 45.0676125,4.63192667 45.4785121,4.61430514 C46.6351943,5.15921965 47.6853669,6.00886568 48.6696195,6.84446029 C48.9658413,7.03882448 49.2467865,6.77733087 49.1185182,6.47014426 C48.4634674,5.49457898 47.3596183,4.86513646 46.3910631,4.25925493 C48.6489938,3.26157409 51.3322779,4.39766013 53.0441257,5.97660333 Z M17.5442378,4.2635649 L16.9883244,4.61541514 L16.2969009,5.07698928 C15.9435646,5.32092227 15.5984811,5.57386037 15.350254,5.78759154 L15.137594,5.9864681 C14.6755877,6.39320763 14.5604475,7.05235873 15.166038,6.87176969 C16.1718595,6.0073594 17.3096771,5.2316276 18.4486745,4.61466609 C19.3001023,4.64674837 19.9830002,5.57624573 20.5436812,6.09000622 C19.6912052,6.77736458 16.3718451,8.44597044 16.6786345,9.48707501 C16.7179078,9.69011589 17.0152436,9.73345904 17.2127091,9.59237428 C18.4160414,8.7783534 19.9409018,7.2726979 21.3488807,7.02173668 C21.7059848,7.51984986 22.792987,8.62308158 22.934413,9.22227368 C21.0935495,9.29952521 19.5639918,11.0754924 18.2760107,12.2052262 L17.4687571,10.855553 C17.1535384,10.3352226 16.8300026,9.82409066 16.6116005,9.56107063 C16.3762266,9.36742832 16.0377264,8.91754134 15.832191,8.66286706 L14.693159,7.51982026 C12.8438498,5.67730985 10.2320018,7.32494384 9.00371337,9.09165719 C8.90807085,9.21171991 8.67785622,9.29403538 8.60204929,9.18232293 C8.91496171,7.90284834 10.4689281,6.27312929 11.4980195,5.54534331 C13.1375836,4.15388987 15.488289,3.41057663 17.5442378,4.2635649 Z" id="Shape" fill="#FFFFFF" mask="url(#mask-3)"></path>
            </g>
        </g>
    </g>
</svg>