<?xml version="1.0" encoding="UTF-8"?>
<svg width="48px" height="40px" viewBox="0 0 48 40" version="1.1" xmlns="http://www.w3.org/2000/svg" xmlns:xlink="http://www.w3.org/1999/xlink">
    <title>datagoat-logo-login</title>
    <g id="datagoat-logo-login" stroke="none" fill="none" fill-rule="evenodd" stroke-width="1">
        <g id="Group" transform="translate(1.8701, 1.5)">
            <path d="M34.4386573,1.60598325 L34.5012332,1.72128375 L34.9479502,2.63817546 C35.1113236,2.98514011 35.2256598,3.39055124 35.3329062,3.90912577 C35.3585079,4.03291937 35.3827327,4.15882939 35.4081485,4.29862421 C39.9184245,8.15679689 42.5724022,13.7925957 42.5724022,19.860931 C42.5724022,21.6425411 42.3446267,23.3943179 41.8997847,25.0841822 C42.9982727,25.2698216 43.8659073,25.4398412 44.4907915,25.5785291 C45.2494944,25.7471297 45.7772657,26.432017 45.7513337,27.2099175 L45.405644,36.7168188 C45.3659402,37.8119405 44.345553,38.6055117 43.290912,38.3762128 L42.2227016,38.1570124 C36.9077544,37.1199987 30.1528242,36.3519159 22.585876,36.3165967 L22.069585,36.3153869 C17.1235593,36.3153869 12.3776017,36.6589493 7.95550459,37.2471144 C5.02349742,37.6370888 2.65992521,38.0731772 0.98851237,38.4556044 C-0.0890680062,38.7021097 -1.12314751,37.9057778 -1.16209049,36.802058 L-1.49926787,27.2152859 C-1.52459382,26.438783 -0.992098944,25.7525279 -0.212969517,25.5841799 L0.532757745,25.4317921 C1.04388356,25.3318254 1.61287737,25.2277178 2.23883016,25.1214034 C1.78773184,23.4201061 1.55662048,21.6556855 1.55662048,19.860931 C1.55662048,13.7924507 4.21074962,8.15645579 8.72074876,4.29791887 L8.79591356,3.82848101 C9.82211005,-0.754835885 14.7181709,-3.08380734 18.2435077,-0.285088037 C19.4943813,-0.5273018 20.7725328,-0.646960613 22.0645113,-0.646960613 C23.3445097,-0.646960613 24.6099504,-0.529507469 25.8478815,-0.291840909 C26.2320572,-0.610744888 26.6694968,-0.872326383 27.1570286,-1.08673069 L27.1786438,-1.09603486 C29.8345074,-2.21462882 32.928803,-0.907246397 34.4386573,1.60598325 Z" id="White-Outline" fill="#FFFFFF" fill-rule="nonzero"></path>
            <path d="M22.0546087,25.0352685 C29.8907925,25.0352685 36.1154409,25.7198122 39.9559992,26.293424 C40.6784103,24.2844104 41.0724022,22.1187347 41.0724022,19.860931 C41.0724022,9.36315988 32.5622449,0.853039387 22.0645113,0.853039387 C11.5667406,0.853039387 3.05662048,9.36315988 3.05662048,19.860931 C3.05662048,22.1319753 3.45517423,24.3098531 4.18570774,26.3288065 C8.05144913,25.746553 14.350386,25.0352685 22.0546087,25.0352685" id="Black-Circle" fill="#000000"></path>
            <path d="M22.0546087,25.0352685 C29.0519233,25.0352685 34.7640448,25.5810638 38.6413578,26.1063863 C39.3735232,24.1640951 39.7743023,22.0593559 39.7743023,19.860931 C39.7743023,10.0800819 31.84536,2.1511393 22.0645113,2.1511393 C12.2836627,2.1511393 4.35472034,10.0800819 4.35472034,19.860931 C4.35472034,22.0718918 4.75995003,24.1882026 5.5000524,26.1396919 C9.40685083,25.6033541 15.1695612,25.0352685 22.0546087,25.0352685" id="White-Circle" fill="#FFFFFF"></path>
            <path d="M22.0546087,25.0352685 C28.3343707,25.0352685 33.5789538,25.4748793 37.3912506,25.9447544 C38.1391045,24.0623611 38.5503796,22.0096943 38.5503796,19.860931 C38.5503796,10.7560211 31.1693838,3.37506207 22.0645113,3.37506207 C12.9596018,3.37506207 5.57864307,10.7560211 5.57864307,19.860931 C5.57864307,22.0214514 5.99448009,24.0847626 6.75012256,25.975575 C10.5917935,25.4935719 15.8704238,25.0352685 22.0546087,25.0352685" id="Red-Circle" fill="#D11E32"></path>
            <path d="M9.40670989,8.8107924 C10.6648654,10.8674277 12.9036426,12.5174611 15.4203986,12.0774052 C15.4203986,12.0774052 15.7050904,12.030006 15.7050533,12.030006 C15.9271397,11.9465196 16.0040985,11.9812716 15.9832918,12.2298021 C16.0026891,12.3900247 16.06255,12.7585368 16.0861755,12.914012 C16.1556053,13.2796312 16.3156795,14.0188805 16.4072141,14.3789734 C16.4072141,14.3789734 15.6334353,17.2217751 15.6334353,17.2217751 C15.2108853,18.8679513 14.6900876,21.3264042 14.4010564,22.9980601 C14.356068,23.4265073 14.3278436,24.4079079 14.3174588,25.2732955 C16.6817437,25.1277599 19.2768307,25.035261 22.0546161,25.035261 C24.8884794,25.035261 27.5113829,25.1248299 29.8872394,25.2662857 C29.8840869,24.4666562 29.8431782,23.0367064 29.794518,22.7691495 C29.7415926,22.47793 29.6189036,22.1548144 29.5916806,22.0207393 C29.1351945,19.87409 28.3978367,16.4027854 27.7732652,14.2981574 C27.9490279,13.6175822 28.1808686,12.7045729 28.194443,12.0046374 C31.2276202,12.6277625 33.1696147,11.2133157 34.7793327,8.81094076 C34.8884473,8.64812194 35.0802323,8.3283443 35.1069731,8.2576164 C35.1895323,8.11812629 35.6677152,7.42360575 35.4783409,7.28834374 C35.2890038,7.15311882 34.7073809,7.15986894 34.7073809,7.15986894 C34.578869,7.20044383 34.1595457,7.16661905 33.9495502,7.16346653 C33.0872781,7.15041135 32.0638932,7.1706988 31.2180514,7.33670723 C30.1093628,7.46699937 28.9903637,7.65837639 27.9611188,8.09828391 C27.8908731,8.12762096 27.7972244,8.12105629 27.7338401,8.10177023 C28.205347,7.37987833 28.9883609,5.56276098 29.4192929,4.83682642 C29.5395712,4.63421157 29.6774294,4.30645989 29.7514211,4.24960311 C29.7514211,4.24960311 29.9346386,3.97818896 30.171412,3.67914383 C30.4410088,3.33859659 30.8042542,3.517994 31.1306336,3.52511501 C31.6317743,3.53601904 32.1406295,4.11104022 32.5875838,4.45867137 C32.9658501,4.75289499 34.1099583,5.4420006 34.1099583,5.4420006 C34.0313305,5.37754067 33.8920629,3.91684447 33.5908667,3.27717792 C33.5908667,3.27717792 33.1528507,2.37841063 33.1528507,2.37844772 C32.077616,0.58866465 29.784912,-0.566125031 27.7608776,0.286355725 C27.2004694,0.532809265 26.7060046,0.868349548 26.3249196,1.35120563 C26.2811551,1.43821541 25.1997637,2.88092365 25.1193557,3.01388617 C24.746801,3.60081277 24.2452523,4.36991843 23.9215433,4.98666424 C23.7316128,5.32342845 23.2859936,6.07072602 22.9862438,6.07617804 C22.490926,6.02165784 21.1301835,6.29674376 20.7763957,5.87475002 C20.5484865,5.71122652 19.9618195,4.54590369 19.7936228,4.30753545 C19.6435625,4.05804065 19.3287176,3.55905105 19.1670115,3.31860585 C19.1670115,3.31860585 18.8446377,2.83882813 18.8446377,2.83882813 C18.8218282,2.80845259 18.3807339,2.13366317 18.0165612,1.56172034 C18.0163387,1.56175743 18.0161162,1.56179452 18.0158936,1.56183161 C15.248048,-1.62144317 11.0821488,0.482776786 10.2596728,4.15621409 C10.2336366,4.2921437 10.0868771,5.25941358 10.0687779,5.39545445 L11.8769568,4.12361324 C12.7370407,3.44222205 13.3843104,3.21594469 13.8367909,3.67766029 C14.2892715,4.13937588 14.6751409,4.6834281 14.7068887,4.85696551 C14.7490584,4.80719266 15.2555028,5.80131466 15.2784235,5.81989603 C15.7129903,6.57939574 15.9267317,7.41081019 16.4186003,8.14408829 C15.7509319,8.04420877 15.1351504,7.68686041 14.4457852,7.59617886 C13.7340927,7.44411573 12.9511159,7.32613699 12.230893,7.23133861 C11.6989688,7.15193198 11.0011845,7.17841322 10.4623247,7.15682767 L9.78620012,7.15486198 C9.66091494,7.15449109 9.43953328,7.18994776 9.03808662,7.05961853 C8.65344109,6.93474132 8.39107656,7.22473684 8.83732621,7.88324438 C9.28357585,8.54175192 9.29907887,8.63777423 9.40670989,8.8107924" id="Goat-back" fill="#000000"></path>
            <path d="M17.8848968,11.9022618 C17.8557823,12.0705698 17.988819,12.1927766 18.0684481,12.3129436 C18.2163573,12.5361055 18.3852958,12.766203 18.6728805,12.7824478 L18.1383972,12.286759 C18.0539465,12.208428 18.0475673,12.0692346 18.0568023,11.9611585 C18.0624769,11.8942878 17.9008449,11.852081 17.8848968,11.9022618 M26.308341,11.9158734 C26.0589575,11.7836155 26.1064679,12.2047191 25.9861897,12.2995546 L25.5667922,12.7396476 C25.7399958,12.7203244 25.8779653,12.6106906 25.9639736,12.4842557 C26.0602556,12.3531105 26.2462547,12.064821 26.308341,11.9158734 M16.8143724,6.55928261 C16.9620962,6.86385394 17.0954666,7.3535714 17.3729262,7.57124422 L17.591007,7.36143418 C17.8794448,7.12785037 18.1783416,6.93013121 18.5006412,6.74049736 C18.857359,6.48180459 19.3654724,6.50654267 19.6849904,6.20278729 C19.5419027,5.82470642 19.2403356,5.42630101 19.0158385,5.09443249 C18.255152,5.19104822 16.9785635,5.76833179 16.8143724,6.55928261 M17.3656939,9.35208894 L17.0509975,10.3658308 C18.0480494,11.4537869 19.7888384,11.3020205 19.9570722,13.125517 C20.1051668,13.797599 20.155088,14.4937143 20.1133263,15.1810397 C20.1091724,15.3270574 20.124935,15.4486337 20.0360337,15.5819671 C19.9124175,15.4415498 19.9937157,15.1954671 19.9260661,14.8111925 C19.8357925,14.2899127 19.7695524,13.6878539 19.3653982,13.3003896 C19.138342,13.0752991 18.4513134,13.1153548 18.1211139,12.7927584 C17.858601,12.5362909 17.5340019,11.9222155 17.7618369,11.6141578 L18.4981934,11.7495311 C18.4565058,11.6872223 18.4013922,11.6419001 18.3475025,11.6229478 C18.2001125,11.5770693 17.8278175,11.4225212 17.6768299,11.4121364 L17.274011,11.3944823 L17.0217717,11.2338517 C17.0765515,12.344098 17.223756,13.4852761 17.7365425,14.4855919 C18.2193615,15.4710352 18.8349205,16.5974521 19.129515,17.6549214 C19.160521,17.7621816 19.1378599,17.8731135 19.2671135,17.9590106 L19.2708966,16.6477813 C19.7472621,16.9410406 19.5160891,18.1888855 19.5711285,18.6542358 C19.4835624,18.8404946 19.5169421,19.0272726 19.5624869,19.2205412 C19.7336877,19.7922986 19.8341606,20.1864759 20.3898587,20.4278112 C20.6723252,20.4962767 21.4347178,21.043741 21.7121403,20.7813023 C21.9592985,20.3577509 21.9552187,19.5311579 21.6066604,19.152224 C21.3477822,19.0345791 20.9358395,18.9626273 20.7617828,18.7203647 C20.5682176,18.5362571 20.2856769,17.3585467 20.7143094,17.3668916 C20.8065858,17.3847312 20.9481529,17.5389084 20.9753759,17.6356725 C21.0485887,18.5828032 22.4111485,18.5766094 23.0105739,18.1169708 C23.198613,17.9594927 23.0719926,17.5215138 23.467876,17.3518336 C23.7573893,17.4220052 23.6206438,18.1117042 23.580106,18.3458815 C23.2913715,19.3419692 22.5168138,18.6730397 22.2781489,19.6565915 C22.2251493,19.9188818 22.2018577,20.6968888 22.4349223,20.8405699 C22.5000498,20.8439449 22.6629057,20.8696473 22.7279961,20.8420163 C22.7279961,20.8420163 23.6825075,20.4368979 23.6825075,20.4368979 C24.1786042,20.2529757 24.5477467,19.7555067 24.5710383,19.208339 C24.5710383,19.208339 24.5757856,17.549627 24.5757856,17.5495899 C24.5572414,17.2190195 24.5320582,16.759047 24.9105471,16.6234883 C24.9105471,16.6234883 24.886254,16.770322 24.886254,16.7703591 C24.9058368,16.9205678 24.8246499,17.8340963 24.9534956,17.9414677 C25.2519473,16.9640726 25.6578446,16.0160517 26.1168898,15.1040809 C26.6760741,14.1547619 27.0248179,13.0883543 27.0630933,11.9838938 C27.050817,11.9055627 27.158448,11.3438193 27.0505574,11.3062115 C27.0280446,11.2965313 26.9767882,11.3066565 26.9542384,11.3204535 C26.8032137,11.4126927 26.6641687,11.3763459 26.4940064,11.411135 C26.1786423,11.4551962 25.8934312,11.5715431 25.6183082,11.7353633 C25.9074878,11.7478621 26.1882482,11.5799993 26.4543958,11.6718677 C26.5775669,11.7144082 26.4316234,12.3638291 26.0985681,12.7196939 C25.6706402,13.1769218 25.0811174,13.0479277 24.8293231,13.2620401 C24.157575,13.8471864 24.3970558,14.8249153 24.1186691,15.5830056 C24.0221275,15.444146 24.0665596,14.3179516 24.0635184,14.1543168 C24.1133654,13.6783592 24.189397,13.0883172 24.3279228,12.6278255 C24.68019,11.3679639 26.1991152,11.32279 26.9865796,10.4735731 C27.1803674,10.2698827 26.8285452,9.63047574 26.7951284,9.40067497 C26.674776,9.01621486 26.8509467,8.84397555 26.8253185,8.73882945 C26.6111691,7.98259353 25.8138391,7.63863414 25.1946455,7.24987177 C24.9020538,7.07091942 24.5507138,6.9859866 24.2121322,6.93769728 L23.5748023,6.926274 C23.4668004,6.92430831 23.3682932,7.0427692 23.2905555,7.10574559 C23.1003283,7.25992277 22.8265404,7.26719213 22.6182511,7.15904186 C22.4892941,7.09209699 22.3945328,7.12888885 22.2590483,7.15833718 C21.95826,7.22372432 21.6887374,7.08868484 21.4634614,7.17517539 C21.2432666,7.25970024 21.0105358,7.2423057 20.8298032,7.08263941 C20.6409112,6.91577794 20.428097,6.88989012 20.1816805,6.91310756 C19.2314714,6.92282476 18.4481609,7.45782737 17.7396209,8.03833765 C17.1779516,8.56492115 17.4810765,8.75051235 17.3656939,9.35208894 M16.0864351,4.95546163 C16.0232362,5.05834532 16.2443582,5.33398756 16.2764398,5.42871177 L16.5635053,6.01953267 L17.0597133,5.53708456 C17.3486332,5.25621283 18.3370064,4.76349119 18.800799,4.69788152 C18.6698022,4.38403805 18.348986,3.9357856 18.1266772,3.67987448 C17.1026247,3.8854935 16.7748731,4.24477047 16.0864351,4.95546163 M11.6894741,3.32089422 C12.2435402,2.52393505 13.4216957,1.78071722 14.2558917,2.61183496 C14.2558917,2.61183496 14.7697168,3.12747733 14.7697168,3.12747733 C14.8624382,3.24234063 15.0151318,3.44528928 15.1212793,3.53263286 C15.3183308,3.76992552 15.7050533,4.4549143 15.8721002,4.72536415 C16.4530927,4.21576721 17.1430513,3.41465412 17.9734272,3.37979087 C17.9096349,3.10952646 17.419324,2.61187205 17.2582113,2.38715241 C16.6231066,2.50038381 15.9352621,3.17954968 15.3924338,3.5467636 C15.3033842,3.61040759 15.1692348,3.59086191 15.1515436,3.49925315 C15.013129,3.02963769 16.5104687,2.27692518 16.8950029,1.96686474 C16.642096,1.73513537 16.3340384,1.31584909 15.9499862,1.30134746 C15.4361983,1.57966008 14.9229296,1.92959073 14.4692252,2.31950286 C14.1960308,2.40098644 14.2479919,2.10364739 14.4563925,1.92017024 C14.6654608,1.70093971 15.2799813,1.30442582 15.542012,1.14297927 C14.6145753,0.758222461 13.5542131,1.09350312 12.81463,1.72119006 C12.3503924,2.04946099 11.6494185,2.7846306 11.5082594,3.36176582 C11.5424551,3.41216919 11.646303,3.37504353 11.6894741,3.32089422 M11.0596732,9.42463418 C12.0488994,10.5284642 13.5560676,11.4499297 15.0844132,11.1367538 C14.9636529,11.0033462 14.8201943,11.0298274 14.6745846,11.0051265 C13.199053,10.7522195 12.0073232,9.74608081 10.9939522,8.70530139 C11.0355285,8.55950622 11.1762796,8.5530899 11.3047173,8.58149974 C12.4523118,8.87935804 13.870319,9.02541282 14.8252013,9.77786571 L15.5202781,10.3355294 C15.6134446,10.4102629 15.7759667,10.4059235 15.8972092,10.429549 C15.9730924,10.4443102 16.1142144,10.4959375 16.1713679,10.458478 C16.1713679,10.458478 16.3640059,10.2218901 16.3640059,10.2218901 C16.6341961,9.95388806 16.8509417,9.36084184 16.3710527,9.2052553 L15.6891794,8.99640956 C14.8389611,8.69113355 14.00725,8.3717268 13.1211299,8.20390102 C12.5646531,8.0907438 11.8451719,7.97191202 11.2833914,7.91297829 L10.0387733,7.90552349 C9.99619559,7.92288094 9.93470274,7.96568115 9.92687705,8.00072984 C9.89579683,8.10398442 10.3743506,8.62329856 10.4163349,8.7062286 C10.544958,8.88121247 10.9098724,9.26259422 11.0596732,9.42463418 M22.8239442,21.1970281 C22.8239442,21.1970281 21.2460482,21.18987 21.2460482,21.18987 C21.0354223,21.1090911 20.7110086,20.9129297 20.475014,20.9303984 C20.7952738,21.6687205 21.4028958,22.8071541 21.8112038,23.5010442 C21.937305,23.4540159 21.8433967,23.0833156 22.1652884,23.1417301 C22.3126783,23.1893889 22.2373144,23.4065054 22.3688675,23.4613965 C22.6503327,22.9763893 23.4166196,21.45828 23.6820995,20.9346265 C23.3269765,20.8738754 23.1608568,21.2926053 22.8239442,21.1970281 M28.5107343,21.8659946 C28.4135252,21.1594203 27.9999135,19.3798366 27.8379848,18.6595395 C27.6375582,17.8548659 27.3776786,16.332306 27.0759631,15.5675397 C26.2890549,16.9912215 25.7688136,18.9630723 25.2298796,20.4804399 C24.6360917,21.5484052 23.8757018,23.0392173 23.2397442,24.0833718 C23.029452,24.3829362 22.8311023,24.7735159 22.7457245,25.0371044 C24.8754984,25.0480826 26.881619,25.1090191 28.7478044,25.2034837 C28.7545175,24.1841044 28.7263672,22.9110021 28.5107343,21.8659946 M17.9139001,17.4274572 C17.7093937,16.9524639 17.2950031,16.0422363 17.1398987,15.5554117 C16.592694,17.0510824 16.2861199,19.1479218 15.8755866,20.6899532 C15.8065277,21.0629529 15.7365415,21.5100556 15.6715995,21.8836117 C15.5938247,22.3030092 15.5523226,22.7744791 15.4933889,23.1976597 L15.4226981,25.2101967 C17.3000843,25.1112444 19.3103217,25.047415 21.431454,25.0368818 C21.227949,24.6732655 21.0324552,24.2719301 20.9309067,24.1421572 C20.401727,23.3047715 19.8688755,22.2224529 19.3419212,21.3708993 C18.6163204,20.1313993 18.4278363,18.7475507 17.9139001,17.4274572 M29.0319399,3.49343024 C29.1295571,3.35646216 29.573433,2.90438959 29.6943788,2.77339276 C30.1096966,2.29431972 30.7617878,2.11032333 31.336809,2.39160304 C31.7626228,2.60386092 32.1127018,2.91877995 32.4122662,3.2859197 C32.4643014,3.34967495 32.5395912,3.39755629 32.620741,3.42351829 C32.4885573,2.80384248 31.9931283,2.3508427 31.5555944,1.91571961 C30.7834105,1.20347073 29.572988,0.690980885 28.5544617,1.14105067 C28.9913651,1.41435633 29.4893162,1.69826933 29.7848008,2.13836229 C29.8426589,2.27692518 29.7159273,2.39486683 29.5822972,2.30718945 C29.13831,1.93025833 28.6646148,1.54702214 28.1428528,1.30119911 C27.8833441,1.31232568 27.7155183,1.4920198 27.5306689,1.64200597 C27.4383555,1.73813954 27.0479612,1.9310001 27.3288329,2.05717541 C27.6540255,2.2706943 28.2976976,2.71757447 28.6094641,2.94885878 C28.7679435,3.06283196 28.9526075,3.18463082 29.0096126,3.38895174 C28.9937387,3.49331897 28.8024359,3.61207657 28.712051,3.57083408 C28.286571,3.23295722 27.5887867,2.70782017 27.1156107,2.4306573 C27.0364637,2.38444494 26.8689347,2.34998966 26.8003579,2.4361835 C26.6530421,2.64669821 26.2296761,3.08308231 26.1586144,3.32890535 C26.9646232,3.54142285 27.5838539,4.24781173 28.2163253,4.72525288 C28.4445312,4.35881782 28.7779945,3.84313836 29.0319399,3.49343024 M27.5318187,6.00265737 L28.0543595,5.04291647 C27.6125605,4.6067549 27.0672843,4.0386322 26.4987166,3.77415362 C26.3185774,3.79533119 26.1678124,3.77723197 25.9936074,3.71214153 C25.8067552,3.81257738 25.4488134,4.50839602 25.3054661,4.67711192 C26.08555,4.96217466 26.9839092,5.3439273 27.5318187,6.00265737 M26.7133481,7.58292711 C26.9197089,7.43331183 27.1188375,6.89181872 27.2347763,6.67785477 C27.2713456,6.60186029 27.3591714,6.42294503 27.2888514,6.35255093 C26.746802,5.71192008 25.9630835,5.29092773 25.1411267,5.08059846 C24.858586,5.27138206 24.6711033,5.78650519 24.4984189,6.06726566 C24.4727907,6.11470194 24.4928556,6.2335708 24.4951922,6.31446097 C25.328461,6.54173972 26.0871819,6.99511039 26.7133481,7.58292711 M32.2892805,7.96920456 C32.5456737,7.88560693 33.8502641,7.91153183 34.1378118,7.90578311 C34.2113955,7.94413269 34.265211,7.95518508 34.200306,8.05884763 C32.9960773,9.71615033 31.2967162,11.4695124 29.044105,11.1565591 C29.0924685,11.1058961 29.1725427,11.0482976 29.2189776,11.0416958 C29.7369194,10.9679637 30.4803598,10.7309678 30.9068041,10.4719041 C31.2298826,10.2863871 31.9174305,9.85730943 32.1921826,9.61311829 C32.5029477,9.29764292 32.9255719,8.98027604 33.2001015,8.63112425 C33.2226885,8.59811542 33.1563741,8.49226465 33.122401,8.50009033 L32.9579503,8.53806903 L32.5816126,8.63297868 C32.3871943,8.65652992 31.3924418,8.9080275 31.1807403,8.95880176 C30.6034196,9.09992376 30.0469799,9.2808418 29.5548146,9.61378588 C29.25054,9.81959035 28.9817591,10.033851 28.7260334,10.28928 C28.5353611,10.4608146 28.2313832,10.4176435 27.9977623,10.4695304 C27.7729685,10.151533 27.3030193,9.70965983 27.6273588,9.29790254 C27.7264224,9.18604342 28.552904,8.96577441 28.7005165,8.90009055 C29.8429927,8.45873658 31.0718853,8.12501364 32.2892805,7.96920456" id="Goat" fill="#FFFFFF"></path>
            <path d="M43.9066289,36.6624718 C43.9007689,36.8241038 43.7503748,36.9411553 43.5923404,36.9068113 C41.9091499,36.5407842 33.3747367,34.8153869 22.069585,34.8153869 C10.7784528,34.8153869 2.33431321,36.6089159 0.65401566,36.993376 C0.495128237,37.0297228 0.342731313,36.9122633 0.336982585,36.7493332 L3.55271368e-15,27.1663888 C-0.00182147879,27.1125362 0.0347849373,27.0651741 0.0874507032,27.0537879 C1.05991294,26.8433102 9.77149821,25.0352796 22.0546013,25.0352796 C34.7465316,25.0352796 43.2110328,26.8309968 44.1653958,27.0428097 C44.217802,27.0544555 44.2541117,27.1017805 44.2522564,27.1554105 L43.9066289,36.6624718 Z" id="Banner" fill="#000000"></path>
            <path d="M14.3100188,32.8536538 C14.5303249,32.8723464 15.4846137,32.8180117 15.4846137,32.8180117 L15.4675159,28.3559972 L16.9028064,28.2887185 L16.9048833,27.3178881 L12.7616824,27.5436092 L12.7842322,28.489479 L14.2560549,28.4338461 L14.3100188,32.8536538 Z M39.8794706,29.3720015 L41.3616411,29.5875231 L41.3537041,28.6063079 L37.2864235,27.9834054 L37.2831597,28.9719271 L38.7068414,29.1847784 L38.5588209,33.8206269 L39.7361975,34.0319205 L39.8794706,29.3720015 Z M19.8160763,30.5128829 L19.195362,28.6735124 L18.5611475,30.5404026 L19.8160763,30.5128829 Z M18.2695572,31.5480991 L17.894295,32.7140153 L16.6548322,32.7513264 L18.4214349,27.2247217 L19.929864,27.1865946 L21.8319141,32.6263379 L20.5576622,32.6268201 L20.1478335,31.4892395 L18.2695572,31.5480991 Z M25.2195838,30.549786 C25.2195838,30.549786 25.2675394,31.3682937 25.2739557,31.6315112 C24.8879008,31.790102 24.0021516,31.9746176 23.576857,31.3832775 C23.125415,30.7555534 23.1796014,29.3149592 23.4116274,28.7900447 C23.8333986,27.8357187 25.0302838,28.0202344 25.8911836,28.4980835 C25.9740395,28.3207631 26.1902287,27.7988156 26.2510169,27.6359226 C25.7262508,27.2609943 24.8066768,27.0508505 23.9617622,27.1786577 C22.6154472,27.3822739 22.1289935,28.3622652 22.0407598,29.2698224 C21.8562071,31.1679412 22.2808712,32.3259947 23.6769961,32.653153 C24.9955689,32.9621378 26.1705718,32.4967876 26.5054816,32.1852436 C26.5184626,31.6745711 26.4490698,29.5942732 26.4490698,29.5942732 L24.2827637,29.5774721 L24.4754017,30.5721505 L25.2195838,30.549786 Z M11.1583807,30.954682 L10.4921587,29.0981024 L9.91302076,31.0159523 L11.1583807,30.954682 Z M9.63544993,32.0757952 L9.24876452,33.2683781 L7.99472588,33.4141733 L9.76444396,27.7146246 L11.228849,27.6123714 L13.1869028,32.9608768 L11.9318998,33.0321981 L11.532456,31.9359713 L9.63544993,32.0757952 Z M35.5098069,31.161562 L34.9340811,29.1167579 L34.2189393,31.0053449 L35.5098069,31.161562 Z M35.7909382,32.1922904 L33.889667,31.9913075 L33.4808026,33.1807008 L32.2128187,33.0284522 L34.239746,27.6065485 L35.766126,27.7751902 L37.4355195,33.5960557 L36.1793297,33.4421381 L35.7909382,32.1922904 Z M5.54814143,32.7917529 C6.72800294,32.4390777 6.53814656,31.2537271 6.4715355,30.4464944 C6.40492443,29.6392617 5.91012585,29.1444631 5.28815057,29.2356639 C4.79064453,29.3086171 4.41337962,29.396109 4.41337962,29.396109 L4.557172,32.9673673 C4.557172,32.9673673 5.03765439,32.9443353 5.54814143,32.7917529 L5.54814143,32.7917529 Z M3.48060215,34.1063944 L3.19257233,28.7169802 C3.19257233,28.7169802 4.89619859,28.2470681 6.06953251,28.3340778 C7.34886556,28.4289133 7.59135062,29.4032671 7.69004329,30.4209404 C7.92006659,32.7924205 6.96822559,33.3312062 6.20802123,33.57651 C5.08961547,33.9373818 3.48060215,34.1063944 3.48060215,34.1063944 L3.48060215,34.1063944 Z M30.5698322,31.5695733 C30.8548579,31.1160914 31.1496007,28.6731786 30.0498505,28.3809578 C28.2549493,27.9039617 28.4446944,30.2558962 28.4762568,30.7283675 C28.5801048,32.2839363 30.1419414,32.250334 30.5698322,31.5695733 L30.5698322,31.5695733 Z M30.1901937,32.94797 C28.4662429,33.1109001 27.2461403,32.2321606 27.1934745,30.3888217 C27.1452223,28.7006242 27.8512773,27.0912399 29.7894517,27.3006049 C32.4631294,27.5894136 32.0803383,30.0196791 32.0062354,31.0020441 C31.9464115,31.795554 31.7038152,32.8049565 30.1901937,32.94797 L30.1901937,32.94797 Z" id="Text" fill="#FFFFFF"></path>
        </g>
    </g>
</svg>