<?xml version="1.0" encoding="UTF-8"?>
<svg width="64px" height="64px" viewBox="0 0 64 64" version="1.1" xmlns="http://www.w3.org/2000/svg" xmlns:xlink="http://www.w3.org/1999/xlink">
    <title>DataGOAT Logo Favicon Mike4</title>
    <defs>
        <path d="M32,0 C15.2105456,0 1.6,13.6105456 1.6,30.4 C1.6,47.1894544 15.2105456,60.8 32,60.8 C48.7894544,60.8 62.4,47.1894544 62.4,30.4 C62.4,13.6105456 48.7894544,0 32,0 L32,0 Z" id="path-1"></path>
    </defs>
    <g id="DataGOAT-Logo-Favicon-Mike4" stroke="none" fill="none" fill-rule="evenodd" stroke-width="1">
        <g id="Group">
            <g id="Red-Cirlce" stroke-linejoin="square">
                <path stroke="#FFFFFF" stroke-width="3" d="M35.032576,1.6550431 C49.6299656,3.13943071 60.9,15.539228 60.9,30.4 C60.9,46.3610272 47.9610272,59.3 32,59.3 C16.0389728,59.3 3.1,46.3610272 3.1,30.4 C3.1,14.4389728 16.0389728,1.5 32,1.50000002 Z" fill="#D01D32" fill-rule="evenodd"></path>
                <path stroke="#000000" stroke-width="1.75" d="M35.0640956,1.0308384 C50.0114188,2.5499547 61.525,15.2177131 61.525,30.4 C61.525,46.7062052 48.3062052,59.925 32,59.925 C15.6937948,59.925 2.475,46.7062052 2.475,30.4 C2.475,14.0937948 15.6937948,0.875000001 32,0.875000019 Z"></path>
            </g>
            <g id="GOAT" transform="translate(0, 1.7444)">
                <path d="M18.4805492,33.8848562 L18.3724245,33.5844562 L18.3361465,33.431455 C18.136245,32.5563739 17.9083832,31.4822597 17.7904834,30.861362 L17.5836439,29.514595 C17.5681805,29.4068016 17.5551042,29.3108021 17.545873,29.2346097 C17.5898327,28.7094023 17.450148,28.5857288 17.0477647,28.7041597 L16.8612,28.7634638 L16.207605,28.8722798 C10.4109753,29.8858324 5.23465017,26.2359193 2.19728231,21.5613714 L1.85813574,21.0200231 L1.45401432,20.2964021 L1.21238959,19.9001401 L0.993713438,19.5582264 C0.870945403,19.3693843 0.726885619,19.1523118 0.556373426,18.9006976 C-0.456365658,17.4062622 0.0659651517,16.7100587 0.910920246,16.908095 L1.03369192,16.9424795 C1.98810846,17.2523549 2.51441781,17.168039 2.81227717,17.1689111 L4.41979432,17.1736093 C5.70095472,17.2249095 7.35990701,17.1619627 8.62456576,17.3507564 C9.90879806,17.5198275 11.2769662,17.71986 12.5946313,17.9618175 L13.8904827,18.2181561 C15.5294089,18.4337312 16.9934586,19.2833437 18.58082,19.5208496 C18.0796674,18.7736897 17.6999533,17.9836672 17.3483072,17.1826197 L16.6547739,15.5752583 C16.4966762,15.2189928 16.3318271,14.8647422 16.1520296,14.5153016 L15.0710031,12.5431658 L14.814948,12.1000887 C14.6586402,11.8406819 14.5398836,11.6718939 14.5112378,11.7057019 C14.4357715,11.2931043 13.5183986,9.99959373 12.4426287,8.9018693 C11.3668589,7.80414487 9.85429007,7.5164996 8.4,9.45555302 C7.6,10.5222197 6.53333333,12.1222197 5.2,14.255553 C5.09459941,13.6898231 4.31738958,11.855264 4.4,11.055553 L4.4,9.45555302 C6.35545019,0.721946013 15.797882,-3.69676521 22.3783701,3.87155533 L24.4454571,7.05149495 L25.1151521,8.04825352 C25.4996067,8.6199252 26.2481627,9.80627653 26.604992,10.3993905 C26.9741019,10.9225716 28.1909643,13.3235064 28.8021527,13.9955732 L28.9414905,14.1254846 C29.7826212,15.1287633 33.0177892,14.4747685 34.1954109,14.6043718 C34.9080687,14.5914228 35.9675406,12.814729 36.4190547,12.0140439 C36.803892,11.2808807 37.2944081,10.457174 37.7994326,9.6423321 L39.2668608,7.32380892 C39.4580176,7.00767201 40.9357966,5.03140474 41.6964242,3.80990386 C41.8762405,3.72711876 42.0290778,3.57761372 42.1331217,3.37070916 C43.0391109,2.22272587 44.214768,1.42503351 45.5470619,0.839055821 C50.3592683,-1.1876837 55.8101194,1.55776796 58.3665305,5.81302753 C59.2,7.85555302 59.2,8.65555302 59.2,10.255553 C59.2,11.855553 58.6130519,14.1023551 58.8,14.255553 C57.623354,12.7847456 57.3119006,11.4909717 56.4,10.655553 C55.3333333,9.05555302 54.4413071,8.12920857 53.7239214,7.87651967 C52.6478428,7.49748631 51.9190864,8.09579914 51.2781165,8.90544492 L50.9251228,9.3633259 C50.5431844,9.87132659 50.2796709,10.2616775 50.2796709,10.2616775 C50.125708,10.3799774 49.8555041,10.9913565 49.5988058,11.4650448 L49.4899974,11.657785 C48.4654652,13.3837104 46.6038444,17.7039625 45.4828357,19.4202111 C45.6335629,19.4660381 45.8561393,19.4816941 46.0231953,19.4119012 C48.470255,18.366014 51.1305919,17.9110769 53.7665476,17.6012694 C55.7775288,17.2066258 58.2105849,17.1583553 60.2606713,17.1893605 L61.3822181,17.2270697 C61.6735388,17.2310398 61.9314617,17.2221806 62.062391,17.1808354 L62.2098038,17.1817357 C62.5782071,17.1879096 63.5352322,17.229071 63.8954015,17.4863372 C64.3456211,17.8079244 63.2087024,19.4590941 63.0124119,19.7907036 C62.9579216,19.9348725 62.6151385,20.5140076 62.3549588,20.9203228 L62.2334697,21.1062649 C58.4063773,26.8178833 53.7892561,30.180808 46.5779218,28.6993256 C46.5573008,29.7605353 46.3256835,31.0278211 46.0521855,32.2264138 C45.5709029,33.4530843 44.8918021,35.7145416 43.918763,37.1700949 C42.0478738,40.5548376 40.8110238,45.2429898 39.5296914,48.8504871 C38.117949,51.3896003 36.3101045,54.9339779 34.7981071,57.4164508 C34.2748673,58.1618421 33.781928,59.1451502 33.5963388,59.7703609 C33.410746,60.3955708 34.1150039,61.7727289 33.8737893,62.219857 C33.6325747,62.6669851 32.1165652,61.772728 31.419014,61.0616177 C30.7214628,60.3505074 29.7087527,58.0673787 29.308873,57.556243 C28.0507747,55.5653267 26.7838657,52.9921671 25.5310096,50.9675588 C23.805929,48.0206326 23.3578318,44.730602 22.1359544,41.5920349 L21.171785,39.3772048 C20.8185917,38.5503437 20.4800782,37.7199553 20.2956948,37.1412113 C19.4338156,36.1859652 18.8765976,34.9596315 18.4805492,33.8848562 Z" id="Path" fill="#D01D32"></path>
                <path d="M28.2249538,49.9202705 C28.7860176,49.8787651 29.5573659,50.345101 30.058093,50.5371943 L33.8095366,50.5541791 C34.5215867,50.7561963 34.9127497,49.9920312 35.5838486,49.9211607 L35.8498061,49.9303237 L33.8779627,53.7914564 C33.412888,54.6873776 32.9849925,55.494229 32.7275899,55.9377565 C32.4148116,55.8072327 32.5940424,55.2910594 32.2435795,55.1776942 C31.4782697,55.0388401 31.7015992,55.9201685 31.401754,56.0320057 C30.4310307,54.3822406 28.9863564,51.6756296 28.2249538,49.9202705 Z M28.8724432,16.8471035 L29.0684493,16.9972346 C29.4981508,17.3768403 30.0514805,17.4181473 30.5749735,17.2172063 C31.110635,17.0115935 31.7514004,17.3326657 32.4665343,17.1772184 L32.8179852,17.1017104 C32.9272428,17.0850149 33.0324087,17.0824287 33.1448863,17.1108578 L33.3205116,17.1788761 C33.8157002,17.4359619 34.4666704,17.4187126 34.9189596,17.0521739 L35.1627123,16.8359302 C35.2947256,16.722925 35.4406604,16.6226598 35.5947405,16.6254273 L37.1099299,16.6526329 C37.9149745,16.7674416 38.7503031,16.9693509 39.4458791,17.3947951 L40.7692308,18.1863285 C41.8880834,18.8664367 42.9591384,19.6505914 43.3227974,20.9348238 C43.3769998,21.1570584 43.0520483,21.5052794 43.1801537,22.2219117 L43.2510557,22.5083915 C43.3305041,23.0546776 44.1669578,24.5748553 43.7061868,25.0591892 C43.004111,25.8163123 42.0574826,26.3046162 41.1042807,26.7772035 L40.6282338,27.0133592 C39.2050602,27.7249279 37.8563387,28.4960476 37.3852492,30.1809394 C37.0559587,31.2757434 36.8751249,32.6785305 36.7566788,33.8101796 L36.7386174,35.3409247 C36.7376453,36.0343568 36.756096,36.7621863 36.837093,37.0780535 L36.8876389,37.2027119 L37.0047028,36.839803 C37.4491464,35.2230241 37.138897,33.2869224 38.2858214,31.9789791 L38.57737,31.6887281 C39.1760268,31.1797078 40.5775758,31.4863664 41.5949445,30.3993283 C42.3867712,29.5532782 42.733752,28.0092413 42.4409355,27.9081469 C41.8081617,27.6896875 41.1406696,28.0887974 40.4531451,28.0590514 C41.1072368,27.6696394 41.7853262,27.3930124 42.5351088,27.2882145 C42.8587795,27.2220379 43.1350998,27.2641412 43.4165159,27.1713156 L43.6293528,27.0725971 C43.6829246,27.0398689 43.8047725,27.0157848 43.8583442,27.0387605 C44.1148701,27.1281493 43.858958,28.4637102 43.8881282,28.6500014 C43.7971081,31.2757857 42.9679626,33.8111743 41.6385106,36.0682023 C40.547113,38.2363856 39.5821168,40.4903133 38.8725479,42.8140674 C38.5940999,42.5820461 38.7283021,40.7659756 38.7199822,40.1693523 L38.7151512,40.0147439 L38.7704147,39.6805758 C38.0205322,39.9491354 37.9371872,40.7533314 37.9557439,41.4687999 L37.9744622,41.9267299 L37.9632926,45.8260391 C37.9125322,47.0186002 37.170789,48.1117426 36.1390853,48.622472 L33.581471,49.7101042 C33.4266489,49.7758181 33.0395136,49.7147001 32.8846526,49.7066917 C32.3305575,49.3650661 32.3859219,47.5154313 32.5119354,46.8917963 C33.0793287,44.553372 34.9209022,46.1437738 35.607312,43.7755435 L35.6953137,43.2484998 L35.7493544,42.7979593 C35.8038648,42.175366 35.7640772,41.5149178 35.3405284,41.4122433 C34.3993253,41.8156483 34.7003706,42.8569828 34.2532751,43.231379 C32.8280935,44.3241646 29.5886638,44.338863 29.4146162,42.087093 C29.3499041,41.857025 29.0132675,41.4904652 28.7938716,41.4480065 C27.7748453,41.4282062 28.4465417,44.2281722 28.9067907,44.665941 C29.3206263,45.2419246 30.2999655,45.4129795 30.9154414,45.6926583 C31.7441618,46.5935666 31.7538597,48.5587852 31.1662251,49.5657611 C30.5066275,50.1897568 28.6941228,48.8881832 28.0225022,48.7253571 C26.7013548,48.151607 26.4624707,47.2144734 26.0554275,45.8550541 C25.9471589,45.3955961 25.867759,44.9515031 26.0759492,44.5086913 C25.9451026,43.4023589 26.4947783,40.4356059 25.3621715,39.7383783 L25.3531729,42.8558048 C25.0459164,42.6515482 25.0997906,42.3878323 25.0260843,42.1328565 C24.4757338,40.1574682 23.4543403,38.0808662 22.4850509,36.1451637 L21.9646594,35.1047547 C21.8798368,34.9341672 21.796231,34.7651079 21.7142349,34.5977589 C20.4950689,32.2195124 20.1451448,29.5063472 20.0148529,26.8667313 L20.614619,27.2486411 L21.572307,27.2905662 C21.9312843,27.3152755 22.8164343,27.6827338 23.1668267,27.791848 C23.2949282,27.8368523 23.4259838,27.9446641 23.5250607,28.0927592 L21.7743617,27.7709392 C21.2327473,28.5033551 22.0044245,29.9632877 22.6285595,30.5730691 C23.4135886,31.3400367 25.0470301,31.2447647 25.5868624,31.7799042 C26.5477415,32.701119 26.705202,34.132489 26.9198936,35.3718583 C27.0806475,36.2854837 26.8874291,36.8705196 27.1812737,37.2043786 C27.3926771,36.8873916 27.3551811,36.5983747 27.3650191,36.2512062 C27.4643535,34.6170328 27.3456491,32.9620521 26.993599,31.3641313 C26.7572492,28.8023284 25.215422,27.8803154 23.5043697,27.0209713 L23.1070246,26.8230557 L22.7067747,26.623058 C21.7718827,26.1506174 20.8386094,25.6259977 20.0843487,24.8029755 L20.8325353,22.3928509 C21.1069181,20.9625779 20.3862466,20.5213754 21.7215545,19.2693913 C23.276542,17.9954311 24.9829726,16.8135679 27.0131552,16.6211719 L27.5275454,16.5942061 C28.0297145,16.5468757 28.4731933,16.5853333 28.8724432,16.8471035 Z M22.4756305,28.5958636 C22.4536768,28.852863 22.4688646,29.1838059 22.6696337,29.3700054 L23.94039,30.5485318 C23.2566978,30.5099054 22.854977,29.9628724 22.5033413,29.4322485 L22.2906705,29.1410559 C22.1459902,28.9406846 22.0208142,28.7226493 22.0669666,28.45588 C22.104899,28.3365663 22.4892037,28.4369561 22.4756305,28.5958636 Z M41.9486603,28.4335466 L42.093685,28.4882625 C41.9460625,28.842391 41.503875,29.5277568 41.2749639,29.8396092 C41.0704763,30.1401703 40.742505,30.4008617 40.330672,30.4467214 L41.3278046,29.4004682 C41.5617363,29.2159383 41.528683,28.5122055 41.833654,28.4346395 L41.9486603,28.4335466 Z M3.41284922,18.9536274 L6.37192725,18.9713609 C7.7075526,19.1114423 9.41811287,19.3940337 10.7411552,19.6630614 C12.8478758,20.062032 14.8252946,20.821448 16.8466094,21.5472382 L18.4677695,22.0437672 C19.5326506,22.3890038 19.1547343,23.6402763 18.5773425,24.3235819 L18.4353285,24.480075 L17.9930426,25.0232593 C17.8571266,25.1123359 17.5216576,24.9896432 17.3412223,24.9544936 L16.9650244,24.9027235 C16.7702104,24.8765057 16.5779478,24.8375723 16.4450447,24.7309481 L14.7925021,23.4051502 C12.5223311,21.6161961 9.15097828,21.2689632 6.42261906,20.5607989 C6.11719226,20.4932016 5.78259086,20.5084917 5.68376705,20.8551223 C8.09303451,23.329534 10.9263636,25.721649 14.4344559,26.3229274 L14.7771329,26.3597001 C15.002031,26.381952 15.2174087,26.424455 15.4087804,26.6358731 C11.9331582,27.3481248 8.5035373,25.3745979 6.15362187,22.9049702 L4.92871854,21.5828932 L4.5738681,21.1823836 C4.46729816,21.0581348 4.37596194,20.9464602 4.31042,20.8573188 C4.21060683,20.6601562 3.07287072,19.4254912 3.14677012,19.1799444 C3.16535453,19.0966584 3.31160403,18.9949018 3.41284922,18.9536274 Z M60.7082994,18.9542782 L60.858847,19.0343696 C60.9371509,19.0874244 60.9597121,19.1538725 60.8568089,19.3181476 C57.9938309,23.2584439 53.9536024,27.4269945 48.5979898,26.6829593 C48.7129916,26.5625054 48.9033619,26.4255772 49.0137785,26.4098621 C50.2451712,26.2345615 52.0126725,25.6711071 53.0265051,25.0552009 C53.7947161,24.6141659 55.4292933,23.5939712 56.0825773,23.0134623 C56.8213491,22.2634425 57.82614,21.5088543 58.4788535,20.6787238 C58.5325548,20.6003141 58.3748854,20.3486266 58.2941557,20.3672586 L57.9031239,20.4575036 L57.0084268,20.6831962 C56.5461912,20.7391091 54.1812058,21.3370719 53.6778528,21.4578433 C52.3052693,21.7933388 50.9823073,22.2234917 49.8121613,23.015001 C49.0887396,23.5043347 48.4497607,24.0136944 47.8417385,24.6210218 C47.3884485,25.0288392 46.6657481,24.9262325 46.1103399,25.0495602 L45.4731256,24.2089113 C45.0408322,23.601102 44.7156085,22.916624 45.2296791,22.2639857 C45.4651507,21.9980794 47.4301594,21.4743925 47.7811169,21.3182459 C50.4973287,20.2689348 53.4190025,19.4754617 56.3134002,19.1050212 C56.6885346,18.9827299 58.0074094,18.9590417 59.1257561,18.9557247 L60.7082994,18.9542782 Z M39.3186813,12.2373734 C41.2728291,12.7374594 43.1361182,13.7383652 44.4248505,15.2614818 C44.5920678,15.4288288 44.3832692,15.8541813 44.2962965,16.0348432 C44.0206325,16.5435575 43.5472132,17.8309874 43.0565719,18.1866219 C41.5678844,16.7891141 39.7640502,15.7112738 37.7829764,15.1708921 L37.7618831,14.8471946 C37.7568752,14.7384117 37.7601731,14.63958 37.7906241,14.5832037 C38.2011494,13.9156631 38.6468834,12.6909543 39.3186813,12.2373734 Z M24.7557885,12.2702735 L25.3298789,13.104386 C25.7256584,13.6854128 26.1198918,14.3061482 26.34667,14.9054223 C25.6819641,15.5372574 24.6739618,15.5712608 23.8642366,15.9818856 L23.5309298,16.1837672 C22.7646191,16.6346093 22.0540388,17.1047078 21.3682691,17.6600507 L20.8497705,18.1589102 C20.1900601,17.6414028 19.8730088,16.4770254 19.5218352,15.7529794 C19.9121678,13.8724514 22.9472174,12.4999377 24.7557885,12.2702735 Z M22.6417721,8.90718203 C23.1703829,9.515564 23.9330659,10.5813001 24.2444932,11.3274232 C23.1418687,11.4834253 20.7920121,12.6548577 20.1050803,13.3227105 L18.9253432,14.4696657 L18.2428722,13.0650383 C18.1665885,12.8397769 17.6408778,12.1844259 17.7911262,11.9398209 L18.4474168,11.2654844 C19.6843004,10.0136235 20.554916,9.32619063 22.6417721,8.90718203 Z M41.3454199,8.98382641 C41.759632,9.13857981 42.1180327,9.18167861 42.5463295,9.13126544 C43.8980632,9.76011531 45.194459,11.1107785 46.2448247,12.1478285 L45.00255,14.4296143 C43.6998883,12.8634791 41.564046,11.9558005 39.7093895,11.2780497 C40.0501863,10.8769964 40.9011603,9.2226188 41.3454199,8.98382641 Z M16.4967188,2.87570214 L15.9005218,3.25304877 L15.1589952,3.74807031 C14.7800548,4.00967961 14.4099652,4.28094656 14.1437507,4.51016549 L13.9156805,4.7234534 C13.4201956,5.1596668 13.2967119,5.86658248 13.9461857,5.67290728 C15.0248928,4.74585856 16.2451609,3.91391431 17.4666944,3.25224544 C18.3798198,3.28665253 19.1122031,4.28350477 19.7135132,4.83449428 C18.7992635,5.57166121 15.2393701,7.36118055 15.5683907,8.47772747 C15.6105098,8.69548146 15.9293917,8.74196541 16.1411663,8.59065713 C17.4316965,7.71764923 19.0670541,6.10288826 20.5770604,5.83374144 C20.9600416,6.36794978 22.1258122,7.55112582 22.2774864,8.19373764 C20.303227,8.27658711 18.6628317,10.1812476 17.2815187,11.3928461 L16.4157685,9.94537049 C16.0777079,9.387335 15.7307274,8.83916455 15.4964991,8.55708509 C15.2440691,8.34941074 14.8810399,7.86692325 14.6606106,7.59379431 L13.4390401,6.36791804 C11.455723,4.39189238 8.65461068,6.15892013 7.33731579,8.05365619 C7.23474265,8.1824191 6.9878458,8.27069946 6.90654562,8.15089191 C7.24213285,6.77870177 8.9087055,5.03088713 10.0123687,4.25036304 C11.7707418,2.75807965 14.2917882,1.96090313 16.4967188,2.87570214 Z M54.5690624,4.71287379 L55.2017158,5.34149796 C56.0459135,6.19401627 56.8500286,7.11904038 57.1014053,8.29770752 C56.9084725,8.23593261 56.7294684,8.12207796 56.6058233,7.97054306 C55.8935852,7.09764803 55.0612327,6.34892536 54.048907,5.84424786 C52.7794532,5.22329887 51.3519597,5.5561265 50.3639267,6.51883211 L48.8726368,8.10283389 L48.6433433,8.36774671 C48.6134926,8.40441064 48.5884383,8.43674686 48.5691009,8.46387999 C47.9653289,9.29528459 47.1724581,10.5213707 46.6299566,11.3925004 C45.1262153,10.2574396 43.6540118,8.5779877 41.7377639,8.07270177 C41.9067192,7.48830071 42.9132702,6.45076134 43.2634315,5.95025995 C43.4265045,5.74539054 43.8247696,5.82730356 44.0129663,5.93714434 C45.1379686,6.59611231 46.796905,7.84464153 47.8085632,8.64792614 C48.0234109,8.74596429 48.4782298,8.46364808 48.5160115,8.21545325 C48.403026,7.81064903 48.0793071,7.54213197 47.7565262,7.30702461 L46.7721219,6.59719844 C46.010742,6.05745916 45.0721739,5.41179726 44.5199152,5.04921847 C43.9078106,4.77423677 44.6367339,4.36603169 44.9314917,4.12382766 L45.3725812,3.75015122 C45.6850418,3.49410376 46.0145409,3.27075679 46.4552159,3.25185834 C47.6957156,3.83625941 48.8219877,4.74747399 49.877563,5.64361893 C50.1952501,5.85206749 50.4965536,5.57162506 50.3589906,5.24217855 C49.6564723,4.19592013 48.4726341,3.52086584 47.4338937,2.87107985 C49.8554426,1.80110329 52.7331676,3.01951441 54.5690624,4.71287379 Z" id="Combined-Shape" fill="#FFFFFF"></path>
            </g>
        </g>
    </g>
</svg>