<?xml version="1.0" encoding="UTF-8"?>
<svg width="40px" height="40px" viewBox="0 0 40 40" version="1.1" xmlns="http://www.w3.org/2000/svg" xmlns:xlink="http://www.w3.org/1999/xlink">
    <title>DataGOAT Logo Login Mike3</title>
    <defs>
        <path d="M18.5,0 C8.28273337,0 0,8.28273337 0,18.5 C0,28.7172666 8.28273337,37 18.5,37 C28.7172666,37 37,28.7172666 37,18.5 C37,8.28273337 28.7172666,0 18.5,0 L18.5,0 Z" id="path-1"></path>
    </defs>
    <g id="DataGOAT-Logo-Login-Mike3" stroke="none" fill="none" fill-rule="evenodd" stroke-width="1">
        <g id="Group" transform="translate(1.5, 1.5)">
            <path d="M3.22073171,38.5 L3.2199873,31.404977 C0.275276657,27.9218512 -1.5,23.4182446 -1.5,18.5 C-1.5,12.2663828 1.35184584,6.69884991 5.82200711,3.03093172 C7.0505005,-0.319851922 10.482639,-2.07546013 13.4527716,-0.858606402 C15.0648755,-1.27687459 16.7563809,-1.5 18.5,-1.5 C20.2284226,-1.5 21.9056359,-1.28074694 23.5053445,-0.868536195 L23.4619342,-0.85101365 C26.0666858,-1.94804743 29.0987455,-0.666966802 30.5778793,1.79511698 L30.6404533,1.91041292 L31.066779,2.7851455 C31.1056061,2.86481424 31.1416648,2.94614936 31.1753194,3.02934544 C35.6468805,6.6963637 38.5,12.264991 38.5,18.5 C38.5,23.450832 36.7011201,27.9815132 33.7213255,31.4740781 L33.7207317,38.5 L3.22073171,38.5 Z" id="White-outer" fill="#FFFFFF"></path>
            <g id="Red-Cirlce" stroke-linejoin="square">
                <path stroke="#FFFFFF" stroke-width="3" d="M20.3158702,1.59360472 C28.8703967,2.46430603 35.5,9.75849295 35.5,18.5 C35.5,27.8888395 27.8888395,35.5 18.5,35.5 C9.11116049,35.5 1.5,27.8888395 1.5,18.5 C1.5,9.11116049 9.11116049,1.5 18.5,1.5 Z" fill="#D01D32" fill-rule="evenodd"></path>
                <path stroke="#000000" stroke-width="1.75" d="M20.3473898,0.969400014 C29.2518499,1.87483001 36.125,9.436978 36.125,18.5 C36.125,28.2340175 28.2340175,36.125 18.5,36.125 C8.76598252,36.125 0.875,28.2340175 0.875,18.5 C0.875,8.76598252 8.76598252,0.875 18.5,0.875 Z"></path>
            </g>
            <path d="M30.1909936,2.12946987 L30.6173155,3.00419467 C30.7040782,3.18222163 30.776123,3.37276624 30.8381253,3.57797933 L30.8877802,3.75795602 C30.9798249,4.11669564 31.0709875,4.59472196 31.0549998,4.54826646 C31.0059942,4.40587059 30.9457519,4.29153452 30.7672294,4.1452411 L29.5,3.5 L28.25,3.5 C27.9955846,3.30212125 26.2865911,3.50623018 26,3.5 C25.9415029,3.49872833 26.3433155,3.7376294 26.7066649,3.9461027 L27.25,4.25 L26.9069154,4.81035401 L26.7381848,5.05517373 L26.595027,5.33344073 L26.4027381,5.67414318 C26.311062,5.84397524 26.192211,6.0835383 25.9400874,6.60141383 C26.3354116,6.52604416 26.7582386,6.46490447 27.2164025,6.4120671 C28.0146454,6.25541647 28.9423382,6.20759566 30.1010842,6.22529124 L30.5644344,6.2417398 L30.5444994,6.25368324 L30.6538952,6.22029482 L30.8821556,6.2217455 C31.423437,6.23081659 31.7794369,6.27739591 32.1366748,6.53256822 C32.5957766,6.8604999 32.6632762,7.31197091 32.5628397,7.75309989 C32.5230292,7.92795214 32.4553303,8.09387084 32.3629317,8.27438043 L32.2564729,8.46933612 L32.1580782,8.63327265 C32.1225487,8.69119986 32.0886382,8.74561586 32.0693974,8.77614195 C31.9968381,8.92046768 31.8844344,9.10785989 31.7619736,9.29904526 L31.7058368,9.38484104 C29.9751075,11.9678111 27.9631799,13.2481888 25.3407549,13.0638251 C25.2818285,13.374841 25.2001084,13.726398 25.0926392,14.1516475 L25.2753927,14.8133713 C25.3691992,15.1645428 25.4666537,15.5459361 25.5677718,15.9564585 L25.7753874,16.8182311 C25.846061,17.1176378 25.9182455,17.4292585 25.992069,17.7532877 L26.3660783,19.4341909 C26.4772576,19.945762 26.5996198,20.5179745 26.7524003,21.2377469 L26.8631049,21.2342686 L26.9658356,22.151448 L27.0062164,22.583871 C27.0428851,23.0524131 27.0680871,23.6184233 27.0788429,24.1838995 L27.0824673,24.8398138 L26.9886619,27.3468681 L26.9849364,27.688502 C27.0090182,27.7813129 27.0236187,27.8700173 27.0360844,27.9760885 L27.0562396,28.1872465 C27.0624223,28.2661393 27.0680942,28.3535973 27.0733301,28.4497958 L27.1022735,29.2255253 C27.1121257,29.6149506 27.118537,30.0718293 27.1213084,30.5810631 L27.1222865,31.5238383 L27.1127512,32.7752841 C27.1056126,33.3671272 27.0948111,33.9650873 27.0805787,34.5517948 L27.0374006,36.0468402 L26.4662889,36.3029104 C26.1136746,36.4610126 25.7562736,36.608596 25.3958742,36.744914 C25.1698182,36.8307966 24.9408384,36.9125814 24.6964067,36.994535 L24.2579479,37.1356095 L23.8582224,37.2542261 L23.3692775,37.3868057 L22.9502845,37.4894549 L22.4438038,37.6006278 L21.948884,37.6956327 L21.394581,37.7864185 L20.9811343,37.8434477 L20.5042504,37.8980717 L19.9491412,37.9468783 L19.5853717,37.9702589 L19.3399812,37.9821903 L19.0545258,37.9922594 C18.8703556,37.9974132 18.685278,37.9999143 18.4867442,37.9999143 L17.9692749,37.9929027 L17.8150253,37.9881828 C17.5986564,37.9807064 17.3827667,37.9696879 17.1616772,37.9547391 L16.9259793,37.937219 L16.3005769,37.8771505 L15.7464748,37.8069134 L15.3115182,37.7403631 L14.8108077,37.6513055 L14.2278571,37.5302861 L13.7722458,37.4226641 L13.424392,37.332544 L12.9452707,37.1971281 L12.6050064,37.0927416 L12.1721705,36.9500509 L11.9659151,36.8780405 C11.3716354,36.666725 10.7889022,36.4268448 10.2191373,36.1592282 L9.68039578,35.906183 L9.6312611,35.0228686 C9.59804095,34.255649 9.61265448,33.4930831 9.68085766,32.1325241 L9.8108851,29.7609659 L9.86134958,28.7048512 L9.88854414,27.8933826 C9.91131691,26.9875194 9.90216544,26.2169403 9.85495233,25.5008845 C9.83550135,24.8726209 9.92273373,23.7134127 10.0559433,22.4658619 C10.3180778,20.9498164 10.7661009,18.8147411 11.1571263,17.2240452 L11.2919789,16.6925345 L11.9619691,14.2310379 L11.8124832,13.5633651 C11.7740763,13.3827782 11.7380033,13.2065899 11.709068,13.0566502 C9.2635793,13.2647219 6.94806424,11.8503016 5.45057115,9.54540527 L5.28609208,9.28047619 L5.14257668,9.02157545 L5.01019667,8.80666995 L4.79844155,8.48629083 C4.03910886,7.36579127 4.48056571,5.9972227 5.68192905,6.08265513 L6.25,6.2 L7.24784567,6.2190791 L8.07028288,6.23323651 C8.40231082,6.2393793 8.66421748,6.25222122 8.89336809,6.27774149 L9.05967312,6.29935231 C9.62415214,6.37366681 10.2715843,6.41474086 10.75,6.5 L10.25,5.25 L10.038014,4.89036133 C9.95245143,4.75341114 9.85593897,4.61158594 9.77793994,4.53199509 C9.66858079,4.42040411 10.4849437,3.93896193 10.8685234,3.75568759 L10.9609998,3.71335452 L10.8435875,3.60597897 C10.3288954,3.1511886 9.88103291,2.94919561 9.5,3 C9.08580287,3.05522628 8.58580287,2.72189295 7.5,3.5 L5.75,5 L6.03474211,4.07934274 C7.05498097,-0.47733955 12.1741036,-2.49480983 15.314197,1.11665981 L15.3979872,1.22778928 L16.2358151,2.5168883 L16.5097243,2.92456857 C16.6696734,3.16240783 16.983957,3.65909131 17.1069269,3.86862803 L17.1842532,3.98641749 L17.7457103,4.9628894 L17.8744723,5.18242895 C17.9519517,5.19975703 18.0570568,5.20478821 18.1909033,5.20365355 L18.4822679,5.19406121 L19.0062504,5.16466577 C19.0359657,5.16324032 19.0635875,5.16203223 19.0894592,5.1610434 C19.2012159,5.0124262 19.3175382,4.82561787 19.4219759,4.64133662 C19.5779914,4.34410765 19.7738028,4.00966901 20.0275184,3.60039087 L20.6932139,2.55298848 L21.1510236,1.90947448 L21.4910459,1.41672814 C21.5400356,1.34309069 21.5827862,1.27702594 21.6189383,1.21896897 L21.8927289,0.911435277 C22.3463246,0.348254113 22.9313877,-0.0716405218 23.6560072,-0.39021471 C26.0133905,-1.38306527 28.7900455,-0.209896106 30.1909936,2.12946987 Z" id="Path" fill="#FFFFFF" fill-rule="nonzero"></path>
            <g id="GOAT" transform="translate(5.3985, 0.2527)">
                <path d="M18.6456539,0.27869993 C20.6156325,-0.550988791 22.8470537,0.57291996 23.8935747,2.31490054 L24.3198891,3.18960977 C24.6111859,3.78731716 24.6583655,4.60331263 24.7348966,4.66602745 L23.5121502,3.712044 C23.077128,3.37369326 22.4807974,3.17023838 21.9930244,3.15963472 C21.675389,3.15272962 21.254177,3.24940141 20.9917824,3.58084705 L20.847277,3.76829033 C20.6909224,3.97625116 20.5830476,4.13604956 20.5830476,4.13604956 C20.5200196,4.18447814 20.4094059,4.43475912 20.304321,4.62867345 L20.259778,4.70757575 C19.8403641,5.4141198 19.0782702,7.18270645 18.6193615,7.88528916 C18.6810649,7.90404942 18.7721813,7.91045855 18.8405692,7.88188733 C19.8423249,7.45373127 20.9313901,7.26749312 22.0104744,7.14066687 C22.8337121,6.97911115 23.8297351,6.95935062 24.6689814,6.97204325 L25.1281103,6.98748029 C25.2473686,6.98910554 25.3529548,6.98547886 25.4065535,6.96855334 L25.4669,6.96892187 C25.6177137,6.97144928 26.0094922,6.98829957 26.1569351,7.09361695 C26.341242,7.22526547 25.8758203,7.90120674 25.7954646,8.03695812 C25.7731579,8.0959767 25.6328323,8.33305789 25.5263223,8.49939163 L25.4765881,8.57551098 C23.9098869,10.9136828 22.0197706,12.2903673 19.0676582,11.6838911 C19.0544213,12.3651004 18.8288028,13.2537386 18.6577271,13.9161235 C19.2656046,15.9645012 19.9832772,19.3430535 20.4275653,21.4323652 L20.481989,21.6424098 C20.5005974,21.7147839 20.5152444,21.7870992 20.5126447,21.8521008 C20.5625478,21.8807471 20.5338574,22.0113231 20.5735507,22.010076 C20.6325683,22.5369849 20.6680192,23.2922988 20.6803682,23.9382399 L20.6846639,24.5498304 L20.5902908,27.0781693 C20.5817471,27.4143315 20.5804241,27.6451246 20.5930556,27.6443273 C20.6696177,27.639492 20.7142105,28.7528161 20.7228097,30.3294573 L20.7238161,31.2635438 L20.7143246,32.51054 C20.703988,33.3675187 20.6855668,34.2649471 20.6586611,35.1377503 C18.3512607,36.1723226 15.7935292,36.7473168 13.1015006,36.7473168 C10.2927726,36.7473168 7.6302375,36.1213901 5.24577426,35.0014156 C5.15794272,33.4862816 5.30611473,31.5332699 5.41124713,29.5559894 L5.4620135,28.493067 C5.50845858,27.3584144 5.52412974,26.2402497 5.45597406,25.2172562 C5.43461405,24.5273311 5.57046902,23.072707 5.64282261,22.3835572 C5.89856858,20.9044593 6.34071758,18.7925291 6.72798522,17.217013 L6.85837258,16.7024943 C6.96756371,16.3013499 7.59538264,13.9947696 7.59538264,13.9947696 L7.50628969,13.6210884 C7.4244558,13.2628554 7.33117573,12.8231441 7.28291097,12.5689665 L7.19823682,12.0176389 C7.19190655,11.9735114 7.18655351,11.9342119 7.18277453,11.903021 C7.20077036,11.6880162 7.14358744,11.6373878 6.97886333,11.68587 L6.90248912,11.7101474 L6.63492618,11.7546936 C4.26195313,12.1696128 2.14291485,10.6754436 0.899504026,8.76181844 L0.760667197,8.54020607 L0.59523154,8.2439765 C0.523039527,8.12141417 0.413903973,7.94729152 0.227763239,7.67261533 C-0.206565142,7.03170421 0.0487936975,6.74942851 0.423163668,6.8709773 C0.813874283,6.99783135 1.02933016,6.96331486 1.15126519,6.96367186 L1.80933636,6.96559514 C2.33380649,6.98659598 3.01293373,6.96082737 3.53064856,7.03811406 C4.05637623,7.10732689 4.61646484,7.18921443 5.15587891,7.28826488 L5.68636313,7.39320252 C6.35729225,7.48145275 6.95663197,7.82925961 7.60645196,7.92648767 C7.40129457,7.62062195 7.24585054,7.29720949 7.10189678,6.96928376 L6.81798425,6.31127633 C6.7532636,6.16543153 6.68577914,6.02041155 6.61217521,5.87736062 L6.16963412,5.07002512 C6.05866236,4.87227965 5.95807252,4.7064315 5.94048238,4.72719152 C5.90958864,4.55828598 5.53404261,4.02876003 5.09365345,3.5793833 C4.65326429,3.13000656 3.84654084,2.93341383 3.0094384,3.59659209 L1.51038575,4.62439144 L1.57042186,4.26805592 C1.58647984,4.18014233 1.60195948,4.09806814 1.61208196,4.0451494 C2.41258689,0.469862506 6.46719741,-1.57813442 9.16105948,1.52011779 L10.0072653,2.82189339 L10.2814191,3.22993761 C10.4388038,3.46396351 10.745241,3.94962154 10.8913167,4.19242529 C11.0424196,4.40660056 11.540568,5.38947405 11.7907709,5.66459879 L11.8478118,5.71778079 C12.1921464,6.12849415 13.5165309,5.86076756 13.9986153,5.91382339 C14.2903568,5.90852247 14.7240741,5.18119524 14.9089109,4.85341783 C15.0664522,4.55328195 15.2672554,4.2160802 15.4739979,3.88250742 L16.0747207,2.93337088 C16.1529748,2.80395354 16.7579349,1.9949267 17.0693139,1.49487946 C17.1429255,1.46098963 17.2054926,1.39978657 17.2480852,1.31508581 C17.6189711,0.845134555 18.1002512,0.518582301 18.6456539,0.27869993 Z" id="Path" fill="#000000"></path>
                <path d="M8.30847227,15.1397557 C8.4594348,15.6135979 8.86278281,16.4995039 9.06182151,16.9617945 C9.56202289,18.2466334 9.74546095,19.5934771 10.4516592,20.7998637 C10.9645424,21.62868 11.4831784,22.6820573 11.9982076,23.4970811 C12.1619068,23.7063253 12.5764811,24.6409723 12.8620384,24.9320804 C13.1475958,25.2231885 13.7682064,25.5892715 13.8669527,25.4062302 C13.965699,25.2231888 13.6773961,24.65942 13.7533724,24.4034771 C13.8293473,24.1475339 14.0311424,23.7449959 14.2453417,23.4398542 C14.8643099,22.4236013 15.6043893,20.9726353 16.1823159,19.9331956 C16.7068564,18.4563902 17.2131872,16.5371959 17.9790753,15.1515798 C18.2139985,15.7470487 18.422861,16.8145352 18.5968708,17.6186942 L19.0411255,19.5864542 L19.1445297,20.0644518 C19.2281408,20.4580313 19.3027129,20.8298164 19.3484349,21.1054469 L19.4475668,21.7357827 L19.5564368,22.5431783 C19.7921068,24.3894238 20.1121327,27.4332513 20.0984649,28.2340488 L19.641285,35.5581947 C17.6080167,36.3267295 15.4038754,36.7473168 13.1015006,36.7473168 C10.9271418,36.7473168 8.84039621,36.3722 6.90244806,35.6831506 L6.5964718,25.6955272 L6.70596906,22.5778227 L6.81357081,21.7203514 L6.84428872,21.5067501 L7.01066408,20.5188637 C7.03305271,20.3871452 7.05555613,20.2581168 7.0779584,20.1370999 C7.47751003,18.6362925 7.77588778,16.5954606 8.30847227,15.1397557 Z M11.5544823,20.3711341 C11.7841656,20.354143 12.0999334,20.5450474 12.3049166,20.6236849 L13.8406495,20.630638 C14.1321422,20.713338 14.2922731,20.4005108 14.5670016,20.3714985 L14.675877,20.3752496 L13.8686612,21.955886 C13.678273,22.3226503 13.5031049,22.652952 13.3977317,22.8345194 C13.2696893,22.7810867 13.3430612,22.5697802 13.1995918,22.5233717 C12.886296,22.4665289 12.9777207,22.8273193 12.8549727,22.8731022 C12.4575866,22.197736 11.8661786,21.0897275 11.5544823,20.3711341 Z M11.8195458,6.83193308 L11.899785,6.89339244 C12.0756924,7.04879208 12.3022097,7.06570198 12.5165126,6.9834425 C12.735797,6.89927056 12.9981078,7.03070828 13.290863,6.96707261 L13.4347369,6.93616182 C13.4794638,6.92932718 13.5225157,6.92826845 13.5685608,6.93990649 L13.6404567,6.96775125 C13.8431727,7.07299477 14.1096611,7.06593336 14.2948153,6.91588302 L14.3946006,6.82735909 C14.448643,6.78109801 14.5083845,6.74005231 14.5714605,6.74118527 L15.1917353,6.75232245 C15.5212974,6.79932183 15.8632568,6.88197767 16.1480056,7.05614226 L16.6897476,7.38017322 C17.1477736,7.65858988 17.5862326,7.97960023 17.7351041,8.50532794 C17.7572931,8.59630438 17.6242673,8.73885602 17.6767099,9.0322246 L17.7057352,9.14950119 C17.7382591,9.37313496 18.0806791,9.99545186 17.8920527,10.1937242 C17.1256271,11.0202425 15.6472884,11.0642057 15.3044431,12.2904211 C15.1696411,12.7386023 15.0956129,13.3128628 15.0471245,13.7761274 L15.0397307,14.4027703 C15.0393327,14.6866414 15.0468859,14.9845938 15.0800438,15.1139007 L15.1007358,15.1649323 L15.1486584,15.0163678 C15.3306008,14.3545052 15.2035936,13.561921 15.6731114,13.0264867 L15.792463,12.9076663 C16.0375358,12.699288 16.6112896,12.8248253 17.027771,12.3798232 C17.351922,12.0334747 17.4939659,11.4013905 17.3740953,11.3600054 C17.115056,11.2705744 16.8418039,11.4339584 16.5603512,11.4217813 C16.8281175,11.2623672 17.1057078,11.1491241 17.4126472,11.1062229 C17.5451486,11.0791321 17.6582662,11.096368 17.7734698,11.0583679 L17.8605991,11.0179553 C17.8825298,11.0045574 17.9324109,10.994698 17.9543416,11.0041036 C18.0593559,11.0406968 17.9545928,11.587437 17.9665343,11.6636992 C17.9292733,12.7386196 17.589845,13.7765346 17.0456057,14.7004968 C16.598819,15.5880885 16.2037774,16.5107815 15.9133003,17.4620594 C15.7993118,17.3670766 15.8542502,16.6236297 15.8508443,16.3793893 L15.8488667,16.3160971 L15.8714899,16.1792983 C15.5645097,16.2892389 15.5303906,16.6184535 15.5379872,16.9113457 L15.5456499,17.098809 L15.5410774,18.6950738 C15.5202976,19.1832739 15.2166493,19.6307749 14.7942995,19.8398528 L13.747286,20.2850981 C13.6839063,20.3119994 13.5254243,20.2869795 13.4620286,20.2837011 C13.2351981,20.1438494 13.2578626,19.3866623 13.3094489,19.1313641 C13.5417234,18.1740806 14.2956105,18.8251452 14.5766069,17.85566 L14.6126322,17.6399035 L14.634755,17.4554652 C14.6570699,17.2005935 14.6407821,16.9302251 14.4673934,16.8881931 C14.082092,17.0533354 14.2053312,17.4796278 14.0223032,17.6328948 C13.4388749,18.0802497 12.1127459,18.0862668 12.0414958,17.1644571 C12.0150045,17.0702738 11.8771952,16.9202148 11.7873808,16.9028335 C11.3702208,16.8947278 11.645194,18.0409531 11.8336067,18.2201631 C12.003019,18.4559542 12.4039322,18.5259791 12.6558903,18.6404715 C12.9951446,19.0092774 12.9991146,19.8137812 12.758554,20.2260082 C12.4885337,20.481454 11.7465466,19.9486273 11.4716044,19.881971 C10.9307648,19.6470943 10.8329725,19.2634588 10.6663408,18.7069517 C10.6220187,18.5188628 10.5895147,18.337064 10.6747418,18.1557896 C10.6211769,17.702889 10.8461983,16.4883859 10.3825417,16.202961 L10.378858,17.4791455 C10.253076,17.3955287 10.2751306,17.2875711 10.2449573,17.1831913 C9.95821492,16.1539788 9.35911741,15.05765 8.88918168,14.0985396 C8.3900903,13.1249541 8.24684146,12.0142625 8.19350371,10.9336798 L8.43903065,11.0900227 L8.83108049,11.1071856 C8.97803546,11.1173009 9.34039036,11.2677277 9.48383088,11.3123959 C9.53627197,11.3308194 9.58992233,11.3749544 9.63048155,11.4355803 L8.91379588,11.3038365 C8.69207456,11.6036664 9.00797695,12.2013207 9.26347981,12.4509477 C9.5848481,12.7649221 10.253532,12.7259205 10.4745237,12.9449911 C10.86788,13.3221099 10.9323397,13.9080715 11.0202283,14.4154336 C11.0860363,14.7894455 11.0069382,15.0289423 11.1272297,15.1656146 C11.2137722,15.0358492 11.1984224,14.9175341 11.2024498,14.7754133 C11.2431145,14.1064298 11.1945203,13.4289284 11.0504011,12.7747857 C10.8866622,11.0000149 9.19238134,11.147734 8.22195328,10.0888377 L8.52823928,9.10220219 C8.6405637,8.51668965 8.34554158,8.33607406 8.89217814,7.82354789 C9.52874518,7.30202532 10.2273087,6.81820461 11.0584069,6.73944322 L11.2689834,6.7284042 C11.474557,6.70902848 11.6561044,6.72477193 11.8195458,6.83193308 Z M9.20087509,11.6415367 C9.19188788,11.7467449 9.19810533,11.8822234 9.28029442,11.9584481 L9.8005054,12.4409028 C9.52062151,12.4250903 9.3561686,12.2011507 9.21221911,11.9839286 L9.12515782,11.8647228 C9.06592986,11.7826965 9.0146864,11.6934391 9.03357986,11.5842315 C9.04910831,11.5353879 9.20643159,11.5764846 9.20087509,11.6415367 Z M17.172572,11.5750889 L17.231941,11.597488 C17.1715086,11.7424579 16.9904898,12.023027 16.8967802,12.1506903 C16.8130688,12.2737314 16.6788068,12.3804509 16.5102143,12.3992245 L16.9184116,11.9709187 C17.0141765,11.8953774 17.0006454,11.6072895 17.1254918,11.5755362 L17.172572,11.5750889 Z M1.39712207,7.69428325 L2.6084833,7.70154283 C3.1552498,7.75888814 3.85550386,7.87457288 4.39711925,7.98470509 C5.2595499,8.14803212 6.06904818,8.45891514 6.89651618,8.75603272 L7.56017236,8.95929736 C7.99610398,9.10062731 7.84139593,9.61286218 7.60502841,9.8925878 L7.54689195,9.95665155 L7.36583284,10.1790155 C7.31019278,10.2154809 7.17286141,10.1652541 7.09899642,10.1508649 L6.94499186,10.1296716 C6.86524061,10.1189389 6.78653384,10.1030006 6.73212716,10.0593518 L6.05562385,9.51660833 C5.12628132,8.7842621 3.74614666,8.64211495 2.62923506,8.35221292 C2.50420214,8.32454053 2.36722597,8.33079984 2.32677035,8.47270044 C3.31305499,9.48565323 4.4729382,10.4649162 5.90905007,10.7110622 L6.04933213,10.7261159 C6.14139896,10.7352252 6.22956837,10.7526247 6.30791043,10.8391731 C4.88509091,11.1307485 3.48110299,10.3228434 2.51911537,9.31184905 L2.01767526,8.77062885 L1.87240972,8.60667176 C1.82878306,8.55580791 1.79139265,8.51009155 1.76456167,8.47359963 C1.72370103,8.39288693 1.25794467,7.88745068 1.28819696,7.78693089 C1.29580488,7.75283602 1.35567521,7.71117979 1.39712207,7.69428325 Z M24.8522274,7.69454965 L24.9138573,7.72733678 C24.9459126,7.74905588 24.9551485,7.7762578 24.9130229,7.84350732 C23.7410023,9.45655101 22.0870492,11.1630354 19.8946158,10.8584489 C19.9416943,10.8091385 20.0196264,10.7530841 20.0648277,10.7466508 C20.5689244,10.6748877 21.2924884,10.4442258 21.7075223,10.1920915 C22.0220057,10.0115445 22.6911545,9.5939062 22.9585901,9.3562626 C23.261022,9.04922614 23.6723544,8.74031945 23.9395565,8.40048799 C23.9615403,8.36838932 23.896995,8.26535569 23.8639466,8.2729831 L23.7038694,8.30992679 L23.3376062,8.40231886 C23.1483803,8.42520796 22.1802235,8.66999671 21.9741653,8.71943701 C21.4122692,8.85677921 20.8706866,9.03287141 20.3916626,9.35689251 C20.0955146,9.55721159 19.8339351,9.76572879 19.5850283,10.0143511 C19.3994645,10.1812998 19.1036118,10.1392956 18.8762437,10.1897824 L18.6153865,9.84564494 C18.4384181,9.59682533 18.3052809,9.31661978 18.5157265,9.0494485 C18.6121218,8.94059414 19.4165397,8.7262118 19.5602116,8.66228988 C20.6721504,8.23273215 21.8681994,7.90790717 23.0530824,7.75625951 C23.2066516,7.70619697 23.7465609,7.69649972 24.2043798,7.69514183 L24.8522274,7.69454965 Z M16.0959345,4.94484249 C16.8959062,5.14956331 17.6586831,5.55930528 18.1862529,6.18282531 C18.2547069,6.25133234 18.1692307,6.42545939 18.1336266,6.49941716 C18.0207777,6.70767013 17.8269735,7.23470679 17.6261191,7.38029331 C17.0166934,6.80819389 16.2782557,6.36695716 15.4672612,6.14574048 L15.4586262,6.01322805 C15.4565761,5.96869548 15.4579261,5.92823661 15.4703919,5.90515781 C15.6384491,5.63188592 15.8209198,5.13052545 16.0959345,4.94484249 Z M10.134306,4.95831085 L10.3693221,5.29977246 C10.5313428,5.53762809 10.6927306,5.79173928 10.785567,6.0370648 C10.5134556,6.29571989 10.1008086,6.30963987 9.76933038,6.47773786 L9.6328842,6.56038233 C9.31917871,6.74494411 9.0282876,6.93738887 8.74755326,7.16473022 L8.53529491,7.36894893 C8.26522848,7.15709631 8.13543681,6.68043379 7.99167647,6.38403022 C8.15146738,5.61419631 9.39392918,5.05232875 10.134306,4.95831085 Z M9.26888867,3.58155817 C9.48528669,3.83061221 9.79750713,4.26689383 9.9249965,4.57233515 C9.47361382,4.63619787 8.51165028,5.11574855 8.23044018,5.38914823 L7.74748982,5.85867859 L7.46810589,5.28366466 C7.43687753,5.19144911 7.22166676,4.92316735 7.28317412,4.82303307 L7.55184056,4.54697916 C8.05818505,4.03450342 8.41458997,3.75308821 9.26888867,3.58155817 Z M16.9256228,3.61293417 C17.0951893,3.67628575 17.2419082,3.69392916 17.4172406,3.67329146 C17.9706014,3.93072447 18.5013084,4.48364705 18.9312979,4.90818541 L18.4227464,5.84228272 C17.8894743,5.20115214 17.015122,4.82957467 16.2558792,4.55212304 C16.3953915,4.38794339 16.7437557,3.7106889 16.9256228,3.61293417 Z M22.3390008,1.86452932 L22.5979909,2.12186993 C22.943581,2.47086634 23.2727626,2.84954454 23.3756689,3.33205689 C23.2966878,3.30676802 23.2234087,3.26015921 23.172792,3.19812519 C22.8812222,2.84078713 22.5404811,2.53428166 22.1260642,2.32768124 C21.6063864,2.07348263 21.0220117,2.20973266 20.6175395,2.60383658 L20.0070484,3.25228124 L19.9131822,3.36072891 C19.9009622,3.37573806 19.8907057,3.38897558 19.8827895,3.4000831 C19.6356227,3.74043617 19.3110442,4.24236049 19.0889598,4.59897587 C18.4733715,4.13431471 17.8706938,3.44679551 17.0862371,3.23994602 C17.1554026,3.00070907 17.5674555,2.57597037 17.7108015,2.37107953 C17.7775588,2.2872119 17.9405971,2.32074473 18.0176394,2.36571038 C18.4781829,2.63547287 19.1573036,3.14658473 19.5714473,3.47542629 C19.6593998,3.51556028 19.8455896,3.39998816 19.8610563,3.29838436 C19.8148033,3.13266918 19.6822821,3.02274604 19.5501449,2.92649987 L19.1471582,2.6359175 C18.8354712,2.4149638 18.4512484,2.15064843 18.2251697,2.00221913 C17.9745917,1.88964955 18.2729919,1.72254216 18.3936572,1.62339081 L18.5742265,1.47041845 C18.7021389,1.3656 18.8370263,1.2741682 19.017426,1.26643172 C19.5252508,1.50566866 19.9863141,1.87869364 20.4184362,2.24554954 C20.5484881,2.33088237 20.6718331,2.21607733 20.6155188,2.08121142 C20.327928,1.65290339 19.8432988,1.37655563 19.4180684,1.11055198 C20.4093808,0.672534428 21.5874384,1.17131681 22.3390008,1.86452932 Z M6.75328105,1.11244421 L6.50921517,1.26691904 L6.20565556,1.46956659 C6.05052829,1.57666189 5.89902429,1.68771076 5.79004372,1.78154638 L5.69667837,1.8688603 C5.49384112,2.04743349 5.44329046,2.33682439 5.70916632,2.25753935 C6.15075789,1.87803233 6.65030049,1.53745834 7.15036108,1.26659018 C7.52416829,1.28067545 7.82398489,1.68875802 8.0701439,1.91431724 C7.69587645,2.21609213 6.23855871,2.94866975 6.37325026,3.40575186 C6.39049262,3.49489407 6.52103368,3.51392326 6.60772811,3.45198201 C7.13603396,3.09459775 7.80550221,2.43356116 8.42365526,2.32338021 C8.58043671,2.54206971 9.05766957,3.02642786 9.11976062,3.28949461 C8.31155573,3.3234108 7.64002522,4.10312389 7.07455548,4.59911737 L6.72014232,4.0065626 C6.58175005,3.77811896 6.43970623,3.55371378 6.34381992,3.43823858 C6.24048235,3.35322269 6.09186869,3.15570622 6.00163129,3.04389511 L5.50155553,2.54205671 C4.68964269,1.73312878 3.54294808,2.45649899 3.00368553,3.23214931 C2.96169504,3.28486113 2.8606226,3.32100056 2.82734064,3.27195481 C2.96472038,2.71021973 3.64696717,1.99471481 4.09877507,1.67519075 C4.81860231,1.06429295 5.85064602,0.737951872 6.75328105,1.11244421 Z" id="Shape" fill="#FFFFFF"></path>
            </g>
            <path d="M37,18.5 C37,28.7172666 28.7172666,37 18.5,37 C8.28273337,37 0,28.7172666 0,18.5 C0,17.9950908 0.0202269694,17.4949058 0.0599148068,17.0002112 L1.81623907,17.0001363 C1.7723923,17.4942357 1.75,17.9945028 1.75,18.5 C1.75,27.7507683 9.24923168,35.25 18.5,35.25 C27.7507683,35.25 35.25,27.7507683 35.25,18.5 C35.25,17.9945028 35.2276077,17.4942357 35.1837609,17.0001363 L36.9400852,17.0002112 C36.979773,17.4949058 37,17.9950908 37,18.5 Z" id="Combined-Shape" fill="#000000" fill-rule="nonzero"></path>
            <g id="BARS">
                <circle id="Oval" cx="18.5" cy="18.5" r="18.5"></circle>
                <g id="Group" transform="translate(3.9707, 17.4848)" fill="#000000" stroke="#FFFFFF" stroke-width="1.25">
                    <rect id="Rectangle" x="23.2" y="2.0152439" width="5.8" height="18.25"></rect>
                    <rect id="Rectangle" x="17.4" y="5.21158537" width="5.8" height="15.06"></rect>
                    <rect id="Rectangle" x="11.6" y="10.7152439" width="5.8" height="9.55"></rect>
                    <rect id="Rectangle" x="5.8" y="8.5152439" width="5.8" height="11.75"></rect>
                    <rect id="Rectangle" x="3.41948692e-14" y="5.7152439" width="5.8" height="14.55"></rect>
                </g>
            </g>
            <path d="M1.81632768,20.0008619 C2.18888789,24.1963229 4.10830676,27.9470292 7.00042213,30.6788186 L6.99963262,32.992009 C3.10170102,29.8946007 0.482028763,25.2577342 0.0599950648,20.0007888 L1.81632768,20.0008619 Z M36.9400049,20.0007888 C36.5551799,24.7942549 34.3431441,29.0721608 31.0009143,32.1374897 L31.0009793,29.6487059 C33.3314974,27.0373424 34.8559718,23.6911511 35.1836723,20.0008619 L36.9400049,20.0007888 Z" id="Combined-Shape" fill="#000000" fill-rule="nonzero"></path>
        </g>
    </g>
</svg>