<?xml version="1.0" encoding="UTF-8"?>
<svg width="24px" height="24px" viewBox="0 0 24 24" version="1.1" xmlns="http://www.w3.org/2000/svg" xmlns:xlink="http://www.w3.org/1999/xlink">
    <title>edit-pencil</title>
    <g id="edit-pencil" stroke="none" fill="none">
        <path d="M4,5 L16.1764706,5 L16.1764706,5 L19,7.82352941 L19,20 C19,20.5522847 18.5522847,21 18,21 L4,21 C3.44771525,21 3,20.5522847 3,20 L3,6 C3,5.44771525 3.44771525,5 4,5 Z" id="Rectangle" fill-opacity="0.349999994" fill="#00B3C0" fill-rule="nonzero"></path>
        <path d="M20,13 L20,20 C20,21.1045695 19.1045695,22 18,22 L4,22 C2.8954305,22 2,21.1045695 2,20 L2,6 C2,4.8954305 2.8954305,4 4,4 L11,4" id="Path" stroke="#000000" stroke-width="2"></path>
        <polygon id="Path" stroke="#000000" stroke-width="2" fill-rule="nonzero" points="16.2530483 4.91553391 7.00000001 14.1685822 7.00000001 16.9970093 9.82842714 16.9970093 19.0814754 7.74396104"></polygon>
        <path d="M19.4309828,1.73759946 L18.7279221,2.44066018 L18.7279221,2.44066018 L21.5563492,5.26908729 L22.2628767,4.56255973 C22.4581389,4.36729758 22.4581389,4.0507151 22.2628767,3.85545295 C22.2626841,3.85526035 22.2624914,3.8550679 22.2622985,3.85487562 L20.1375113,1.73702212 C19.9421563,1.54230459 19.6260193,1.54256292 19.4309828,1.73759946 Z" id="Path" stroke="#000000" stroke-width="2" fill-rule="nonzero"></path>
    </g>
</svg>