<?xml version="1.0" encoding="UTF-8"?>
<svg width="24px" height="24px" viewBox="0 0 24 24" version="1.1" xmlns="http://www.w3.org/2000/svg" xmlns:xlink="http://www.w3.org/1999/xlink">
    <title>encouragement-fire</title>
    <g id="encouragement-fire" stroke="none" fill="none" fill-rule="evenodd">
        <path d="M13.080443,0.086668158 C13.5252152,-0.182536089 14.0753282,0.215418015 13.9582829,0.730417443 C13.0320104,4.79915509 14.8970949,6.57125749 16.9693884,8.30313861 L17.7051821,8.91639487 C18.9318185,9.94795248 20.1249571,11.0574475 20.7586163,12.7041542 C22.0695239,15.8409689 21.1799794,19.4459648 18.7454367,21.7049396 C16.53328,23.7298237 13.454988,24.2565277 10.6107866,23.8936872 L10.3755453,23.8577096 C8.21790814,23.4808335 3.06829919,21.3802472 2.64,15.0684697 C2.64,12.107223 3.44761274,10.1408615 4.24352095,8.92359017 C4.58295239,8.42029527 5.3788606,8.71290858 5.3086334,9.32154427 C5.12136088,10.9718833 5.343747,13.2776762 7.46226737,14.8811972 C7.91874414,15.2323332 8.55078889,14.7290383 8.34010731,14.1906298 C5.7768147,7.61268253 8.83169767,2.5914381 13.080443,0.086668158 Z M12.5771481,9.93017996 C11.5588537,12.5754043 13.0687384,14.2140388 12.6824889,15.887787 C12.4483982,16.964604 11.5822628,18.1818753 9.89681013,18.591534 C13.2911245,21.3772127 16.4981664,18.8373292 16.4045302,15.8760824 C16.4045302,13.4883578 12.9633976,12.1189275 12.5771481,9.93017996 Z" id="Shape" fill="#000000"></path>
    </g>
</svg>