<?xml version="1.0" encoding="UTF-8"?>
<svg width="24px" height="24px" viewBox="0 0 24 24" version="1.1" xmlns="http://www.w3.org/2000/svg" xmlns:xlink="http://www.w3.org/1999/xlink">
    <title>encouragement-scoreboard</title>
    <g id="encouragement-scoreboard" stroke="none" fill="none" fill-rule="evenodd">
        <path d="M8.18181818,0 L8.18181818,2.4 L15.8181818,2.4 L15.8181818,0 L18,0 L18,2.4 L21.6,2.4 C22.92,2.4 24,3.48 24,4.8 L24,18.3272727 C24,19.6472727 22.92,20.7272727 21.6,20.7272727 L2.4,20.7272727 C1.08,20.7272727 0,19.6472727 0,18.3272727 L0,4.8 C0,3.48 1.08,2.4 2.4,2.4 L6,2.4 L6,0 L8.18181818,0 Z M12.8181818,16.7454545 L11.1818182,16.7454545 L11.1818182,18.5454545 L12.8181818,18.5454545 L12.8181818,16.7454545 Z M20.3030303,6.87272727 L16.5151515,6.87272727 C15.6818182,6.87272727 15,7.55454545 15,8.38787879 L15,14.4484848 C15,15.2818182 15.6818182,15.9636364 16.5151515,15.9636364 L20.3030303,15.9636364 C21.1363636,15.9636364 21.8181818,15.2818182 21.8181818,14.4484848 L21.8181818,8.38787879 C21.8181818,7.55454545 21.1363636,6.87272727 20.3030303,6.87272727 Z M7.48484848,6.87272727 L2.18181818,6.87272727 L2.18181818,9.14545455 L6.72727273,9.14545455 L6.72727273,10.6606061 L3.6969697,10.6606061 C2.86363636,10.6606061 2.18181818,11.3424242 2.18181818,12.1757576 L2.18181818,15.9636364 L9,15.9636364 L9,13.6909091 L4.45454545,13.6909091 L4.45454545,12.1757576 L7.48484848,12.1757576 C8.31818182,12.1757576 9,11.4939394 9,10.6606061 L9,8.38787879 C9,7.55454545 8.31818182,6.87272727 7.48484848,6.87272727 Z M12.8181818,12.6909091 L11.1818182,12.6909091 L11.1818182,14.4909091 L12.8181818,14.4909091 L12.8181818,12.6909091 Z M19.5454545,9.14545455 L19.5454545,13.6909091 L17.2727273,13.6909091 L17.2727273,9.14545455 L19.5454545,9.14545455 Z M12.8181818,8.63636364 L11.1818182,8.63636364 L11.1818182,10.4363636 L12.8181818,10.4363636 L12.8181818,8.63636364 Z M12.8181818,4.58181818 L11.1818182,4.58181818 L11.1818182,6.38181818 L12.8181818,6.38181818 L12.8181818,4.58181818 Z M4.36363636,21.8181818 L19.6363636,21.8181818 L19.6363636,24 L4.36363636,24 L4.36363636,21.8181818 Z" id="Shape" fill="#000000"></path>
    </g>
</svg>