<?xml version="1.0" encoding="UTF-8"?>
<svg width="24px" height="24px" viewBox="0 0 24 24" version="1.1" xmlns="http://www.w3.org/2000/svg" xmlns:xlink="http://www.w3.org/1999/xlink">
    <title>encouragement-stopwatch</title>
    <g id="encouragement-stopwatch" stroke="none" fill="none" fill-rule="nonzero">
        <path d="M15.2663636,0 L15.2663636,2.18181818 L13.0845455,2.18181818 L13.0852044,3.32952774 C15.1285306,3.54341587 16.9951455,4.35104687 18.5094195,5.57679099 L20.0818693,4.00535223 L21.6246478,5.54813066 L20.053209,7.12058054 C21.4941448,8.90070044 22.3572727,11.1677349 22.3572727,13.6363636 C22.3572727,19.360042 17.7173147,24 11.9936364,24 C6.26995805,24 1.63,19.360042 1.63,13.6363636 C1.63,8.28098186 5.69204277,3.87434101 10.9031554,3.329414 L10.9027273,2.18181818 L8.72090909,2.18181818 L8.72090909,0 L15.2663636,0 Z M11.9936364,5.45454545 C7.47494296,5.45454545 3.81181818,9.11767023 3.81181818,13.6363636 C3.81181818,18.155057 7.47494296,21.8181818 11.9936364,21.8181818 C16.5123298,21.8181818 20.1754545,18.155057 20.1754545,13.6363636 C20.1754545,9.11767023 16.5123298,5.45454545 11.9936364,5.45454545 Z M11.9936364,6.54545455 C15.9098373,6.54545455 19.0845455,9.72016268 19.0845455,13.6363636 C19.0845455,17.5525646 15.9098373,20.7272727 11.9936364,20.7272727 C8.07743541,20.7272727 4.90272727,17.5525646 4.90272727,13.6363636 C4.90272727,9.72016268 8.07743541,6.54545455 11.9936364,6.54545455 Z M12.8118182,8.18181818 L11.1754545,8.18181818 L11.1754545,14.7272727 L12.8118182,14.7272727 L12.8118182,8.18181818 Z" id="Shape" fill="#000000"></path>
    </g>
</svg>