<?xml version="1.0" encoding="UTF-8"?>
<svg width="24px" height="24px" viewBox="0 0 24 24" version="1.1" xmlns="http://www.w3.org/2000/svg" xmlns:xlink="http://www.w3.org/1999/xlink">
    <title>encouragement-thumbs-up</title>
    <g id="encouragement-thumbs-up" stroke="none" fill="none" fill-rule="evenodd">
        <path d="M18.382891,21.2635483 L20.7226806,21.5487819 C20.9650917,21.7417907 21.0862973,22.0469599 21.0862973,22.4642894 C21.0862973,22.9226593 20.9758718,23.3039397 20.7550209,23.6081305 C20.53417,23.9123214 20.2612316,24.0394149 19.9362057,23.9894109 L17.2859946,23.5768781 C16.5442688,23.4602021 16.1734059,23.0393352 16.1734059,22.3142775 C16.1734059,21.9392476 16.2775809,21.6704762 16.4859308,21.5079633 C16.6942808,21.3454503 17.0401416,21.2641938 17.5235135,21.2641938 L18.382891,21.2635483 Z M14.2107496,4.97379915e-14 C14.8024634,4.97379915e-14 15.2795847,0.306274397 15.6421136,0.918823191 C16.0046425,1.53137198 16.1859069,2.3626882 16.1859069,3.41277185 C16.1859069,4.17949959 16.0963165,4.89622335 15.9171355,5.56294313 L15.5587736,6.87693668 C15.4990467,7.09269461 15.4393197,7.30683204 15.3795927,7.51934897 C15.2517668,7.97417152 15.1695357,8.44489927 15.1328996,8.93153222 C14.6601866,9.39714697 14.4232665,9.97015222 14.4232665,10.6508484 C14.4232665,11.327489 14.6144491,11.8789185 14.9968144,12.3051369 C14.8863854,12.7198795 14.7196036,13.1227151 14.4982725,13.5135764 C14.1065746,14.2052982 13.6002843,14.805346 12.9794015,15.3137198 C12.3585187,15.8220937 11.6688805,16.1846225 10.9104867,16.4013065 L11.2855166,17.3388812 C12.1605863,17.0721933 12.9543995,16.6513264 13.6669563,16.0762806 C14.2777192,15.5833842 14.7843922,15.0338506 15.1869753,14.4276799 L15.2370586,14.3452882 L15.2267782,14.5008059 L15.2233303,14.6636681 C15.2233303,15.3970598 15.4754337,15.9971076 15.9796405,16.4638115 C16.0833352,16.5597933 16.1941679,16.6459054 16.3121385,16.7221478 L16.2421614,16.7700859 C15.6962846,17.1826187 15.4233462,17.797251 15.4233462,18.6139827 C15.4233462,19.2890365 15.6254456,19.8640823 16.0296445,20.3391202 C16.0877249,20.4073796 16.1494619,20.4716812 16.2148555,20.5320251 C16.0231498,20.6176503 15.8548943,20.7314114 15.7108691,20.8704125 C15.3525072,21.2162734 15.1733263,21.6975617 15.1733263,22.3142775 C15.1733263,22.8539038 15.3089165,23.3105808 15.580097,23.6843085 L15.6090078,23.7202802 L15.2920857,23.739391 C14.8128809,23.764393 14.3524275,23.776894 13.9107257,23.776894 C11.9689044,23.776894 10.3437749,23.3643611 9.03533734,22.5392954 L8.63530547,22.2892755 C7.85190974,21.7975697 7.18727346,21.4517088 6.64139665,21.2516928 C6.09551983,21.0516769 5.54755951,20.9516689 4.9975157,20.9516689 L0.54,20.9516689 L0.54,12.2884789 L2.02943919,12.2514759 C2.94377428,12.2244738 3.97743444,12.1847206 4.52247786,12.1322164 C5.43088355,12.0447094 6.29345226,11.875946 7.11018399,11.6259261 C7.13518598,11.1342203 7.21644245,10.7175204 7.35395341,10.3758265 C7.49146436,10.0341326 7.73940078,9.70910673 8.09776266,9.40074883 C8.45612454,9.09239094 8.96866536,8.74653005 9.63538514,8.36316618 C10.6021288,7.80478837 11.3646896,7.22974257 11.9230674,6.63802876 C12.4814452,6.04631496 12.8793935,5.36501069 13.1169125,4.59411595 C13.3544314,3.82322121 13.4731908,2.89606402 13.4731908,1.81264439 L13.4731908,1.32510555 C13.4731908,0.808397728 13.5315288,0.458369846 13.6482048,0.275021907 C13.7648807,0.0916739691 13.9523957,4.97379915e-14 14.2107496,4.97379915e-14 Z M21.1112993,17.1513662 C21.828023,17.1513662 22.3488979,17.2930442 22.6739237,17.5764001 C22.9989496,17.859756 23.1614626,18.2972908 23.1614626,18.8890046 C23.1614626,19.5057204 22.9989496,19.9640903 22.6739237,20.2641142 C22.3488979,20.5641381 21.882194,20.676647 21.2738122,20.6016411 L17.8985434,20.1891082 C17.3901695,20.1224362 17.0172232,19.9453388 16.7797042,19.6578159 C16.5421853,19.370293 16.4234259,19.0223486 16.4234259,18.6139827 C16.4234259,18.0889409 16.5963563,17.713911 16.9422172,17.4888931 C17.2880781,17.2638752 17.7526984,17.1513662 18.3360782,17.1513662 L21.1112993,17.1513662 Z M23.4489855,14.3761452 C23.4489855,15.0095289 23.292723,15.4616483 22.9801981,15.7325032 C22.6676732,16.0033581 22.1905519,16.1387856 21.5488341,16.1387856 L18.0235533,16.1387856 C17.4651755,16.1387856 17.0255571,16.0116921 16.7046983,15.7575052 C16.3838394,15.5033183 16.2234099,15.1387059 16.2234099,14.6636681 C16.2234099,14.2386342 16.3317519,13.8948568 16.5484358,13.6323359 C16.7651197,13.369815 17.1776526,13.2093856 17.7860344,13.1510476 L21.6488421,12.7385147 C22.8489377,12.6051708 23.4489855,13.1510476 23.4489855,14.3761452 Z M22.2738919,10.0883036 C22.2738919,10.5633414 22.1863849,10.9487888 22.011371,11.2446457 C21.836357,11.5405026 21.5946711,11.7050991 21.2863132,11.738435 L17.8360384,12.1009639 C17.0526426,12.1843039 16.4546783,12.0947134 16.0421455,11.8321925 C15.6296126,11.5696716 15.4233462,11.1758902 15.4233462,10.6508484 C15.4233462,10.1841446 15.6191951,9.7986972 16.010893,9.4945063 C16.4025909,9.19031541 16.9693027,8.99238297 17.7110284,8.900709 L20.4737485,8.55068112 C21.6738441,8.40066917 22.2738919,8.91321 22.2738919,10.0883036 Z" id="Shape" fill="#000000"></path>
    </g>
</svg>