<?xml version="1.0" encoding="UTF-8"?>
<svg width="24px" height="24px" viewBox="0 0 24 24" version="1.1" xmlns="http://www.w3.org/2000/svg" xmlns:xlink="http://www.w3.org/1999/xlink">
    <title>encouragement-high-five</title>
    <g id="encouragement-high-five" stroke="none" fill="none" fill-rule="nonzero">
        <path d="M23,17 C23,20.31 20.31,23 17,23 L17,21.5 C19.5,21.5 21.5,19.5 21.5,17 L23,17 M1,7 C1,3.69 3.69,1 7,1 L7,2.5 C4.5,2.5 2.5,4.5 2.5,7 L1,7 M8,4.32 L3.41,8.92 C0.19,12.14 0.19,17.37 3.41,20.59 C6.63,23.81 11.86,23.81 15.08,20.59 L22.15,13.5 C22.64,13.03 22.64,12.24 22.15,11.75 C21.66,11.26 20.87,11.26 20.38,11.75 L15.96,16.17 L15.25,15.46 L21.79,8.92 C22.28,8.43 22.28,7.64 21.79,7.15 C21.3,6.66 20.5,6.66 20,7.15 L14.19,13 L13.5,12.27 L20.37,5.38 C20.86,4.89 20.86,4.1 20.37,3.61 C19.88,3.12 19.09,3.12 18.6,3.61 L11.71,10.5 L11,9.8 L16.5,4.32 C17,3.83 17,3.04 16.5,2.55 C16,2.06 15.22,2.06 14.73,2.55 L7.11,10.17 C8.33,11.74 8.22,14 6.78,15.45 L6.07,14.74 C7.24,13.57 7.24,11.67 6.07,10.5 L5.72,10.15 L9.79,6.08 C10.28,5.59 10.28,4.8 9.79,4.31 C9.29,3.83 8.5,3.83 8,4.32 Z" id="Shape" fill="#000000"></path>
    </g>
</svg>