<?xml version="1.0" encoding="UTF-8"?>
<svg width="24px" height="24px" viewBox="0 0 24 24" version="1.1" xmlns="http://www.w3.org/2000/svg" xmlns:xlink="http://www.w3.org/1999/xlink">
    <title>google-logo</title>
    <defs>
        <path d="M0,0 L24,0 L24,24 L0,24 L0,0 Z" id="path-1"></path>
    </defs>
    <g id="google-logo" stroke="none" fill="none" xlink:href="#path-1" fill-rule="evenodd" stroke-width="1">
        <g id="Group" transform="translate(1.22, 1)">
            <path d="M21.5601078,11.2499762 C21.5601078,10.4700724 21.4901475,9.7199786 21.3601268,9.000025 L11.000055,9.000025 L11.000055,13.2550663 L16.9200646,13.2550663 C16.6650833,14.6300732 15.8901295,15.795089 14.7251136,16.5751029 L14.7251136,19.3350167 L18.2801114,19.3350167 C20.3601118,17.4200171 21.5601078,14.600043 21.5601078,11.2499762 Z" id="Path" fill="#4285F4"></path>
            <path d="M10.999835,22 C13.9698498,22 16.4599323,21.0150551 18.2798914,19.3350167 L14.7248936,16.5749929 C13.7398387,17.2349962 12.4798924,17.6250581 10.999835,17.6250581 C8.13485967,17.6250581 5.70985355,15.6900385 4.84485322,13.0899554 L1.16983385,13.0899554 L1.16983385,15.9399597 C2.9798379,19.5349977 6.6998585,22 10.999835,22 Z" id="Path" fill="#34A853"></path>
            <path d="M4.84502923,13.0900655 C4.62502813,12.4300622 4.5000235,11.7250686 4.5000235,11.000055 C4.5000235,10.2750414 4.62502813,9.57004785 4.84502923,8.91004455 L4.84502923,6.0600293 L1.17000985,6.0600293 C0.424998125,7.54503673 0,9.22508613 0,11.000055 C0,12.7750239 0.424998125,14.4550623 1.17000985,15.9400697 L4.84502923,13.0900655 Z" id="Path" fill="#FBBC05"></path>
            <path d="M10.999835,4.37501888 C12.6148631,4.37501888 14.0648903,4.93002665 15.204936,6.0200331 L18.3598618,2.86501933 C16.4548723,1.09000645 13.9648998,0 10.999835,0 C6.6998585,0 2.9798379,2.46501333 1.16983385,6.0600293 L4.84485322,8.91004455 C5.70985355,6.31002755 8.13485967,4.37501888 10.999835,4.37501888 Z" id="Path" fill="#EA4335"></path>
        </g>
    </g>
</svg>