<?xml version="1.0" encoding="UTF-8"?>
<svg width="24px" height="24px" viewBox="0 0 24 24" version="1.1" xmlns="http://www.w3.org/2000/svg" xmlns:xlink="http://www.w3.org/1999/xlink">
    <title>Help</title>
    <g id="Help" stroke="none" fill="none" fill-rule="evenodd">
        <circle id="Oval" stroke="#000000" stroke-width="2" fill="#FFFFFF" cx="12" cy="12" r="10"></circle>
        <path d="M12.8344846,17.654601 C13.0761513,17.4129343 13.1969846,17.117101 13.1969846,16.767101 C13.1969846,16.417101 13.0761513,16.1212677 12.8344846,15.879601 C12.592818,15.6379343 12.2969846,15.517101 11.9469846,15.517101 C11.5969846,15.517101 11.3011513,15.6379343 11.0594846,15.879601 C10.817818,16.1212677 10.6969846,16.417101 10.6969846,16.767101 C10.6969846,17.117101 10.817818,17.4129343 11.0594846,17.654601 C11.3011513,17.8962677 11.5969846,18.017101 11.9469846,18.017101 C12.2969846,18.017101 12.592818,17.8962677 12.8344846,17.654601 Z M12.8209846,10.714601 L12.6469846,10.867101 C11.9136513,11.517101 11.4636513,12.0087677 11.2969846,12.342101 C11.130318,12.6754343 11.0469846,13.2837677 11.0469846,14.167101 L12.8969846,14.167101 C12.8969846,13.617101 12.9594846,13.1837677 13.0844846,12.867101 C13.2094846,12.5504343 13.5636513,12.117101 14.1469846,11.567101 C14.580318,11.1337677 14.9219846,10.7212677 15.1719846,10.329601 C15.4219846,9.93793434 15.5469846,9.46710101 15.5469846,8.91710101 C15.5469846,7.98376767 15.205318,7.26710101 14.5219846,6.76710101 C13.8386513,6.26710101 13.030318,6.01710101 12.0969846,6.01710101 C11.1469846,6.01710101 10.3761513,6.26710101 9.78448463,6.76710101 C9.19281796,7.26710101 8.78031796,7.86710101 8.54698463,8.56710101 L10.1969846,9.21710101 C10.280318,8.91710101 10.467818,8.59210101 10.7594846,8.24210101 C11.0511513,7.89210101 11.4969846,7.71710101 12.0969846,7.71710101 C12.630318,7.71710101 13.030318,7.86293434 13.2969846,8.15460101 C13.5636513,8.44626767 13.6969846,8.76710101 13.6969846,9.11710101 C13.6969846,9.45043434 13.5969846,9.76293434 13.3969846,10.054601 C13.2369846,10.2879343 13.0449846,10.5079343 12.8209846,10.714601 Z" id="Shape" fill="#000000" transform="translate(12.047, 12.0171) rotate(20) translate(-12.047, -12.0171)"></path>
    </g>
</svg>