<?xml version="1.0" encoding="UTF-8"?>
<svg width="24px" height="24px" viewBox="0 0 24 24" version="1.1" xmlns="http://www.w3.org/2000/svg" xmlns:xlink="http://www.w3.org/1999/xlink">
    <title>lean-mass</title>
    <g id="lean-mass" stroke="none" fill="none" fill-opacity="0.349999994" fill-rule="evenodd" stroke-width="1">
        <g id="Group" transform="translate(1, 4)" fill="#00B3C0" stroke="#000000">
            <path d="M18.75,6 L21.9,6 C21.9552285,6 22,6.04477153 22,6.1 L22,9.9 C22,9.95522847 21.9552285,10 21.9,10 L18.75,10 L18.75,10 L18.75,6 Z" id="Rectangle" stroke-width="2" fill-rule="nonzero"></path>
            <rect id="Rectangle" stroke-width="2" fill-rule="nonzero" x="7.5" y="6" width="7" height="4"></rect>
            <path d="M0.1,6 L3.25,6 L3.25,6 L3.25,10 L0.1,10 C0.044771525,10 3.35293963e-16,9.95522847 8.32667268e-17,9.9 L0,6.1 C-6.76353751e-18,6.04477153 0.044771525,6 0.1,6 Z" id="Rectangle" stroke-width="2" fill-rule="nonzero"></path>
            <rect id="Rectangle" stroke-width="2" fill-rule="nonzero" x="3.25" y="0.5" width="4.25" height="15" rx="1.25"></rect>
            <rect id="Rectangle" stroke-width="2" fill-rule="nonzero" x="14.5" y="0.5" width="4.25" height="15" rx="1.25"></rect>
        </g>
    </g>
</svg>