<?xml version="1.0" encoding="UTF-8"?>
<svg width="24px" height="24px" viewBox="0 0 24 24" version="1.1" xmlns="http://www.w3.org/2000/svg" xmlns:xlink="http://www.w3.org/1999/xlink">
    <title>protein-intake</title>
    <g id="protein-intake" stroke="none" fill="none" fill-opacity="0.349999994" fill-rule="evenodd" stroke-width="1">
        <g id="Group" transform="translate(1.989, 1.5)" fill="#00B3C0" stroke="#000000">
            <path d="M5.26210412,18.3724483 C5.55373028,19.2473268 5.19211384,19.9472296 4.64385665,20.4838217 C3.96728396,21.1720594 2.85910454,21.1720594 2.17086679,20.4838217 C1.85591054,20.1688654 1.69259989,19.7605888 1.66926979,19.3406471 C1.24932812,19.317317 0.841051489,19.1540064 0.526095233,18.8390501 C-0.162142512,18.1508124 -0.188464192,17.0114688 0.526095233,16.3660603 C0.887711675,16.039439 1.76259016,15.4561866 2.63746865,15.7478128 C4.06331786,14.4170202 5.13270476,13.4189258 5.84562936,12.7535295 C6.13698261,13.1231773 7.59511342,14.5813082 8.31375482,15.1028225 C7.63561022,15.829406 6.61839332,16.9192813 5.26210412,18.3724483 Z" id="Path" stroke-width="2"></path>
            <path d="M21.005699,5.5467728 C21.163641,7.39900171 20.5116132,9.21700865 19.2041695,10.5244096 C18.1891437,11.5249351 16.901277,12.1465355 15.5088474,12.288616 C13.5254471,12.4963019 11.8245225,13.2763272 10.545968,14.57447 C10.1027623,14.9965707 9.58587055,15.1645605 9.07657433,15.1645605 C8.57736943,15.1645605 8.05947066,14.9941128 7.59848838,14.5546031 L6.44364877,13.3997635 C6.02709829,12.983213 5.84535645,12.4659478 5.84535645,11.9566727 C5.84535645,11.3368328 6.10453107,10.7943743 6.55691183,10.3420075 C7.77989823,9.10891382 8.52485151,7.46845922 8.7088256,5.5673992 C8.89530515,3.65956993 9.91935964,2.01201364 11.5660347,0.947361521 C12.5237246,0.323412049 13.6538081,0 14.8391073,0 C15.9316502,0 16.97403,0.269241407 17.8807443,0.794743149 L18.1470937,0.958986543 C19.7579348,2.00585642 20.7717941,3.62528324 21.005699,5.5467728 Z" id="Path" stroke-width="2" fill-rule="nonzero"></path>
        </g>
    </g>
</svg>