<?xml version="1.0" encoding="UTF-8"?>
<svg width="24px" height="24px" viewBox="0 0 24 24" version="1.1" xmlns="http://www.w3.org/2000/svg" xmlns:xlink="http://www.w3.org/1999/xlink">
    <title>tracked-data-setup</title>
    <g id="tracked-data-setup" stroke="none" fill="none" fill-rule="evenodd" stroke-width="1">
        <g id="Group" transform="translate(2.4178, 2)" stroke="#000000">
            <path d="M11.2681634,0 L11.7076987,3.11005391 C12.7150062,3.42727603 13.627057,3.95929699 14.3901408,4.65240647 L17.3153681,3.4767355 L19.0555098,6.48469472 L16.5887706,8.438424 C16.6996076,8.94128951 16.758036,9.46382141 16.758036,10 C16.758036,10.5369741 16.6994341,11.060261 16.5882769,11.5638141 L19.0716275,13.4955398 L17.3264792,16.5121534 L14.4012172,15.337512 C13.6420227,16.0299503 12.7345578,16.5625913 11.732017,16.8822401 L11.2722207,20 L7.79235302,20 L7.35508151,16.8871536 C6.34933043,16.5689896 5.43880423,16.0366093 4.67705366,15.3435636 L1.74514835,16.5232645 L0,13.5066509 L2.4845879,11.5694084 C2.37262832,11.064137 2.31359154,10.5389629 2.31359154,10 C2.31359154,9.46421917 2.37193327,8.94206478 2.48261039,8.43954317 L0,6.50446019 L1.74514835,3.48784661 L4.67151706,4.6614788 C5.43076552,3.96927789 6.33822344,3.43686231 7.34071506,3.1174078 L7.79940684,0 L11.2681634,0 Z M9.58223239,7 C7.92537814,7 6.58223239,8.34314575 6.58223239,10 C6.58223239,11.6568542 7.92537814,13 9.58223239,13 C11.2390866,13 12.5822324,11.6568542 12.5822324,10 C12.5822324,8.34314575 11.2390866,7 9.58223239,7 Z" id="Combined-Shape" stroke-width="2" fill-opacity="0.349999994" fill="#00B3C0" fill-rule="nonzero"></path>
            <circle id="Oval" stroke-width="2" fill-rule="nonzero" cx="9.58223239" cy="10" r="3"></circle>
        </g>
    </g>
</svg>