<?xml version="1.0" encoding="UTF-8"?>
<svg width="40px" height="40px" viewBox="0 0 40 40" version="1.1" xmlns="http://www.w3.org/2000/svg" xmlns:xlink="http://www.w3.org/1999/xlink">
    <title>UMD Logo</title>
    <defs>
        <path d="M0,0 L40,0 L40,40 L0,40 L0,0 Z" id="path-1"></path>
        <radialGradient cx="50%" cy="50%" fx="50%" fy="50%" r="50%" id="radialGradient-2">
            <stop stop-color="#FFFFFF" offset="0%"></stop>
            <stop stop-color="#FDFDFD" offset="50%"></stop>
            <stop stop-color="#F6F6F6" offset="70%"></stop>
            <stop stop-color="#EBEBEB" offset="80%"></stop>
            <stop stop-color="#DADADA" offset="90%"></stop>
            <stop stop-color="#CCCCCC" offset="100%"></stop>
        </radialGradient>
    </defs>
    <g id="UMD-Logo" stroke="none" fill="none" xlink:href="#path-1">
        <rect id="Rectangle" fill-rule="nonzero" x="0" y="0" width="40" height="40"></rect>
        <path d="M12.2154156,38.4290079 C9.83381584,37.4213464 7.69533437,35.9786312 5.85755186,34.1424481 C4.0202492,32.3062651 2.57897346,30.1661842 1.57115209,27.7845844 C0.528462437,25.3198125 0,22.6998928 0,20 C0,17.2994674 0.528622383,14.6806673 1.57115209,12.2147758 C2.57897346,9.83317605 4.0202492,7.69357496 5.85755186,5.85755186 C7.69485453,4.02136882 9.83317605,2.57897346 12.2147758,1.57115209 C14.6806673,0.528462437 17.2993074,0 20,0 C22.7006926,0 25.3193327,0.528622383 27.7852242,1.57115209 C30.1668239,2.57897346 32.306425,4.02136882 34.1424481,5.85755186 C35.9784712,7.69357496 37.4210265,9.83317605 38.4288479,12.2147758 C39.4715376,14.6806673 40,17.2993074 40,20 C40,22.7006926 39.4713776,25.3206123 38.4288479,27.7852242 C37.4210265,30.1668239 35.9786312,32.3062651 34.1424481,34.1424481 C32.306425,35.9784712 30.1668239,37.4208666 27.7852242,38.428688 C25.3193327,39.4715376 22.7006926,40 20,40 C17.2993074,40 14.6806673,39.4715376 12.2147758,38.428688" id="Path" fill="#FFFFFF" fill-rule="evenodd"></path>
        <g id="Group" stroke-width="1" fill-rule="evenodd" transform="translate(1.5, 1.5)">
            <path d="M18.5,37 C8.325,37 0,28.7675 0,18.5 C0,8.2325 8.2325,0 18.5,0 C28.7675,0 37,8.2325 37,18.5 C37,28.7675 28.675,37 18.5,37 Z" id="Path" fill="url(#radialGradient-2)"></path>
            <path d="M18.5,37 C8.325,37 0,28.7675 0,18.5 C0,8.2325 8.2325,0 18.5,0 C28.7675,0 37,8.2325 37,18.5 C37,28.7675 28.675,37 18.5,37 Z M18.5,0.185 C8.4175,0.185 0.185,8.4175 0.185,18.5 C0.185,28.5825 8.4175,36.815 18.5,36.815 C28.5825,36.815 36.815,28.5825 36.815,18.5 C36.815,8.4175 28.49,0.185 18.5,0.185 Z" id="Shape" fill="#CCCCCC" fill-rule="nonzero"></path>
        </g>
        <g id="Group" stroke-width="1" fill-rule="evenodd" transform="translate(1.5, 1.5)">
            <path d="M18.4559191,0.000156871391 C8.53772545,0.000156871391 0.189814383,8.09754433 0,18.1486081 L0.00596111285,18.1663346 C0.0142752966,18.1958264 0.107456903,18.3799934 0.494929238,18.6245559 C0.885852744,18.8700596 1.46204136,19.1299955 2.2212989,19.3248298 C3.16127227,19.5657842 4.14720896,19.7628147 5.06725967,19.9199998 L5.08498614,19.923451 C7.88482672,20.4004969 10.15805,20.5929781 13.5022344,20.7300837 C15.0764388,20.7961265 16.6588005,20.8552671 18.2198277,20.851816 C18.2174746,19.9069795 18.2127685,14.5339775 18.2552806,9.34749557 C18.2612417,8.67687037 18.2693991,7.97659648 18.2777132,7.27396952 C18.3189704,3.89417541 18.3909744,0.454299548 18.4559191,0.000784356955 M36.9855678,18.0927619 C36.9855678,18.1754331 36.657236,18.4505855 36.3053735,18.6644012 C36.2970593,18.6691074 36.288902,18.6738135 36.2805878,18.6797746 C35.8022869,18.9395536 35.1269556,19.1828612 34.2837719,19.4037361 C33.4217636,19.6304152 32.3566068,19.8382698 31.1863463,20.0166326 C30.0137326,20.1973484 28.7088764,20.3306891 27.3023675,20.4571275 L27.3023675,20.4571275 C25.5016408,20.6166657 24.3691862,20.6850616 22.9344405,20.7570656 C21.4099643,20.8196573 19.8263476,20.8538552 18.2179452,20.8527571 C18.2179452,21.0559056 18.2192002,21.2601521 18.2192002,21.4643987 C18.2226514,22.9098117 18.2262594,24.2879268 18.2333186,25.5844689 C18.2687716,32.6861936 18.279282,32.6802325 18.4930977,37 C28.7076214,37 36.9898034,28.7197005 36.9898034,18.5032943 C36.9898034,18.5029806 36.9861953,18.2350442 36.9861953,18.0921344" id="Shape" fill="#FFD51F" fill-rule="nonzero"></path>
            <path d="M18.4559191,0 L18.4641863,0.0156259592 C18.8846016,0.631973654 19.728805,0.996793761 19.9118739,1.05122813 C19.8599495,1.27555422 19.8980221,1.72295143 20.6784573,2.28627659 C20.7989345,2.37475206 20.9169803,2.44338329 21.0280452,2.49891576 C22.2301507,3.12718568 22.4957026,2.63816579 22.5523331,2.44223342 C22.5582943,2.43627231 22.5667183,2.43161951 22.5737806,2.42691336 C22.9397616,2.69610467 23.6542794,3.27105401 24.4443151,4.16504838 C24.8989284,4.71174517 25.32725,5.18653212 25.6508757,5.664833 C24.9082465,5.75942644 23.9234079,5.84659988 22.9481385,5.91515267 C22.893861,4.73657791 22.0424572,4.14752584 21.5062708,3.94782856 C20.3349121,3.51219671 19.9498556,4.89252376 20.4574914,5.86213014 C19.5292834,5.36029856 18.4322818,5.8066416 18.2776066,7.27213727 C21.9416516,7.24970466 24.4534764,7.08760945 27.2370023,6.69213667 C24.8811078,3.09523255 23.0221818,1.78676828 20.6333442,0.843186864 C20.1573964,0.65666678 18.5372287,0.0213376466 18.4558125,0 L18.4559191,0 Z M19.1252894,0.0153451595 C20.0582035,0.0980446193 20.6900031,0.347046578 20.8411486,0.398971008 C20.9591159,0.439130085 21.0538349,0.504126608 21.1104654,0.553697967 C21.1164266,0.552442996 21.1196581,0.551553536 21.1196581,0.551553536 C21.3050801,0.571633074 21.5177977,0.607995862 21.7799298,0.683607872 C22.0668476,0.767377195 22.5450073,0.942084863 22.9690306,1.14288024 C23.3941521,1.34367562 24.0258732,1.79480637 24.0282263,2.04642808 C23.9314366,2.10666669 23.9009047,2.12439316 23.6139917,2.04642808 C24.7086402,2.82811822 26.2779816,4.29706193 27.2049347,5.37869017 C27.84246,5.25821294 28.7920025,5.12126421 29.2288894,4.97364823 C29.2006525,5.00470877 27.7824567,3.94325419 27.4672236,3.34218577 C27.4576545,3.32571427 27.4484414,3.26062206 27.4589565,3.2110507 C27.4707219,3.16383241 27.5119618,3.12372981 27.5119618,3.12372981 C27.5119618,3.12372981 27.5308271,3.07656799 27.601733,3.03640892 C27.7906062,2.92769704 28.3481271,2.87208614 29.8962908,3.94179215 C26.6890553,1.41945706 23.2360022,0.381439062 20.3062721,0.0956193876 C19.8918179,0.0471461278 19.1254384,0.0153451595 19.1254384,0.0153451595 L19.1252894,0.0153451595 Z M31.2506635,5.12294901 C31.2506635,5.82196793 28.8497469,6.39847029 27.7905513,6.59330456 C27.6288169,6.62169828 27.4587683,6.65113363 27.2804055,6.68062545 C27.2755425,6.68188042 27.2708991,6.68307264 27.2708991,6.68307264 C27.2655498,6.68322952 27.2611103,6.68417074 27.2555728,6.68522178 L27.2368831,6.6934889 L27.2378243,6.6934889 C30.1934382,11.5444229 30.9542644,15.5272307 31.1856497,20.0156349 C31.1856607,20.0157918 31.1856388,20.0161055 31.1856497,20.0162624 C32.5850994,19.5781206 32.8211909,17.5765985 32.0842875,16.2127586 C33.0066913,16.5351294 33.4591084,15.6375583 33.4176943,14.6289851 C33.3456904,12.9143808 31.8881198,11.1384398 30.9565391,12.0961396 C30.4203527,10.6060183 29.6740841,9.06710992 28.8924253,7.77762709 C28.9713316,7.76225369 29.1132218,7.72927148 29.1899319,7.71389808 C29.8547529,7.58526354 30.6543577,7.2378091 31.1360784,7.08548698 C31.3215004,7.44582056 31.6319018,8.3163156 32.5825424,8.74487255 C32.6120342,8.75899098 32.6393252,8.76821502 32.6677189,8.77888227 C32.9336159,8.89810453 33.1861475,8.88882872 33.2179923,8.49210568 C33.2274046,8.36096277 33.176605,8.0929778 33.0926788,7.86033753 C33.0183217,7.65248293 32.9651674,7.52160513 32.8825025,7.3786953 C32.1917977,6.06677985 31.2507263,5.12294901 31.2507263,5.12294901 L31.2506635,5.12294901 Z M31.1857094,20.0156914 C31.0913857,20.0230173 30.969117,20.0257468 30.8783983,20.013856 C29.9147373,19.8863195 29.1084184,18.2579945 29.5324261,16.602217 C28.1790966,17.5387392 26.6535223,15.6140056 26.8753385,13.8342213 C26.9947176,12.8906399 27.6120849,12.0531035 28.6890855,12.4404503 C28.2521987,10.9360537 27.7031488,9.51087712 27.0618585,8.20005978 C26.1052568,8.32163511 25.0567284,8.42342895 23.9430984,8.50123716 C24.9328,9.99496655 23.9620704,11.383749 22.583949,11.1628741 C21.583737,11.0023946 20.650666,9.95372506 20.910445,8.70438562 C20.1003611,9.26645581 18.4365832,9.04542402 18.2797118,7.27293417 C18.2361015,11.0351807 18.212323,15.8461126 18.2181272,20.8506237 C23.1336922,20.8990907 28.8918135,20.3746288 31.1854301,20.0157071 L31.1857094,20.0156914 Z M5.08544734,19.9231373 C6.51878124,20.4094386 6.91174407,22.5432032 6.54232763,23.7275822 C7.91683476,23.1962588 9.64461626,25.5725467 9.04003392,27.1619676 C8.76143033,27.8940864 8.03862971,28.0972505 7.27915256,27.6580106 C7.68890063,29.0455381 8.22034953,30.3113333 8.85555316,31.4367287 C9.82737143,31.5702262 10.9198238,31.6858875 12.113772,31.774363 C11.1548171,30.5945332 11.9246007,29.626323 13.2048282,29.6912678 C14.3029279,29.7478983 15.7577532,30.6619095 15.4473047,31.9102136 C16.4357513,31.4639145 18.1080004,31.8286671 18.3098938,33.1183116 C18.2614206,30.3443547 18.2282501,26.2715028 18.2213478,21.4641791 C18.2213478,21.2550695 18.2189006,21.0615843 18.2189006,20.8526316 C16.6577165,20.8560828 15.0755117,20.7959399 13.5014641,20.7309951 C10.1583779,20.5927914 7.88311525,20.4004043 5.08562774,19.9233584 L5.08544734,19.9231373 Z M5.08391,19.9240737 C3.66218458,19.9204704 3.50296012,21.9587004 4.092122,23.3167361 C3.31043186,22.725174 3.00437578,23.2718332 2.9088411,23.5339716 C2.44230559,24.8211013 3.91372786,27.8691124 5.06739144,27.2869627 C5.55871264,28.6887655 6.19426139,29.9735422 6.95345617,31.1177621 C6.14682348,30.9547727 5.47597867,30.7741824 4.96228761,30.5827993 C4.94816918,30.5591117 3.65048198,28.2894964 2.82036564,28.013089 C2.74349866,27.9883033 2.62074679,27.9965846 2.61478568,27.988272 C2.66545514,28.0662355 3.14485411,28.8989261 3.71288542,29.6344803 C4.49583053,30.6502226 5.38387947,31.5629003 5.3979979,31.5641553 C5.42168548,31.5688615 5.45490456,31.5698341 5.55640663,31.6217553 C6.16334204,31.9334588 7.07493738,32.1722014 8.66073458,32.4591191 C5.73210259,28.2952818 5.11700986,24.418676 5.08391,19.9240737 L5.08391,19.9240737 Z M8.66196759,32.4602988 C11.046121,35.582667 13.418487,36.3587098 14.7812288,36.6266461 C15.082265,36.6870416 15.2136604,36.7154039 15.750945,36.7979183 C15.750945,36.7979183 15.8995445,36.8214113 15.8995445,36.8190583 C15.1922114,36.5686915 14.5156722,36.2358418 13.8059389,35.9878281 C13.2520261,35.792837 13.0795146,35.7823894 12.9673515,35.8285096 C12.0331824,35.2816559 11.168821,34.5447368 10.391837,33.6423498 C11.2088233,33.7546698 12.127619,33.8527301 13.1337921,33.9294402 C13.208306,34.5835939 14.1743985,35.237779 14.986757,35.3853949 C16.031991,35.5733269 16.5468429,34.8965523 15.954026,34.1123522 C17.2245274,34.6306553 18.1232435,34.0190702 18.2826249,33.3779431 C18.3005082,33.301233 18.3024989,33.1960664 18.3108131,33.1193563 C14.3289466,33.0933157 11.5338121,32.9019012 8.66196759,32.4602988 L8.66196759,32.4602988 Z" id="Shape" fill="#DF3B3E" fill-rule="nonzero"></path>
            <path d="M18.4543504,2.98055643e-05 C18.4541936,2.98055643e-05 18.4538798,0.000233738372 18.4537229,0.000343548346 C18.4535661,0.000377432567 18.4532523,0.000610229711 18.4530955,0.000657291128 C16.6092291,1.04273825 14.9954931,5.57931769 14.1014831,11.323948 C14.1008556,11.3282777 14.100385,11.3327956 14.0996477,11.3371252 C15.4291484,13.0280419 16.404559,14.0990029 18.2230122,16.0059316 C18.2230122,15.7814486 18.2285811,14.6219965 18.2392515,13.0195709 C18.2439577,11.4042662 18.2561638,9.3117587 18.2796945,7.27352872 C18.3198489,3.81388706 18.3881444,0.547824703 18.4543504,0.000500419737 C18.4543504,0.000436729952 18.4543504,0.000265112651 18.4543504,2.98055643e-05 L18.4543504,2.98055643e-05 Z M18.4543504,2.98055643e-05 C16.9617191,0.00363784755 15.6403914,0.160681797 14.1323867,0.522113482 C11.9819937,1.03822036 11.209559,1.75153026 9.85277832,2.73054892 C12.4058602,1.20011163 15.3379434,0.133543046 18.4543504,2.98055643e-05 L18.4543504,2.98055643e-05 Z M14.0996006,11.3371252 C14.0995081,11.3370091 14.0994437,11.3369684 14.0992869,11.3368115 C14.0999144,11.3324661 14.1006987,11.3282934 14.101436,11.323948 C12.7470084,9.47929734 12.3171808,8.60175878 11.7869555,7.05249693 C10.6250091,9.50518112 9.75468664,12.4407155 9.27638577,15.5958697 C10.4064873,17.2775311 11.1056631,18.2601734 13.35865,20.7236818 C13.383398,17.4221665 13.6520622,14.2197939 14.0995065,11.3371252 L14.0996006,11.3371252 Z M11.7870026,7.0526538 C13.5121173,3.41464937 15.860482,0.697793752 18.4527817,0.000814162519 C16.4578482,0.114324732 15.4684604,0.546271676 14.4368741,0.962875029 C15.6908413,0.500433855 17.1002366,0.123111099 18.451213,0.00111221816 C16.0815138,0.372724856 13.8559793,1.69469575 11.9263044,3.47189174 C11.4185117,4.78631713 11.4468113,5.55639878 11.7798508,7.06675654 C11.7821254,7.06197196 11.7846197,7.05745406 11.7868943,7.05266948 L11.7870026,7.0526538 Z M14.437031,0.962906403 C11.7386862,2.01974896 9.30953269,3.83129979 7.34220858,6.08914971 C6.80495544,7.77175225 6.80633591,8.70952943 7.07656257,10.5066481 C8.27756993,7.70225823 9.95201516,5.27294787 11.9347127,3.45700465 C12.5452561,2.39875024 12.9266418,1.76718602 14.437031,0.963063274 L14.437031,0.962906403 Z M9.83658919,2.74066713 C4.41982006,5.99214045 0.700085643,11.9297226 0.495839092,18.6238955 C0.886605727,18.8695561 1.45117018,19.1352648 2.22236562,19.3242948 C2.36056932,14.2783697 4.30075468,9.58211085 7.34029475,6.09140866 C7.98629114,4.55626523 8.55527936,3.87732585 9.83643232,2.74142011 L9.83658919,2.74066713 Z M7.0773783,10.5063971 C5.86231525,13.3545541 5.16088051,16.5688489 5.08652348,19.9222886 C6.23544954,20.1219859 7.51426512,20.3013056 8.86524154,20.4311951 C8.89002722,18.7862417 9.02942314,17.1649758 9.26692642,15.5978306 C7.94675955,13.3815516 7.54745911,12.3753785 7.07747242,10.5062559 L7.0773783,10.5063971 Z M36.985902,18.0919163 C36.8856611,18.2703434 36.5894566,18.4994384 36.2812043,18.6778012 C36.2870085,18.8820477 36.2916206,19.085353 36.2916206,19.2921095 C36.3007975,25.5677495 33.3607924,30.8309416 28.7048495,33.9065621 C28.5828537,33.9992181 28.3267267,34.1621997 28.0436679,34.3345856 L27.9805523,34.3823828 C30.3281327,32.9380679 33.2958257,30.5020121 35.1840866,26.4680642 C37.2069432,22.4898058 36.9859114,18.0919163 36.9859114,18.0919163 L36.985902,18.0919163 Z M28.0436052,34.3344445 L28.1116246,34.2829703 C28.312671,34.1618655 28.5096858,34.0353017 28.7047867,33.9064162 C28.713446,33.8998433 28.7338597,33.8870284 28.7409409,33.8812932 C29.4754127,33.2873781 29.7046175,32.8410947 30.0081637,32.1679439 C30.0072224,32.169042 30.0054341,32.1705479 30.0044929,32.1716147 C29.3957534,32.8572995 25.9926639,35.6431786 23.5026443,36.3139606 C23.9053332,36.1996014 24.2703102,36.1061845 24.6623318,35.9444501 C26.0675857,35.3668496 26.2718323,35.3501428 27.3156545,34.7645419 C27.477734,34.6733384 27.767648,34.5024569 28.0436319,34.3343692 L28.0436052,34.3344445 Z M30.0044976,32.17169 C32.6709975,29.1509431 34.3019893,24.884355 34.2937068,20.0144395 C34.2937068,19.810193 34.290271,19.6071387 34.285408,19.4028921 C33.4233997,19.6308262 32.3568312,19.8362336 31.1865706,20.0144395 C31.2030421,20.2199411 31.2101625,20.4298664 31.2101625,20.6342698 C31.2148686,23.8002482 30.6766429,26.6771126 29.6999616,29.1084623 C30.2504233,30.5196774 30.2583296,31.1110825 30.0045117,32.17169 L30.0044976,32.17169 Z M27.3031722,20.4563745 C25.5033868,20.6157558 24.3696772,20.6852498 22.9361682,20.7572538 C22.9362476,20.7573181 22.9361237,20.7575676 22.9361682,20.7575676 C25.471385,23.3931638 26.0099245,24.0106096 27.0810423,25.238442 C27.2321095,23.9299777 27.3114707,22.5426071 27.3102304,21.0913899 C27.3089608,20.8836922 27.3078784,20.6628486 27.3031722,20.456249 L27.3031722,20.4563745 Z M22.9361865,20.7575519 C21.0632989,20.8320658 19.8280936,20.8530175 18.2196912,20.8519194 C18.2196912,21.0560091 18.2209462,21.260287 18.2209462,21.4646905 C18.2232993,22.9101035 18.227974,24.2869636 18.2350332,25.5835057 C21.1991182,28.3927586 21.1991182,28.3929154 22.4341666,29.6293757 C22.7612435,27.2817954 22.9444065,24.4770918 22.9397004,21.3704107 C22.9397004,21.1660073 22.9386023,20.9618863 22.9363276,20.7575519 L22.9361865,20.7575519 Z M27.0810423,25.239995 C27.0844935,25.2128562 26.0160582,30.7957522 25.0086144,32.787862 C25.5884111,33.9060412 25.6143105,34.3527482 25.3805722,35.0849297 C27.1765927,33.722188 28.6563605,31.6663884 29.675554,29.1205226 C29.0212434,27.7894688 28.5782229,27.0800964 27.081058,25.2401519 L27.0810423,25.239995 Z M22.4320332,29.6396994 C21.8026652,34.144732 20.680721,36.9175908 19.3004096,36.9765744 C19.4160238,36.9718683 19.5968652,36.9612637 19.7137343,36.9542092 C19.8613503,36.943542 20.0394935,36.928258 20.1871095,36.9177476 C22.1012542,36.7451891 23.7487175,35.2775004 25.0087085,32.7892064 C24.361614,31.7347169 23.7710246,31.0463652 22.4319391,29.6398563 L22.4320332,29.6396994 Z M25.384039,35.0671358 C24.1653052,35.9846766 22.8618608,36.5467154 21.4059374,36.7746809 L21.7849387,36.7109519 C22.1876276,36.640046 22.1651636,36.6329241 22.9103027,36.4652286 L23.3542644,36.3377706 C24.7193592,35.9126491 24.9589019,35.699053 25.384039,35.067175 L25.384039,35.0671358 Z" id="Shape" fill="#454545" fill-rule="nonzero"></path>
        </g>
    </g>
</svg>