<?xml version="1.0" encoding="UTF-8"?>
<svg width="45px" height="36px" viewBox="0 0 45 36" version="1.1" xmlns="http://www.w3.org/2000/svg" xmlns:xlink="http://www.w3.org/1999/xlink">
    <title>UNC Logo</title>
    <defs>
        <path d="M0,0 L45,0 L45,36 L0,36 L0,0 Z" id="path-1"></path>
    </defs>
    <g id="UNC-Logo" stroke="none" fill="none" xlink:href="#path-1" fill-rule="nonzero">
        <rect id="Rectangle" x="0" y="0" width="45" height="36"></rect>
        <path d="M13.6756437,0 C14.3071126,0 14.9134803,0.273138054 15.3340921,0.749599369 L16.5444571,2.12088801 C18.8740844,1.6050282 21.3019942,1.34496537 23.7770703,1.34496537 C26.5131131,1.34496537 29.1753855,1.66009497 31.7140472,2.28664411 C31.9077077,1.91759616 32.1069097,1.55688788 32.3121059,1.20404433 C32.7147071,0.527063852 33.4381218,0.114278103 34.2197809,0.114278103 C34.453709,0.114278103 34.6733649,0.152468152 34.9232911,0.230178425 C36.9244093,0.902303109 38.807302,1.75442446 40.5137755,2.76083262 C41.0325878,3.06256193 41.403377,3.56480031 41.547406,4.14353336 C41.691749,4.72352785 41.5945765,5.33540027 41.2781138,5.85304354 C41.1626031,6.03888871 41.0492969,6.23087288 40.9392397,6.43076941 C42.3316452,7.43707802 43.5279225,8.56219572 44.5110305,9.79033345 C45.220268,10.6741433 45.1500774,11.9514473 44.3517621,12.7533888 L40.3263596,16.7970756 C39.9112588,17.2140619 39.3460114,17.4488546 38.758568,17.4488546 C38.6344006,17.4488546 38.5466433,17.4445963 38.4148018,17.4198273 C38.3491384,17.4101831 38.2844875,17.396903 38.2210094,17.3802333 C38.2133597,17.5871192 38.2111232,17.7948916 38.2111232,18.0029302 C38.2111232,18.209771 38.213334,18.4163362 38.2209528,18.6219548 C38.3000912,18.6013183 38.3810531,18.585848 38.4635022,18.5758455 C38.5348504,18.5636785 38.5577246,18.5621856 38.6388151,18.5568929 C38.6818955,18.5553999 38.7034357,18.5546534 38.7184048,18.5543013 L38.758568,18.5540757 C39.346408,18.5540757 39.908597,18.7861944 40.3263596,19.2058546 L44.3459281,23.2466112 C45.1442435,24.0485527 45.214434,25.3258567 44.5063327,26.208249 C43.5226028,27.4371622 42.3265352,28.5622259 40.9346149,29.5683581 C41.0358998,29.7517722 41.1405716,29.9300402 41.2475335,30.1043042 C41.5471357,30.5616678 41.6655387,31.1143496 41.5809061,31.6747296 C41.4738342,32.329042 41.0837112,32.9047889 40.5165259,33.2341367 C38.6902896,34.3125437 36.6836205,35.2069798 34.56903,35.8874689 C34.3451422,35.9624371 34.1090989,36 33.8755798,36 C33.2440695,36 32.641379,35.7298488 32.2178385,35.2512011 L31.0074858,33.8818939 C28.6773759,34.3980296 26.2511918,34.6579648 23.7741533,34.6579648 C21.0430987,34.6579648 18.3831611,34.3423638 15.8399706,33.7161396 C15.6486244,34.0814834 15.4514871,34.4387941 15.2493421,34.7864628 C14.8501019,35.4727101 14.1186764,35.8886521 13.3343596,35.8886521 C13.0913997,35.8886521 12.8498256,35.8489847 12.6308494,35.7727518 C10.6297312,35.1006271 8.74683847,34.2485058 7.040365,33.2420976 C6.52049984,32.9397559 6.14861426,32.4384427 6.00155924,31.8379299 C5.86837564,31.2670987 5.96185164,30.6637874 6.27423398,30.1527783 C6.39071647,29.9644182 6.50494229,29.770221 6.61585281,29.5685414 C2.40752722,26.5105762 0,22.3818243 0,18 C0,13.6164395 2.40934868,9.48511974 6.61938211,6.42994775 C6.51751,6.2445662 6.41299199,6.06608968 6.30660699,5.89276558 C6.00671884,5.4347327 5.88775523,4.87996252 5.97013656,4.34209532 C6.06932259,3.68087089 6.46261759,3.10044261 7.03632098,2.76197589 C8.86454084,1.68549979 10.8710602,0.791907506 12.9821936,0.112531082 C13.2060813,0.0375628529 13.4421247,0 13.6756437,0 Z M19.4106739,20.7597382 C19.3411657,21.8533015 19.2115738,22.9363901 19.0267549,24.0038086 C20.1891748,24.2246133 21.4063212,24.3634134 22.6405189,24.4135584 L19.4106739,20.7597382 Z M24.9136226,11.5864428 L28.1426289,15.2393142 C28.2117086,14.1444553 28.3406676,13.0616659 28.5248002,11.995938 C27.3639326,11.7753152 26.1474696,11.636576 24.9136226,11.5864428 Z" id="White" fill="#FFFFFF"></path>
        <path d="M39.2661187,20.2650506 C39.1290217,20.1273308 38.9481702,20.0540757 38.758568,20.0540757 C38.7323153,20.0540757 38.7031457,20.0540757 38.6768931,20.0599361 C38.4581213,20.0833777 38.265602,20.2093767 38.1489237,20.39691 C37.8426431,20.8921151 37.4459367,21.3697389 36.9588047,21.8268514 C36.795455,20.5756526 36.7137802,19.2922216 36.7137802,18.0029302 C36.7137802,16.7136388 36.795455,15.4302078 36.9588047,14.1760788 C37.4459367,14.6331913 37.8426431,15.1108151 38.1489237,15.6060202 C38.265602,15.7935535 38.4581213,15.9166223 38.6768931,15.9429941 C38.7060627,15.9488546 38.7323153,15.9488546 38.758568,15.9488546 C38.9481702,15.9488546 39.1319386,15.8726692 39.2661187,15.7378796 L43.2915211,11.6941929 C43.5511304,11.4334044 43.5744661,11.0173149 43.3440264,10.7301545 C42.2064126,9.30900373 40.7479335,8.03143314 39.0035924,6.9238146 C39.31279,6.26158764 39.6482402,5.63745338 40.0070261,5.06020245 C40.1091196,4.89318061 40.1412062,4.69392648 40.0945348,4.50639318 C40.0478635,4.31885988 39.9282682,4.15476825 39.7620016,4.05807139 C38.1372558,3.09989345 36.3491604,2.2911561 34.4473036,1.6523708 C34.3714627,1.62892914 34.2956218,1.6142781 34.2197809,1.6142781 C33.9689225,1.6142781 33.7326488,1.74613745 33.5984688,1.97176345 C33.2134303,2.63399041 32.8488105,3.33137986 32.5075264,4.04928077 C29.7451669,3.24933404 26.8107069,2.84496537 23.7770703,2.84496537 C21.1051365,2.84496537 18.4944588,3.16142781 16.0150443,3.78556207 L14.2123641,1.74320725 C14.075267,1.58790623 13.8769139,1.5 13.6756437,1.5 C13.6027198,1.5 13.5268789,1.51172083 13.4568719,1.53516249 C11.4266689,2.18859883 9.52189516,3.03835908 7.79505587,4.05514118 C7.61128749,4.16355887 7.48294133,4.35109217 7.45085479,4.56499734 C7.42168521,4.75546084 7.46835654,4.95178476 7.58211791,5.10708578 C7.92923595,5.67261588 8.25301832,6.27916889 8.55346502,6.92088439 C4.05843232,9.77490677 1.49734295,13.7863612 1.49734295,18 C1.49734295,22.2136388 4.05843232,26.222163 8.55054806,29.0791156 C8.24135048,29.7384124 7.90590028,30.3625466 7.54711441,30.9427278 C7.44502087,31.1097496 7.41585129,31.3090037 7.45960566,31.496537 C7.506277,31.6870005 7.62587229,31.848162 7.79213891,31.9448588 C9.41688467,32.9030368 11.2049801,33.7117741 13.1068369,34.3505594 C13.1826778,34.3769313 13.2585187,34.3886521 13.3343596,34.3886521 C13.585218,34.3886521 13.8244086,34.2567928 13.9556717,34.0311668 C14.3407102,33.3689398 14.70533,32.6715503 15.0436972,31.9536494 C17.8060567,32.750666 20.7375997,33.1579648 23.7741533,33.1579648 C26.449004,33.1579648 29.0567647,32.8415024 31.5361793,32.2173681 L33.3388595,34.2567928 C33.4788735,34.415024 33.6743097,34.5 33.8755798,34.5 C33.9485038,34.5 34.0243447,34.4882792 34.0943517,34.4648375 C36.1245546,33.8114012 38.0293284,32.9616409 39.7561677,31.9419286 C39.942853,31.8335109 40.0682822,31.6459776 40.1032857,31.4320725 C40.1324553,31.2386787 40.085784,31.045285 39.9720226,30.889984 C39.6249046,30.3244539 39.2982052,29.7179009 38.9977585,29.0761854 C40.7420996,27.9685669 42.2005787,26.6909963 43.3381924,25.2698455 C43.5686321,24.9826851 43.5452965,24.5665956 43.2856872,24.3058071 L39.2602848,20.2621204 L39.2661187,20.2650506 Z M18.0277455,18 C18.0277455,17.6366542 18.0219116,17.2733085 18.0102437,16.9128929 L25.9181176,25.8588173 C25.2063798,25.911561 24.491725,25.9408631 23.7770703,25.9408631 C21.5368463,25.9408631 19.3141241,25.671284 17.295589,25.1584976 C17.779804,22.8407032 18.0277455,20.4350027 18.0277455,18 L18.0277455,18 Z M29.526395,18 C29.526395,18.3604156 29.5322289,18.7237613 29.5438968,19.0871071 L21.6360229,10.1411827 C22.3419268,10.088439 23.0594985,10.0591369 23.7770703,10.0591369 C26.0172942,10.0591369 28.2400164,10.328716 30.2556346,10.8415024 C29.7714195,13.1592968 29.526395,15.5649973 29.526395,18 Z M8.68472814,18 C8.68472814,16.4118274 9.58898521,15.1196058 10.5953358,14.1731486 C10.7586855,15.4272776 10.8403603,16.7077784 10.8403603,18 C10.8403603,19.2922216 10.7586855,20.5727224 10.5953358,21.8268514 C9.58898521,20.8803942 8.68472814,19.5881726 8.68472814,18 L8.68472814,18 Z" id="Outer" fill="#13294B"></path>
        <path d="M36.4395861,23.1864678 C36.1508073,21.539691 35.9932915,19.7991476 35.9932915,18 C35.9932915,16.2008524 36.1478903,14.460309 36.4395861,12.8135322 C37.428435,13.5372936 38.2189307,14.3489611 38.758568,15.2250932 L42.7839704,11.1814065 C41.5763496,9.6752797 39.9807735,8.33031433 38.0876676,7.20511454 C38.47854,6.29968034 38.9160837,5.45285029 39.3944649,4.67634523 C37.8222243,3.74746937 36.0837172,2.95924347 34.2168639,2.33217901 C33.7384828,3.14970698 33.300939,4.01411827 32.8983988,4.91662227 C30.1272884,4.04928077 27.0382296,3.56286628 23.7770703,3.56286628 C20.9476207,3.56286628 18.2465174,3.92914225 15.7700198,4.59136921 L13.6727268,2.22083111 C11.6746104,2.86547682 9.82234187,3.69472563 8.15675869,4.67634523 L8.16550957,4.68806606 C8.64097377,5.46164092 9.07851751,6.30261055 9.46647296,7.20218434 C5.01811159,9.84523175 2.21491469,13.7043154 2.21491469,18 C2.21491469,22.2956846 5.01811159,26.151838 9.463556,28.7978157 C9.07268359,29.7032499 8.63513985,30.5471497 8.15675869,31.3236548 C9.7289992,32.2525306 11.4675063,33.0407565 13.3343596,33.667821 C13.8127408,32.850293 14.2502845,31.9888119 14.6528248,31.0863079 C17.4239351,31.9536494 20.5159109,32.4400639 23.7741533,32.4400639 C26.6036028,32.4400639 29.3047062,32.073788 31.7812038,31.411561 L33.8755798,33.7820991 C35.8736962,33.1374534 37.7259647,32.3082046 39.3915479,31.326585 L39.382797,31.3177944 C38.9044159,30.5442195 38.4697891,29.7032499 38.0818336,28.8007459 C39.9749396,27.6755461 41.5705157,26.3305807 42.7781365,24.8244539 L38.752734,20.7807672 C38.2130968,21.6568993 37.4226011,22.4685669 36.4337522,23.1923282 L36.4395861,23.1864678 Z M11.1145544,23.1864678 C9.13685667,21.7389451 7.9671564,19.945658 7.9671564,17.9970698 C7.9671564,16.0484816 9.13685667,14.2551945 11.1145544,12.8076718 C11.4033333,14.4544486 11.557932,16.194992 11.557932,17.9970698 C11.557932,19.7991476 11.4033333,21.5367608 11.1145544,23.1864678 Z M23.7770703,26.6616942 C21.1313891,26.6616942 18.6373898,26.3042088 16.4467541,25.6742142 C17.0068101,23.259723 17.3072568,20.6782099 17.3072568,17.9970698 C17.3072568,16.9392648 17.2605855,15.8931806 17.1701598,14.8705381 L27.3882646,26.4302078 C26.2273152,26.5796484 25.0196945,26.658764 23.7770703,26.658764 L23.7770703,26.6616942 Z M30.3839807,21.1236015 L20.162959,9.56393181 C21.3239083,9.41449121 22.5315291,9.3353756 23.7741533,9.3353756 C26.4198345,9.3353756 28.9109168,9.69286095 31.1044694,10.3228556 C30.5473304,12.7373468 30.2439667,15.3188599 30.2439667,18 C30.2439667,19.057805 30.2906381,20.100959 30.3839807,21.1236015 Z" id="Inner" fill="#4B9CD3"></path>
    </g>
</svg>